<?xml version="1.0" encoding="utf-8"?>
<!-- Generator: Adobe Illustrator 19.0.0, SVG Export Plug-In . SVG Version: 6.00 Build 0)  -->
<svg version="1.1" id="图层_1" xmlns="http://www.w3.org/2000/svg" xmlns:xlink="http://www.w3.org/1999/xlink" x="0px" y="0px"
	 viewBox="-202 383.9 190 74" style="enable-background:new -202 383.9 190 74;" xml:space="preserve">
<style type="text/css">
	.st0{fill:#E8474D;}
	.st1{filter:url(#Adobe_OpacityMaskFilter);}
	.st2{fill:#FFFFFF;}
	.st3{mask:url(#mask-2);fill:#E8474D;}
	.st4{fill:#1E528E;}
	.st5{fill:#024A8A;}
	.st6{filter:url(#Adobe_OpacityMaskFilter_1_);}
	.st7{mask:url(#mask-4);fill:#024A8A;}
	.st8{filter:url(#Adobe_OpacityMaskFilter_2_);}
	.st9{mask:url(#mask-6);fill:#E8474D;}
	.st10{opacity:0.66;fill:#333333;enable-background:new    ;}
</style>
<title>yixin-logo</title>
<desc>Created with Sketch.</desc>
<g id="Page-1_3_">
	<g id="yixin-logo">
		<g id="logo-group">
			<g id="Group">
				<g id="Page-1">
					<path id="Fill-1" class="st0" d="M-185.6,388.7l-1.3-3.7c-0.3-0.8-1.2-1.2-2-0.9c-0.8,0.3-1.2,1.2-0.9,2l1.3,3.7
						c0.3,0.8,1.2,1.2,2,0.9C-185.7,390.4-185.3,389.5-185.6,388.7L-185.6,388.7z M-196.3,396.5l-3.6-1.4c-0.8-0.3-1.7,0.1-2,0.9
						c-0.3,0.8,0.1,1.7,0.9,2l3.6,1.4c0.8,0.3,1.7-0.1,2-0.9C-195.1,397.7-195.5,396.8-196.3,396.5L-196.3,396.5z M-191.4,391.8
						c0.6,0.6,0.6,1.6,0,2.2c-0.6,0.6-1.6,0.6-2.2,0l-3.7-3.8c-0.6-0.6-0.6-1.6,0-2.2c0.6-0.6,1.6-0.6,2.2,0L-191.4,391.8z"/>
					<g id="Group-5" transform="translate(0.000000, 5.801080)">
						<g id="Fill-3-Clipped" transform="translate(0.000000, -0.000000)">
							<g id="path-1_1_">
							</g>
							<defs>
								<filter id="Adobe_OpacityMaskFilter" filterUnits="userSpaceOnUse" x="-202" y="384.2" width="54.9" height="46.6">
									<feColorMatrix  type="matrix" values="1 0 0 0 0  0 1 0 0 0  0 0 1 0 0  0 0 0 1 0"/>
								</filter>
							</defs>
							<mask maskUnits="userSpaceOnUse" x="-202" y="384.2" width="54.9" height="46.6" id="mask-2">
								<g class="st1">
									<polygon id="path-1" class="st2" points="-147.1,407.5 -147.1,430.8 -202,430.8 -202,407.5 -202,384.2 -147.1,384.2 
																			"/>
								</g>
							</mask>
							<path id="Fill-3" class="st3" d="M-156.3,418.5c-2.1,0-3.7-1.7-3.7-3.9c0-2.1,1.7-3.9,3.7-3.9c2.1,0,3.7,1.7,3.7,3.9
								C-152.5,416.8-154.2,418.5-156.3,418.5L-156.3,418.5z M-191.5,402.5c1.3-7.4,8.4-13,17-13c8.6,0,15.7,5.6,17,13H-191.5z
								 M-174.6,418.5c-4.4,0-8.1-2.7-9.7-6.6h19.4C-166.5,415.8-170.2,418.5-174.6,418.5L-174.6,418.5z M-192.9,418.5
								c-2.1,0-3.7-1.7-3.7-3.9c0-2.1,1.7-3.9,3.7-3.9c2.1,0,3.7,1.7,3.7,3.9C-189.1,416.8-190.8,418.5-192.9,418.5L-192.9,418.5z
								 M-147.1,405.1c0-1.4-1.1-2.6-2.5-2.6h-2.6c-1.3-10.3-10.8-18.3-22.4-18.3c-11.6,0-21.1,8-22.4,18.3h-2.6
								c-1.4,0-2.5,1.1-2.5,2.6c0,1.3,1,2.4,2.2,2.5c-1.4,2-2.2,4.4-2.2,7.1c0,3.5,1.4,6.7,3.7,8.9v1.6c0,3.1,2.4,5.6,5.4,5.6
								c2.4,0,4.5-1.7,5.2-3.9h26.3c0.7,2.3,2.7,3.9,5.2,3.9c3,0,5.4-2.5,5.4-5.6v-1.6c2.3-2.2,3.7-5.4,3.7-8.9
								c0-2.6-0.8-5.1-2.2-7.1C-148.1,407.5-147.1,406.4-147.1,405.1L-147.1,405.1z"/>
						</g>
					</g>
				</g>
				<g id="Page-1_1_" transform="translate(67.087845, 11.076923)">
					<path id="Fill-1_1_" class="st4" d="M-174.5,415.6c-0.8,0-1.4,0.7-1.4,1.5h0l0,6.7c0,0,0,0,0,0c0,0.8,0.6,1.5,1.4,1.5
						c0.8,0,1.4-0.7,1.4-1.5v-6.7C-173.1,416.3-173.7,415.6-174.5,415.6L-174.5,415.6z M-167.1,413.4c0-0.8-0.6-1.5-1.4-1.5
						s-1.4,0.7-1.4,1.5l0,10.4c0,0,0,0,0,0c0,0.8,0.6,1.5,1.4,1.5s1.4-0.7,1.4-1.5V413.4C-167.1,413.4-167.1,413.4-167.1,413.4
						L-167.1,413.4z M-126.6,417.6c-0.1-0.4-0.3-0.8-0.5-1.1c-0.3-0.4-0.7-0.7-1.1-0.9c-0.4-0.2-1-0.3-1.5-0.3
						c-0.5,0-1.1,0.1-1.6,0.3c-0.8,0.3-1.4,0.7-1.9,1l-0.1,0.1l-0.1-0.1c-0.4-0.7-0.7-1-1.4-1.3h0l-0.1,0c-0.1,0-0.3-0.1-0.4-0.1
						c-0.3,0-0.6,0.1-0.8,0.3c-0.2,0.2-0.3,0.5-0.3,0.8c0,0.3,0.1,0.6,0.3,0.8l0,0c0,0,0,0,0,0l0,0c0.2,0.3,0.3,0.6,0.3,1v5.5
						c0,0.4,0.1,0.8,0.4,1c0.3,0.3,0.6,0.4,1,0.4c0.8,0,1.4-0.7,1.4-1.5l0,0v-5.6l0,0c0.4-0.3,0.7-0.6,1.1-0.7
						c0.3-0.2,0.7-0.2,1.1-0.2c0.6,0,1,0.2,1.2,0.5c0.2,0.3,0.3,0.9,0.3,1.8v4.3c0,0.4,0.1,0.8,0.4,1c0.3,0.3,0.6,0.4,1,0.4
						c0.8,0,1.4-0.7,1.4-1.5l0-4.5C-126.4,418.6-126.5,418-126.6,417.6L-126.6,417.6z M-174.5,414.9c0.8,0,1.4-0.7,1.4-1.5
						c0-0.8-0.6-1.5-1.4-1.5c-0.8,0-1.4,0.7-1.4,1.5C-175.9,414.2-175.3,414.9-174.5,414.9L-174.5,414.9z M-141.3,422.8v-2h-0.5
						c-1,0-1.7,0.1-2.2,0.4c-0.5,0.3-0.8,0.7-0.8,1.2c0,0.4,0.1,0.6,0.3,0.8c0.2,0.2,0.5,0.3,0.8,0.3c0.3,0,0.7,0,1.1-0.1
						C-142.1,423.1-141.8,423-141.3,422.8L-141.3,422.8z M-138.3,423.2c0.2,0.2,0.3,0.5,0.3,0.8c0,0.3-0.1,0.6-0.3,0.8
						c-0.2,0.2-0.5,0.3-0.8,0.3c-0.1,0-0.3,0-0.4-0.1l-0.1,0l0,0c-0.7-0.2-1.1-0.9-1.2-1.1l0-0.1l-0.1,0.1c-0.6,0.4-1.3,0.7-1.9,0.9
						c-0.6,0.2-1.2,0.3-1.8,0.3c-0.9,0-1.6-0.2-2.1-0.7c-0.5-0.5-0.8-1.2-0.8-2.1c0-1,0.5-1.8,1.4-2.4c0.9-0.5,2.4-0.8,4.2-0.8h0.6
						l0-0.7c0-0.6-0.2-1-0.5-1.2c-0.3-0.3-0.9-0.4-1.6-0.4c-0.5,0-0.9,0.1-1.4,0.2c-0.1,0-0.3,0.1-0.4,0.1l-0.1,0
						c-0.1,0-0.2,0.1-0.3,0.1c-0.2,0-0.4-0.1-0.6-0.3c-0.2-0.2-0.2-0.4-0.2-0.6c0-0.4,0.2-0.7,0.6-0.8l0.1,0
						c0.3-0.1,0.6-0.2,0.9-0.3c0.6-0.1,1.3-0.2,2-0.2c1.6,0,2.7,0.3,3.3,0.9c0.7,0.6,1,1.6,1,3v3.1
						C-138.7,422.6-138.6,422.9-138.3,423.2L-138.3,423.2L-138.3,423.2z M-181.4,422.8l0-2h-0.5c-1,0-1.7,0.1-2.2,0.4
						c-0.5,0.3-0.8,0.7-0.8,1.2c0,0.4,0.1,0.6,0.3,0.8c0.2,0.2,0.5,0.3,0.8,0.3c0.3,0,0.7,0,1.1-0.1
						C-182.2,423.1-181.8,423-181.4,422.8L-181.4,422.8z M-178.4,423.2c0.2,0.2,0.3,0.5,0.3,0.8c0,0.3-0.1,0.6-0.3,0.8
						c-0.2,0.2-0.5,0.3-0.8,0.3c-0.1,0-0.3,0-0.4-0.1l-0.1,0l0,0c-0.7-0.2-1.1-0.9-1.2-1.1l0-0.1l-0.1,0.1c-0.6,0.4-1.3,0.7-1.9,0.9
						c-0.6,0.2-1.2,0.3-1.8,0.3c-0.9,0-1.6-0.2-2.1-0.7c-0.5-0.5-0.8-1.2-0.8-2.1c0-1,0.5-1.8,1.4-2.4c0.9-0.5,2.4-0.8,4.2-0.8h0.6
						l0-0.7c0-0.6-0.2-1-0.5-1.2c-0.3-0.3-0.9-0.4-1.6-0.4c-0.5,0-0.9,0.1-1.4,0.2c-0.1,0-0.3,0.1-0.4,0.1l-0.1,0
						c-0.1,0-0.2,0.1-0.3,0.1c-0.2,0-0.4-0.1-0.6-0.3c-0.2-0.2-0.2-0.4-0.2-0.6c0-0.4,0.2-0.7,0.6-0.8l0.1,0
						c0.3-0.1,0.6-0.2,0.9-0.3c0.6-0.1,1.3-0.2,2-0.2c1.6,0,2.7,0.3,3.3,0.9c0.7,0.6,1,1.6,1,3v3.1
						C-178.7,422.6-178.7,422.9-178.4,423.2L-178.4,423.2L-178.4,423.2z M-192.5,417.9L-192.5,417.9c-0.4-0.3-0.8-0.4-1.1-0.6
						c-0.3-0.1-0.7-0.2-1-0.2c-0.7,0-1.3,0.3-1.6,0.8c-0.4,0.5-0.5,1.2-0.5,2.2c0,1,0.2,1.8,0.5,2.3c0.4,0.5,0.9,0.8,1.7,0.8
						c0.4,0,0.8-0.1,1.1-0.2c0.3-0.1,0.6-0.4,0.9-0.7l0,0V417.9z M-189.3,423.3c0.2,0.2,0.3,0.5,0.3,0.8c0,0.3-0.1,0.6-0.3,0.8
						c-0.2,0.2-0.5,0.4-0.8,0.4c-0.1,0-0.3,0-0.4-0.1l-0.1,0l0,0c-0.7-0.3-1-0.5-1.4-1.3l-0.1-0.1l-0.1-0.2l-0.2,0.2
						c-0.4,0.5-0.8,0.8-1.4,1.1c-0.5,0.2-1.1,0.4-1.7,0.4c-1.3,0-2.3-0.5-3.1-1.4c-0.8-0.9-1.2-2.2-1.2-3.8c0-1.5,0.4-2.7,1.1-3.6
						c0.7-0.9,1.8-1.3,3-1.3c0.6,0,1.1,0.1,1.6,0.2c0.5,0.2,0.9,0.4,1.3,0.7l0.1,0.1l0-2.9h0c0-0.8,0.6-1.5,1.4-1.5
						c0.8,0,1.4,0.7,1.4,1.5l0,8.7C-189.7,422.6-189.6,422.9-189.3,423.3L-189.3,423.3L-189.3,423.3
						C-189.4,423.2-189.4,423.2-189.3,423.3L-189.3,423.3z M-122,422.3c-0.4,0-0.7,0.2-1,0.4c-0.3,0.3-0.4,0.6-0.4,1
						c0,0.4,0.1,0.8,0.4,1c0.3,0.3,0.6,0.4,1,0.4c0.8,0,1.4-0.7,1.4-1.5C-120.6,423-121.3,422.3-122,422.3L-122,422.3z M-163.7,420
						l2.3-2.9c0.2-0.2,0.3-0.5,0.3-0.8c0-0.3-0.1-0.6-0.4-0.8c-0.2-0.2-0.5-0.3-0.8-0.3c-0.3,0-0.6,0.1-0.8,0.4l-3.9,4.7l4.6,4.7
						c0.2,0.2,0.5,0.3,0.8,0.3c0.3,0,0.6-0.1,0.8-0.4c0.2-0.2,0.3-0.5,0.3-0.8c0-0.3-0.1-0.6-0.4-0.8L-163.7,420z M-149.3,423.2
						c0.2,0.2,0.3,0.5,0.3,0.8c0,0.3-0.1,0.6-0.3,0.8c-0.2,0.2-0.5,0.4-0.8,0.4c-0.1,0-0.3,0-0.4-0.1l-0.1,0v0
						c-0.7-0.3-1-0.5-1.4-1.3l-0.1-0.1l-0.1,0.1c-0.5,0.4-1.1,0.7-1.9,1c-0.5,0.2-1.1,0.3-1.6,0.3c-0.6,0-1.1-0.1-1.5-0.3
						c-0.4-0.2-0.8-0.5-1.1-0.9c-0.3-0.3-0.4-0.7-0.5-1.1c-0.1-0.4-0.2-1-0.2-1.8v-4.5c0-0.8,0.6-1.5,1.4-1.5c0.4,0,0.7,0.2,1,0.4
						c0.3,0.3,0.4,0.6,0.4,1v4.3c0,0.9,0.1,1.5,0.3,1.8c0.2,0.3,0.6,0.5,1.2,0.5c0.4,0,0.7-0.1,1.1-0.2c0.3-0.1,0.7-0.4,1.1-0.7l0,0
						v-5.6l0,0c0-0.8,0.6-1.5,1.4-1.5c0.4,0,0.7,0.2,1,0.4c0.3,0.3,0.4,0.6,0.4,1v5.5C-149.7,422.6-149.6,422.9-149.3,423.2
						L-149.3,423.2L-149.3,423.2C-149.3,423.2-149.3,423.2-149.3,423.2L-149.3,423.2z"/>
					<path id="Fill-3_1_" class="st5" d="M-113.9,402.4L-113.9,402.4h-10.8v-3.9h8.7v0c0.8,0,1.4-0.7,1.4-1.5c0-0.8-0.6-1.5-1.4-1.5
						h-8.7v-2.2c0-0.9-0.7-1.6-1.6-1.6c-0.9,0-1.6,0.7-1.6,1.6v2.2h-7.3c-0.2,0-0.4-0.2-0.4-0.4c0-0.1,0-0.2,0.1-0.3l3.5-5h17
						c0.8,0,1.4-0.7,1.4-1.5s-0.6-1.5-1.4-1.5v0h-14.9l0.2-0.3c0.1-0.2,0.2-0.5,0.2-0.8c0-0.8-0.6-1.5-1.4-1.5
						c-0.5,0-0.9,0.3-1.2,0.6l-1.4,2h-5.3v0c-0.8,0-1.4,0.7-1.4,1.5s0.6,1.5,1.4,1.5v0h3.1l-3.1,4.3c-0.3,0.5-0.5,1-0.5,1.6
						c0,1.5,1.2,2.7,2.6,2.7h8.7v3.9h-10.8c-0.8,0-1.4,0.7-1.4,1.5c0,0.8,0.6,1.5,1.4,1.5h10.8v2.3c0,0.9,0.7,1.6,1.6,1.6
						c0.9,0,1.6-0.7,1.6-1.6v-2.3h10.8c0.8,0,1.4-0.7,1.4-1.5C-112.4,403.1-113.1,402.4-113.9,402.4"/>
					<path id="Fill-5" class="st5" d="M-155.5,400.5c0.2-0.3,0.4-0.6,0.5-0.9h7.6c0.2,0.3,0.3,0.6,0.5,0.9H-155.5z M-148,405.5
						l-0.3,1.4l0,0h-1.4v-1.4H-148z M-152.3,403.4h-3.6c-0.6,0-1,0.5-1,1c0,0.2,0.1,0.4,0.1,0.5l0.5,1.9h-2.6l0.5-1.9
						c0.1-0.2,0.1-0.3,0.1-0.5c0-0.6-0.5-1-1-1h-3.6v-0.9h10.7V403.4z M-152.3,406.9h-1.4l0,0l-0.3-1.4h1.7V406.9z M-161.6,406.9
						h-1.4v-1.4h1.7L-161.6,406.9L-161.6,406.9z M-168.3,400.5c0.2-0.3,0.4-0.6,0.5-0.9h7.6c0.2,0.3,0.3,0.6,0.5,0.9H-168.3z
						 M-165.5,406.9h-1.4l0,0l-0.3-1.4h1.7V406.9z M-143.9,400.7c-0.8-0.8-1.5-1.6-2-2.6c-0.2-0.3-0.5-0.5-0.9-0.5h-8.8h0
						c-0.4,0-0.7,0.2-0.9,0.5l0,0c-0.3,0.6-0.7,1.2-1.2,1.7c-0.4-0.5-0.8-1.1-1.2-1.7c-0.2-0.3-0.5-0.5-0.9-0.5h-8.7
						c-0.4,0-0.7,0.2-0.9,0.5c-0.5,1-1.2,1.8-2,2.6c-0.4,0.4-0.5,1-0.1,1.5c0.2,0.2,0.5,0.4,0.8,0.4h5v0.9h-3.6c-0.6,0-1,0.5-1,1
						c0,0.2,0.1,0.4,0.1,0.5l0.5,1.9h-0.5v0c-0.6,0-1,0.5-1,1c0,0.6,0.5,1,1,1h24.9c0.6,0,1-0.5,1-1c0-0.6-0.5-1-1-1v0h-0.5l0.5-1.9
						c0.1-0.2,0.1-0.3,0.1-0.5c0-0.6-0.5-1-1-1h-3.6v-0.9h5c0.3,0,0.6-0.1,0.8-0.4C-143.5,401.7-143.5,401-143.9,400.7L-143.9,400.7
						z M-164.3,387.1h13.3c0.2,0.4,0.5,0.8,0.7,1.1H-165C-164.7,387.9-164.5,387.5-164.3,387.1L-164.3,387.1z M-150.8,393.6l-0.3,1
						h-5.3v-1H-150.8z M-158.9,394.6h-5.3l-0.2-1h5.5V394.6z M-169.4,391.9C-169.3,391.9-169.3,391.9-169.4,391.9
						c0.9-0.5,1.7-1,2.4-1.6h8.1v1.1h-7.6c-0.6,0-1,0.5-1,1c0,0.3,0.1,0.6,0.3,0.8l0.3,1.3h-1.4c-0.6,0-1,0.5-1,1c0,0.6,0.5,1,1,1
						h21.3c0.6,0,1-0.5,1-1c0-0.6-0.5-1-1-1h-1.4l0.3-1.3c0.2-0.2,0.3-0.5,0.3-0.8c0-0.6-0.5-1-1-1h-7.6v-1.1h8.1
						c0.7,0.6,1.5,1.1,2.3,1.6c0,0,0,0,0,0c0.6,0.3,1.3,0,1.5-0.6c0.3-0.6,0-1.3-0.5-1.6c-1.8-0.9-3.3-2.4-4.2-4.1
						c-0.2-0.4-0.6-0.6-1-0.6h-15c-0.4,0-0.8,0.2-1,0.6c-1,1.8-2.5,3.2-4.2,4.1c-0.6,0.3-0.8,1-0.5,1.6
						C-170.6,392-169.9,392.2-169.4,391.9L-169.4,391.9z"/>
					<g id="Group-9" transform="translate(0.000000, 1.007793)">
						<g id="Fill-7-Clipped">
							<g id="path-3_1_">
							</g>
							<defs>
								<filter id="Adobe_OpacityMaskFilter_1_" filterUnits="userSpaceOnUse" x="-202" y="384" width="27.5" height="23.9">
									<feColorMatrix  type="matrix" values="1 0 0 0 0  0 1 0 0 0  0 0 1 0 0  0 0 0 1 0"/>
								</filter>
							</defs>
							<mask maskUnits="userSpaceOnUse" x="-202" y="384" width="27.5" height="23.9" id="mask-4">
								<g class="st6">
									<polygon id="path-3" class="st2" points="-202,384 -202,408 -174.5,408 -174.5,384 									"/>
								</g>
							</mask>
							<path id="Fill-7" class="st7" d="M-197.7,391h20v0.5c0,0.6-0.5,1-1,1h-18c-0.6,0-1-0.5-1-1V391z M-197.7,387.8
								c0-0.6,0.5-1,1-1h18c0.6,0,1,0.5,1,1v0.5h-20V387.8z M-178.1,396.6H-197c0.1-0.4,0.1-0.9,0.2-1.4c0,0,0.1,0,0.1,0h18
								c2,0,3.6-1.7,3.6-3.7v-3.7c0-2.1-1.6-3.7-3.6-3.7h-18c-2,0-3.6,1.7-3.6,3.7v3.7c0,0.6,0.2,1.3,0.4,1.8
								c0.3,0.6,0.4,1.2,0.4,1.8c0,1.5-0.8,2.8-1.9,3.5c-0.4,0.2-0.7,0.7-0.7,1.2c0,0.7,0.6,1.3,1.3,1.3c0.2,0,0.5-0.1,0.7-0.2l0,0
								c0.7-0.4,1.3-1,1.8-1.6h4.7c-1.4,2.4-3.5,4.4-6,5.6c-0.6,0.3-0.9,1-0.7,1.7c0.2,0.8,1,1.2,1.7,0.9c3.9-1.3,7.1-4.4,8.8-8.2
								h4.8c-1,2.5-2.9,4.5-5.3,5.6c-0.6,0.3-1,1-0.8,1.7c0.2,0.8,1,1.2,1.7,0.9c0,0,0,0,0,0c3.7-1.4,6.6-4.4,7.8-8.2h2.7
								c0.6,0,1,0.5,1,1v3.9c0,0.6-0.5,1-1,1h-1.8c-0.7,0-1.3,0.6-1.3,1.3c0,0.7,0.6,1.3,1.3,1.3h2.4c2,0,3.6-1.7,3.6-3.7v-3.9
								C-174.5,398.2-176.1,396.6-178.1,396.6L-178.1,396.6z"/>
						</g>
					</g>
					<path id="Fill-10" class="st5" d="M-106.8,389.8c-0.7,0.5-1.5,0.9-2.3,1.2c-0.1,0.1-0.3,0.1-0.5,0.1c-0.8,0-1.4-0.7-1.4-1.5
						c0-0.7,0.4-1.2,1-1.4c1.4-0.5,2.7-1.4,3.6-2.6l0,0c0.3-0.3,0.7-0.5,1.1-0.5c0.8,0,1.4,0.7,1.4,1.5v6c0,0.8-0.6,1.5-1.4,1.5
						s-1.4-0.7-1.4-1.5V389.8z"/>
					<path id="Fill-12" class="st5" d="M-83.5,402.8v-2.5c0-2.9-2.3-5.2-5.1-5.2H-103c-2.8,0-5.1,2.3-5.1,5.2v2.5
						c0,0.9,0.7,1.6,1.6,1.6c0.9,0,1.6-0.7,1.6-1.6V400c0-1.1,0.8-1.9,1.9-1.9h14.5c1,0,1.9,0.9,1.9,1.9l0,2.8
						c0,0.9,0.7,1.6,1.6,1.6S-83.5,403.7-83.5,402.8"/>
					<g id="Group-16" transform="translate(99.583520, 0.231373)">
						<path id="Fill-14" class="st5" d="M-182.3,388.8L-182.3,388.8l-1.2-3c-0.3-0.8-1.1-1.2-1.9-0.9s-1.1,1.2-0.8,1.9l0,0l0.4,1
							h-3.5l-0.3-2.5c-0.1-0.8-0.8-1.4-1.6-1.3c-0.8,0.1-1.4,0.9-1.2,1.7l0.2,2.1h-8.1c-0.8,0-1.4,0.7-1.4,1.5
							c0,0.8,0.6,1.5,1.4,1.5h8.5c0.3,1.5,0.8,2.8,1.6,4l4.8,0.8v0c-1.6-1.1-2.9-2.8-3.4-4.8h5.2c0.8,0,1.4-0.7,1.4-1.5
							C-182.2,389.1-182.3,388.9-182.3,388.8"/>
					</g>
					<path id="Fill-17" class="st5" d="M-84.9,405.7L-84.9,405.7c-4,0-7.5-2.1-9.5-5.4c-0.3-0.5-0.8-0.7-1.3-0.7
						c-0.6,0-1.1,0.3-1.3,0.8c-2,3.2-5.5,5.4-9.5,5.4l0,0c-0.9,0-1.6,0.7-1.6,1.6c0,0.9,0.7,1.6,1.6,1.6c4.3,0,8.2-2,10.9-5.1
						c2.7,3.1,6.5,5.1,10.9,5.1c0.9,0,1.6-0.7,1.6-1.6C-83.3,406.4-84,405.7-84.9,405.7"/>
				</g>
				<g id="Page-1_2_" transform="translate(151.618530, 41.538461)">
					<g id="Fill-1-Clipped" transform="translate(-0.000000, 0.000000)">
						<g id="path-5_1_">
						</g>
						<defs>
							<filter id="Adobe_OpacityMaskFilter_2_" filterUnits="userSpaceOnUse" x="-202" y="383.9" width="36" height="10.8">
								<feColorMatrix  type="matrix" values="1 0 0 0 0  0 1 0 0 0  0 0 1 0 0  0 0 0 1 0"/>
							</filter>
						</defs>
						<mask maskUnits="userSpaceOnUse" x="-202" y="383.9" width="36" height="10.8" id="mask-6">
							<g class="st8">
								<polygon id="path-5" class="st2" points="-202,394.7 -166,394.7 -166,383.9 -202,383.9 								"/>
							</g>
						</mask>
						<path id="Fill-1_2_" class="st9" d="M-166.8,384.8c-0.5-0.6-1.3-0.9-2.3-0.9c-0.6,0-1.3,0.2-1.8,0.5c-0.7,0.5-1,0.9-1.1,1
							l-0.1,0.1l-0.1-0.1c-0.2-0.5-0.5-0.9-1-1.1c-0.5-0.3-1-0.4-1.6-0.4c-0.6,0-1.3,0.2-1.8,0.5c-0.7,0.4-1.4,1.2-1.4,1.2
							c-0.5-0.8-0.9-1.3-1.6-1.6v0l-0.1,0c-0.1-0.1-0.3-0.1-0.4-0.1c-0.3,0-0.6,0.1-0.8,0.4c-0.2,0.2-0.3,0.6-0.3,0.9
							c0,0.3,0.1,0.6,0.3,0.9l0,0c0,0,0,0,0,0l0,0v0c0.2,0.3,0.3,0.6,0.3,1.1v5.9c0,0.4,0.1,0.8,0.4,1.1c0.3,0.3,0.6,0.5,1,0.5
							c0.8,0,1.4-0.7,1.4-1.6l0,0v-6l0,0c0.3-0.3,0.8-0.9,1.6-0.9c0.5,0,0.8,0.2,1,0.5c0.2,0.3,0.3,0.8,0.3,1.4v5.1
							c0,0.4,0.1,0.8,0.4,1.1c0.3,0.3,0.6,0.5,1,0.5c0.8,0,1.4-0.7,1.4-1.6v-6l0,0c0.3-0.3,0.8-0.9,1.6-0.9c0.5,0,0.8,0.2,1,0.5
							c0.2,0.3,0.3,0.8,0.3,1.4v5.1c0,0.4,0.1,0.8,0.4,1.1c0.3,0.3,0.6,0.5,1,0.5c0.8,0,1.4-0.7,1.4-1.6v-5.9
							C-166,386.2-166.3,385.3-166.8,384.8 M-185,389.3c0-1-0.2-1.7-0.6-2.2c-0.4-0.5-1-0.8-1.7-0.8c-0.7,0-1.3,0.3-1.7,0.8
							c-0.4,0.5-0.6,1.3-0.6,2.2c0,1,0.2,1.7,0.6,2.2c0.4,0.5,1,0.8,1.7,0.8c0.7,0,1.3-0.3,1.7-0.8C-185.2,391-185,390.2-185,389.3
							 M-182.2,389.3c0,1.6-0.5,3-1.4,3.9c-0.9,1-2.2,1.5-3.8,1.5c-1.6,0-2.8-0.5-3.8-1.5c-0.9-1-1.4-2.3-1.4-3.9
							c0-1.6,0.5-3,1.4-3.9c0.9-1,2.2-1.5,3.8-1.5c1.6,0,2.8,0.5,3.8,1.5C-182.7,386.3-182.2,387.7-182.2,389.3 M-194.2,393
							c0.1,0.6-0.2,1.2-0.8,1.4l0,0c-0.2,0-0.4,0.1-0.6,0.1c-0.5,0.1-0.9,0.1-1.3,0.1c-1.6,0-2.8-0.5-3.7-1.5c-0.9-1-1.4-2.3-1.4-4
							c0-1.6,0.5-2.9,1.4-3.9c0.9-1,2.2-1.4,3.8-1.4c0.4,0,0.9,0,1.3,0.1c0.2,0,0.3,0.1,0.5,0.1l0.1,0c0.6,0.1,0.9,0.8,0.8,1.4
							c-0.1,0.5-0.5,0.9-1,0.9c-0.1,0-0.1,0-0.2,0l0,0c-0.4-0.1-0.9-0.2-1.3-0.2c-0.8,0-1.4,0.3-1.8,0.8c-0.4,0.5-0.6,1.3-0.6,2.2
							c0,1,0.2,1.8,0.6,2.3c0.4,0.5,1.1,0.8,1.9,0.8c0.4,0,0.8,0,1.2-0.1l0,0c0,0,0,0,0,0c0.1,0,0.2,0,0.2,0
							C-194.7,392.1-194.3,392.5-194.2,393"/>
					</g>
				</g>
			</g>
		</g>
		<path id="易车_x2F_腾讯_x2F_京东_x2F_百度共同投资" class="st10" d="M-200,444.4h10.1v5.9h-1.1v-0.6h-9V444.4z
			 M-201.8,453.3c1.5-0.8,2.7-1.9,3.7-3.4l1,0.4c-0.2,0.3-0.4,0.5-0.5,0.7h8.5c-0.1,1.8-0.2,3.2-0.3,4.2c-0.1,1.5-0.9,2.3-2.2,2.3
			c-0.8,0-1.5,0-2.4,0c-0.1-0.4-0.1-0.8-0.2-1.2c0.8,0.1,1.6,0.1,2.3,0.1c0.9,0,1.3-0.4,1.4-1.3c0.1-0.9,0.2-1.9,0.2-3h-2.1
			c-0.6,2.5-2.2,4.4-4.9,5.8c-0.2-0.3-0.5-0.6-0.8-1c2.6-1.1,4.1-2.7,4.6-4.8h-2.1c-0.7,2-2.4,3.6-5.3,4.8c-0.2-0.3-0.5-0.6-0.8-1
			c2.7-1,4.3-2.3,4.9-3.8h-1.8c-0.8,0.8-1.6,1.5-2.6,2.2C-201.3,453.9-201.5,453.6-201.8,453.3z M-198.9,448.7h7.9v-1.2h-7.9V448.7z
			 M-191,445.4h-7.9v1.2h7.9V445.4z M-187.4,453.7h6.7v-2.4h-5v-1c0.6-1.1,1.2-2.3,1.7-3.3h-2.8v-1.1h3.3c0.4-0.8,0.7-1.5,1-2.3
			l1,0.3c-0.3,0.7-0.6,1.3-0.9,1.9h7.7v1.1h-8.2c-0.6,1.3-1.2,2.4-1.6,3.3h3.8v-2.8h1.1v2.8h4v1h-4v2.4h5.5v1.1h-5.5v3h-1.1v-3h-6.7
			V453.7z M-167.4,444.8l-5.1,12.9h-1.3l5.1-12.9H-167.4z M-159.6,451.7l-0.3,1.3h2.6l0.2-1.7h-3.5V451c-0.4,0.4-0.8,0.7-1.3,1
			c-0.2-0.3-0.4-0.6-0.7-0.8c1.1-0.7,1.9-1.4,2.4-2.1h-2v-0.8h2.5c0.2-0.3,0.3-0.7,0.5-1.1h-2.6v-0.8h2.9c0.2-0.8,0.3-1.7,0.3-2.7h1
			c-0.1,1-0.2,1.9-0.3,2.7h3.8v0.8h-4c-0.1,0.4-0.2,0.8-0.4,1.1h4.8v0.8h-2.6c0.7,0.9,1.7,1.6,2.9,1.9c-0.2,0.3-0.5,0.6-0.7,0.9
			c-0.8-0.3-1.4-0.7-2-1.2l-0.3,2.2h1.9c-0.1,1.2-0.1,2.2-0.2,2.8c-0.1,1.1-0.6,1.7-1.7,1.7c-0.5,0-1.1,0-1.8,0
			c-0.1-0.3-0.1-0.6-0.2-1c0.7,0.1,1.3,0.1,1.8,0.1c0.6,0,0.9-0.3,0.9-0.9c0-0.6,0.1-1.2,0.1-1.9h-5.5l0.4-2.1H-159.6z
			 M-166.2,444.5h3.5v11.6c0,0.9-0.4,1.3-1.3,1.3c-0.6,0-1,0-1.3,0c0-0.3-0.1-0.6-0.2-1c0.5,0.1,0.9,0.1,1.2,0.1
			c0.4,0,0.6-0.2,0.6-0.6v-3.3h-1.6v0.2c0,2.1-0.4,3.7-1.1,4.8c-0.2-0.3-0.5-0.5-0.8-0.8c0.6-1,0.9-2.3,0.9-4.1V444.5z
			 M-162.1,454.7h5.9v0.8h-5.9V454.7z M-165.2,451.8h1.6v-2.7h-1.6V451.8z M-163.6,445.5h-1.6v2.7h1.6V445.5z M-160,450.5h3.8
			c-0.4-0.4-0.7-0.9-1-1.4h-1.6C-159.2,449.6-159.6,450-160,450.5z M-156.7,445.8c0.5-0.6,0.9-1.1,1.2-1.7l0.9,0.6
			c-0.5,0.6-0.9,1.2-1.3,1.6L-156.7,445.8z M-161.6,444.6l0.8-0.5c0.4,0.5,0.8,1,1.2,1.6l-0.8,0.6
			C-160.8,445.7-161.2,445.2-161.6,444.6z M-149.4,449.9h2.6v-4.4h-2.4v-1.1h7.6v4.5c-0.1,3.8,0.2,6.1,0.7,6.9
			c0.1,0.2,0.2,0.3,0.4,0.3c0.1,0,0.2-0.2,0.2-0.5c0.1-0.7,0.1-1.5,0.2-2.3c0.5,0.2,0.8,0.3,1,0.4c-0.1,1-0.1,1.8-0.2,2.5
			c-0.1,1-0.5,1.6-0.9,1.6c-0.5,0-1-0.4-1.5-1.1c-0.7-1.1-1-3.6-0.9-7.3v-3.9h-3v4.4h2.5v1.1h-2.5v6.8h-1.1V451h-2.6V449.9z
			 M-148.4,453.9c0.1,0.4,0.2,0.8,0.3,1.2c-0.7,0.5-1.4,1-2,1.5c-0.3,0.2-0.5,0.5-0.8,0.8l-0.9-1c0.4-0.3,0.5-0.8,0.5-1.5v-5.4h-1.6
			v-1.1h2.7v6.7C-149.6,454.9-149,454.4-148.4,453.9z M-151.6,443.9c0.9,0.9,1.6,1.7,2.2,2.4l-0.9,0.8c-0.6-0.8-1.3-1.7-2-2.5
			L-151.6,443.9z M-132.7,444.8l-5.1,12.9h-1.3l5.1-12.9H-132.7z M-130.4,447.9h9.8v4.8h-1.1v-0.6h-3.1v3.6c0,1.1-0.5,1.7-1.5,1.7
			h-1.8c-0.1-0.4-0.1-0.8-0.2-1.2c0.6,0.1,1.1,0.1,1.6,0.1c0.6,0,0.9-0.3,0.9-0.9v-3.3h-3.4v0.6h-1.1V447.9z M-121.7,448.9h-7.6v2.3
			h7.6V448.9z M-132.2,445.7h6.3c-0.3-0.5-0.6-1-0.9-1.6l1-0.5c0.4,0.6,0.7,1.2,1.1,1.8l-0.5,0.3h6.4v1h-13.4V445.7z M-128.7,453.4
			l0.8,0.9c-1.2,1-2.4,1.8-3.7,2.6c-0.2-0.3-0.4-0.6-0.6-1C-131,455.1-129.8,454.3-128.7,453.4z M-123.4,454.3l0.6-0.9
			c1.2,0.8,2.4,1.5,3.6,2.3l-0.7,1C-120.8,456-122,455.2-123.4,454.3z M-116.7,451.5v-1.1l1.6-3.8h-2.7v-1.1h3.1l0.8-2l1.2,0.3
			l-0.7,1.7h8.8v1.1h-9.2l-1.6,3.8h4.1v-3.1h1.1v3.1h4.9v1.1h-4.9v4.2c0,1.2-0.6,1.8-1.8,1.8c-0.6,0-1.3,0-2.1,0
			c-0.1-0.4-0.1-0.8-0.2-1.3c0.6,0.1,1.2,0.1,1.9,0.1c0.6,0,0.9-0.3,0.9-1v-3.8H-116.7z M-114.7,452.4l0.9,0.7
			c-1,1.3-2.2,2.6-3.6,3.9c-0.2-0.3-0.5-0.5-0.8-0.8C-117,455-115.8,453.7-114.7,452.4z M-108.9,453.3l0.8-0.8
			c1.3,1.1,2.5,2.2,3.8,3.4l-0.8,0.9C-106.5,455.6-107.7,454.4-108.9,453.3z M-97.9,444.8l-5.1,12.9h-1.3l5.1-12.9H-97.9z
			 M-96,447.5h4.2l0.4-1.9h-6v-1.1h13.3v1.1h-6.2l-0.4,1.9h5.2v10.1h-1.1v-1.1h-8.3v1.1H-96V447.5z M-94.9,455.5h8.3v-3h-8.3V455.5z
			 M-86.6,448.5h-8.3v3h8.3V448.5z M-80.2,453v-0.9h8.6v0.9c-0.8,0.9-1.8,1.7-2.9,2.4c1.3,0.6,2.9,0.9,4.6,1.1l-0.5,1.1
			c-2-0.3-3.8-0.8-5.2-1.6c-1.5,0.8-3.3,1.3-5.2,1.7c-0.1-0.3-0.3-0.6-0.6-1c1.8-0.3,3.4-0.7,4.8-1.3c-1-0.7-1.8-1.5-2.4-2.4H-80.2z
			 M-80.6,447.7h2v-1.2h1v1.2h3.9v-1.2h1v1.2h2.5v0.9h-2.5v2.7h-1v-0.5h-3.9v0.5h-1v-2.8h-2V447.7z M-76.9,444l1-0.5
			c0.3,0.5,0.6,1.1,0.9,1.7h5v1h-10.9v4.3c0,3.2-0.6,5.7-1.8,7.3c-0.2-0.3-0.5-0.6-0.8-1c1-1.3,1.5-3.4,1.5-6.4v-5.2h5.7
			C-76.5,444.8-76.7,444.4-76.9,444z M-77.5,450h3.9v-1.3h-3.9V450z M-73,453h-4.9c0.6,0.7,1.4,1.4,2.3,1.9
			C-74.6,454.4-73.7,453.8-73,453z M-69,451.6h3.5v-3.9h-3v-1.1h3v-2.7h1.1v2.7h4.1v-2.8h1.1v2.8h3v1.1h-3v3.9h3.5v1.1H-69V451.6z
			 M-64.4,451.6h4.1v-3.9h-4.1V451.6z M-64.5,453.4l0.8,0.9c-1.5,1.1-3.1,2.2-4.7,3.2c-0.2-0.3-0.4-0.6-0.7-1
			C-67.5,455.6-65.9,454.6-64.5,453.4z M-61.1,454.4l0.7-0.9c1.6,1,3.1,2,4.5,3l-0.8,1C-58.1,456.4-59.6,455.4-61.1,454.4z
			 M-52.8,457.6h-1.1v-13.1h11.6v11.4c0,1.1-0.5,1.6-1.6,1.6c-0.7,0-1.4,0-2.3-0.1c0-0.3-0.1-0.7-0.2-1.1c0.9,0.1,1.6,0.1,2.2,0.1
			c0.5,0,0.8-0.3,0.8-0.8v-10.1h-9.5V457.6z M-51,450h5.8v4.5h-4.7v0.7h-1V450z M-46.2,451h-3.7v2.4h3.7V451z M-52.1,447.3h8v1h-8
			V447.3z M-35.4,451.3v-1h7v1c-0.6,1.5-1.5,2.8-2.6,3.8c1.1,0.7,2.5,1.2,4.1,1.5c-0.3,0.4-0.5,0.7-0.7,1.1c-1.7-0.4-3.1-1-4.3-1.9
			c-1.2,0.9-2.7,1.6-4.4,2c-0.2-0.4-0.4-0.7-0.6-1c1.7-0.4,3.1-0.9,4.2-1.7c-1-1-1.7-2.3-2.1-3.8H-35.4z M-40.6,451.3
			c0.6-0.2,1.3-0.4,2-0.6v-3.1h-1.8v-1h1.8v-2.8h1v2.8h1.7v1h-1.7v2.8c0.5-0.2,1-0.3,1.4-0.5c0,0.3,0,0.7,0,1.1
			c-0.5,0.2-1,0.3-1.5,0.5v4.5c0,1-0.4,1.6-1.3,1.6h-1.3c0-0.3-0.1-0.7-0.2-1.2c0.5,0.1,0.9,0.1,1.2,0.1c0.4,0,0.6-0.2,0.6-0.7v-3.9
			c-0.6,0.2-1.2,0.4-1.9,0.7L-40.6,451.3z M-28.5,448.1h1.5c-0.1,0.3-0.2,0.7-0.2,1h-1.4c-1,0-1.6-0.5-1.6-1.6v-2.2h-3v0.5
			c0,1.8-0.7,3.2-2.1,4.1c-0.2-0.3-0.5-0.6-0.7-0.9c1.2-0.7,1.8-1.8,1.8-3.2v-1.5h5.1v3.1C-29.2,447.9-29,448.1-28.5,448.1z
			 M-29.6,451.3h-4.3c0.4,1.3,1,2.3,2,3.1C-30.9,453.5-30.1,452.5-29.6,451.3z M-22.5,449.6c2.7-0.7,4.2-2,4.4-3.7h-2.2
			c-0.3,0.7-0.7,1.3-1.1,1.9c-0.3-0.2-0.6-0.4-0.9-0.6c0.9-1.1,1.5-2.3,1.8-3.7l1,0.3c-0.1,0.4-0.3,0.8-0.4,1.2h6.5v0.9l-0.9,1.9
			c-0.3-0.2-0.6-0.3-1-0.4l0.7-1.5H-17c-0.1,0.3-0.2,0.6-0.2,0.9c0.8,1.3,2.3,2.3,4.4,2.8c-0.3,0.4-0.5,0.7-0.7,1
			c-1.9-0.6-3.3-1.6-4.2-2.8c-0.6,1.1-2,2.1-4.1,2.8C-22,450.3-22.3,450-22.5,449.6z M-24.3,450.6h9.5v4.6h-1.1v-3.6h-7.4v3.6h-1.1
			V450.6z M-22.7,446.9c0.2,0.4,0.3,0.7,0.5,1c-1.1,0.8-2.2,1.8-3.4,2.8l-0.7-1C-25,448.7-23.8,447.8-22.7,446.9z M-25.2,443.8
			c0.8,0.5,1.5,1,2.3,1.6l-0.7,0.9c-0.7-0.5-1.4-1.1-2.2-1.7L-25.2,443.8z M-19,452.2c0,1-0.1,1.8-0.2,2.4c2.1,0.7,4.1,1.4,5.9,2.2
			l-0.6,1c-1.7-0.7-3.6-1.5-5.8-2.3c-0.6,1.1-2.6,1.9-5.8,2.4c-0.2-0.4-0.4-0.7-0.6-1.1c3-0.3,4.8-0.9,5.5-1.8
			c0.3-0.5,0.5-1.4,0.5-2.8H-19z"/>
	</g>
</g>
</svg>
