<?xml version="1.0" encoding="UTF-8"?>
<svg width="98px" height="34px" viewBox="0 0 98 34" version="1.1" xmlns="http://www.w3.org/2000/svg" xmlns:xlink="http://www.w3.org/1999/xlink">
    <!-- Generator: Sketch 47 (45396) - http://www.bohemiancoding.com/sketch -->
    <title>淘车logo-M站抬头</title>
    <desc>Created with Sketch.</desc>
    <defs>
        <polygon id="path-1" points="98.0000836 0.121181503 98.0000836 33.9260254 8.36031227e-05 33.9260254 8.36031227e-05 0.121181503"></polygon>
    </defs>
    <g id="详情页" stroke="none" stroke-width="1" fill="none" fill-rule="evenodd">
        <g id="淘车logo-M站抬头">
            <g id="Page-1">
                <g id="Group-7">
                    <mask id="mask-2" fill="white">
                        <use xlink:href="#path-1"></use>
                    </mask>
                    <g id="Clip-6"></g>
                    <path d="M56.9426573,6.70342428 L79.8012935,6.70342428 C81.3557369,6.70342428 81.8833031,3.17626821 81.8833031,3.17626821 L58.1691007,3.17626821 C58.4889995,2.25728555 58.8401176,1.24671908 59.2315441,0.121181503 L52.3490766,0.121181503 C51.9586381,1.24396763 51.6069272,2.2545341 51.2862381,3.17626821 L47.0465417,3.17626821 L46.5490092,6.70342428 L50.0588067,6.70342428 C48.4055682,11.4549734 48.1236067,12.2625225 47.7236839,13.4081064 C46.3650525,17.2986497 47.6442525,19.8297827 52.9317706,19.8297827 L62.6304935,19.8297827 L61.7853995,25.8131931 L43.7108212,25.8131931 L43.2132887,29.3403491 L61.2870766,29.3403491 L60.681067,33.6288694 L67.5635345,33.6288694 L68.1695441,29.3403491 L77.2883393,29.3403491 C78.8431778,29.3403491 79.3707441,25.8131931 79.3707441,25.8131931 L68.667867,25.8131931 L69.5133561,19.8297827 L76.9868164,19.8297827 C78.5412598,19.8297827 79.0686284,16.3026266 79.0686284,16.3026266 L70.0118766,16.3026266 L70.6724212,11.6245803 L63.7903489,11.6245803 L63.129014,16.3026266 L57.3627345,16.3026266 C54.7914911,16.3026266 54.0023152,15.1371931 54.8215248,12.7953202 C55.108426,11.9716555 55.3299248,11.338037 56.9426573,6.70342428 M11.2878236,10.9274821 L15.4141031,10.9274821 L13.1611778,1.57669595 L6.04555373,1.57669595 C6.04555373,1.57669595 8.8382959,10.9274821 11.2878236,10.9274821 M10.5365851,13.9418867 L4.94023325,13.9418867 C4.94023325,13.9418867 6.63002602,15.7615746 7.35300916,17.1681526 C8.63952,19.6703954 8.21489831,21.0950543 5.58358747,25.1968694 C2.33717783,30.2548116 7.90361446e-05,33.0496902 7.90361446e-05,33.0496902 L8.27733687,33.0496902 C8.27733687,33.0496902 11.1406188,28.1304994 12.4790959,24.5860486 C13.7420935,21.2418636 14.1329272,19.2171931 12.4790959,16.5583145 C11.346508,14.7311584 10.5365851,13.9418867 10.5365851,13.9418867 M27.7336646,2.70223353 L25.43312,2.70223353 C26.2234814,1.25949364 26.7587537,0.12196763 26.7587537,0.12196763 L19.8804357,0.12196763 L16.4554043,8.63651098 L20.4589802,8.63651098 C21.2645561,8.63651098 22.2795778,7.5888 23.2576501,6.2293896 L26.4226525,6.2293896 C33.7560212,6.2293896 35.5141802,8.97808324 34.5710814,15.6519098 C34.4134043,16.7666382 33.6775778,21.9751237 33.4084598,23.8801064 C32.4845272,30.4187191 27.5009031,31.9341757 27.5009031,31.9341757 L30.782879,33.9260254 C30.782879,33.9260254 38.0289128,33.1094358 39.4574911,22.9964994 C39.7291778,21.074222 40.4489995,15.9791353 40.6667441,14.4347884 C41.9376453,5.44090405 37.4894911,2.70223353 27.7336646,2.70223353 M31.4548839,25.2794127 C31.497761,24.9747884 31.644373,23.9363145 31.644373,23.9363145 L27.5546477,23.9363145 C27.5546477,23.9363145 27.4430092,24.7283376 27.4030959,25.0101642 C27.2991634,25.7451931 26.95832,26.140222 26.1970043,26.140222 L25.743732,26.140222 L26.3742429,21.6805225 L30.6335007,21.6805225 C32.1883393,21.6805225 32.7159055,18.1533665 32.7159055,18.1533665 L26.8727634,18.1533665 L27.3473754,14.7991584 L32.3450284,14.7991584 L32.1573176,11.2720023 L22.7474718,11.2720023 C22.9274766,10.7010775 23.0339778,10.3194127 23.0339778,10.3194127 L17.7561417,10.3194127 L16.3988935,16.3535283 L20.0321851,16.3535283 C20.4700453,16.3535283 20.9474236,15.6872855 21.3908164,14.7991584 L22.0440501,14.7991584 L21.5698333,18.1533665 L15.7274814,18.1533665 L15.228961,21.6805225 L21.0713128,21.6805225 L20.4417899,26.140222 L19.9889128,26.140222 C19.2279923,26.140222 18.9985899,25.7451931 19.1023248,25.0101642 C19.1378911,24.7599792 19.2544694,23.9363145 19.2544694,23.9363145 L15.1643489,23.9363145 C15.1643489,23.9363145 15.0177369,24.9747884 14.9748598,25.2794127 C14.6103055,27.8567306 15.7027827,29.2352046 18.2030911,29.2352046 L19.0705128,29.2352046 L26.2412646,29.2352046 L27.1086863,29.2352046 C29.6084019,29.2352046 31.0905272,27.8567306 31.4548839,25.2794127" id="Fill-5" fill="#FF6402" mask="url(#mask-2)"></path>
                    <circle id="Oval-2" fill="#FF6402" mask="url(#mask-2)" cx="95" cy="18" r="3"></circle>
                </g>
            </g>
        </g>
    </g>
</svg>