<?xml version="1.0" encoding="UTF-8"?>
<svg width="80px" height="59px" viewBox="0 0 80 59" version="1.1" xmlns="http://www.w3.org/2000/svg" xmlns:xlink="http://www.w3.org/1999/xlink">
    <!-- Generator: Sketch 47.1 (45422) - http://www.bohemiancoding.com/sketch -->
    <title>taoche-logo-orange-full</title>
    <desc>Created with Sketch.</desc>
    <defs></defs>
    <g id="Page-1" stroke="none" stroke-width="1" fill="none" fill-rule="evenodd">
        <g id="taoche-logo-orange-full" transform="translate(-3.000000, -2.000000)">
            <rect id="Rectangle" x="0" y="2.84217094e-14" width="86" height="64"></rect>
            <g id="Page-1" transform="translate(3.127273, 2.341463)" fill-rule="nonzero" fill="#FF6402">
                <path d="M65.3698062,41.7560976 C65.197949,42.9941268 64.0727846,43.9964901 62.854563,43.9964901 C61.6378828,43.9964901 60.7886149,42.9941268 60.9595089,41.7560976 C61.1305955,40.5180683 62.2571085,39.515705 63.4749447,39.515705 C64.6923957,39.515705 65.5408929,40.5180683 65.3698062,41.7560976 M63.7583551,37.4634146 C61.4247952,37.4634146 59.2679091,39.3853449 58.9396077,41.7560976 C58.6113063,44.1260672 60.2374,46.0487805 62.5713453,46.0487805 C64.9049053,46.0487805 67.061984,44.1260672 67.3904781,41.7560976 C67.7176234,39.3853449 66.0919151,37.4634146 63.7583551,37.4634146 M56.4210892,43.9964901 C55.2535386,43.9964901 54.4470424,42.9941268 54.618129,41.7560976 C54.7907569,40.5180683 55.8746909,39.5149221 57.0407003,39.5149221 C57.6333382,39.5149221 58.1315702,39.7746636 58.4577522,40.1906022 L59.6185596,38.2945091 C58.9914346,37.7740474 58.1751125,37.4634146 57.242228,37.4634146 C54.9094387,37.4634146 52.7517819,39.3853449 52.4238659,41.7560976 C52.0959498,44.1260672 53.7216582,46.0487805 56.0559888,46.0487805 C56.9888733,46.0487805 57.8911241,45.7373648 58.6619773,45.2169031 L58.0254117,43.3208099 C57.5844012,43.7375316 57.0133418,43.9964901 56.4210892,43.9964901 M76.0280409,37.9186962 L74.5996217,37.9186962 L74.1094816,38.699878 C73.5384222,38.1167809 72.6259601,37.9186962 71.7497192,37.9186962 L70.6744551,37.9186962 L70.7158781,37.6170673 L68.522193,37.9621496 L67.4278551,45.8685078 L69.5753006,45.8685078 L70.4977812,39.1946982 L70.9518929,39.1946982 C72.522499,39.1946982 72.5392608,40.5405779 72.4228911,41.3828293 L71.8019314,45.8685078 L73.9482209,45.8685078 L74.6470173,40.813238 C74.7412305,40.1342303 74.6566506,39.6057435 74.4547375,39.1946982 L75.2290586,39.1946982 C76.8004354,39.1946982 76.8168119,40.5405779 76.6994789,41.3828293 L76.0122424,45.8685078 L78.2253867,45.8685078 L78.9249537,40.813238 C79.2397685,38.5342855 77.5753345,37.9186962 76.0280409,37.9186962" id="Fill-1"></path>
                <path d="M5.15390031,42.1346488 L5.49789059,39.7097406 L7.65091342,39.7097406 L7.87586779,38.1200851 L5.72362809,38.1200851 L5.88495307,36.982955 L3.26753358,37.3837134 L3.16298559,38.1200851 L1.78956965,38.1200851 L1.56363636,39.7097406 L2.93744387,39.7097406 L2.50221884,42.7793133 C2.13649667,45.3539 4.06554404,46.0487805 5.8608718,46.0487805 L6.25615716,46.0487805 L6.92221005,44.6072524 L6.85877644,44.6072524 C5.03838849,44.6072524 5.01959335,43.0868135 5.15390031,42.1346488 M45.3651306,39.2285203 C46.2571168,39.1583343 46.9705491,39.8029989 47.1829734,40.7600107 L43.2610535,41.3513571 C43.5234024,40.2126759 44.3899368,39.3051046 45.3651306,39.2285203 M45.0642125,44.1936976 C44.1718348,44.2646592 43.4582067,43.6199947 43.2457824,42.6629829 L49.3025174,41.7505644 L49.5031947,41.7203185 C49.5196404,41.6047636 49.5349115,41.4884331 49.5421554,41.3713272 C49.6846853,39.0294014 47.8625353,37.2842508 45.4718322,37.4730939 C43.0811291,37.6611615 41.0305007,39.7122611 40.8889498,42.0534113 C40.7472031,44.3930105 42.5666121,46.1379672 44.9580983,45.949318 C46.585836,45.8217422 48.0559686,44.8280863 48.8735574,43.4693467 L46.848968,42.9012664 C46.4470261,43.6248418 45.7864551,44.1372774 45.0642125,44.1936976 M13.9014733,41.6406321 C13.7276182,42.8669489 12.5822892,43.8598293 11.3449422,43.8598293 C10.1081826,43.8598293 9.246347,42.8669489 9.42059364,41.6406321 C9.59425293,40.4143154 10.7384073,39.421435 11.9755584,39.421435 C13.2127096,39.421435 14.0757199,40.4143154 13.9014733,41.6406321 M15.6038042,42.3770039 L16.722311,37.5351368 L14.1597107,37.8674541 C13.6140642,37.5646072 12.9740504,37.3885605 12.2649253,37.3885605 C9.89380053,37.3885605 7.70142537,39.2923082 7.36663688,41.6406321 C7.03498091,43.9881805 8.68679991,45.8927038 11.0581205,45.8927038 C11.9391428,45.8927038 12.7921683,45.6241744 13.5373174,45.1730061 C14.0124821,45.5229669 14.6665922,45.6759414 15.3336241,45.7069629 L15.3361692,45.7038607 L15.9847975,44.2956807 C15.3808077,43.8734012 15.4618617,42.9929736 15.6038042,42.3770039 M23.0280816,41.6406321 C22.8536392,42.8669489 21.708506,43.8598293 20.4721379,43.8598293 C19.2343994,43.8598293 18.3717807,42.8669489 18.5464189,41.6406321 C18.7200782,40.4143154 19.8640367,39.421435 21.1011879,39.421435 C22.3391222,39.421435 23.2021325,40.4143154 23.0280816,41.6406321 M21.3897717,37.3885605 C19.0184511,37.3885605 16.8266633,39.2923082 16.4932452,41.6406321 C16.1606104,43.9881805 17.8122336,45.8927038 20.1835542,45.8927038 C22.5556579,45.8927038 24.7482288,43.9881805 25.0806679,41.6406321 C25.4140859,39.2923082 23.7618754,37.3885605 21.3897717,37.3885605 M37.4594234,37.8395348 L35.8988392,37.8395348 L36.1735224,35.902439 L33.9443401,36.2434811 L32.6004873,45.7141366 L34.7815071,45.7141366 L35.7193064,39.1034651 L36.6486871,39.1034651 C38.244708,39.1034651 38.2613496,40.436612 38.1425094,41.2708952 L37.512089,45.7141366 L39.6935003,45.7141366 L40.4039959,40.7066925 C40.7242965,38.4491064 39.0325378,37.8395348 37.4594234,37.8395348 M29.7626165,43.8598293 C28.5767604,43.8598293 27.7566265,42.8669489 27.9306773,41.6406321 C28.1043366,40.4143154 29.2071808,39.4206595 30.3928411,39.4206595 C30.994873,39.4206595 31.5015588,39.6779436 31.8326274,40.0899473 L33.0118269,38.2117923 C32.3747498,37.6960606 31.5454141,37.3885605 30.5978256,37.3885605 C28.2263093,37.3885605 26.0325636,39.2923082 25.7007119,41.6406321 C25.3665107,43.9881805 27.0200918,45.8927038 29.3910208,45.8927038 C30.3391966,45.8927038 31.2560472,45.5842342 32.0395698,45.069472 L31.3928994,43.1905414 C30.9445569,43.6033206 30.3648442,43.8598293 29.7626165,43.8598293 M51.1422878,43.0678128 C50.3548496,43.0678128 49.626342,43.7004566 49.5157248,44.4806461 C49.4058907,45.2598662 49.9546697,45.8927038 50.7423037,45.8927038 C51.5293503,45.8927038 52.2574663,45.2598662 52.367692,44.4806461 C52.4781135,43.7004566 51.9291387,43.0678128 51.1422878,43.0678128" id="Fill-3"></path>
                <g id="Group-7">
                    <path d="M55.3284316,6.57184421 L77.539065,6.57184421 C79.0494426,6.57184421 79.5620533,3.11392193 79.5620533,3.11392193 L56.5201075,3.11392193 C56.8309377,2.21297778 57.1721022,1.2222475 57.5524324,0.118802857 L50.865071,0.118802857 C50.4857007,1.21955006 50.1439602,2.21028034 49.8323621,3.11392193 L45.7128537,3.11392193 L45.2294254,6.57184421 L48.6397263,6.57184421 C47.0333542,11.2301262 46.7593858,12.0218241 46.3708001,13.1449215 C45.0506836,16.9590983 46.2936205,19.4405481 51.4312466,19.4405481 L60.8550275,19.4405481 L60.0338905,25.3065115 L42.4716951,25.3065115 L41.9882668,28.7644338 L59.5496942,28.7644338 L58.9608638,32.9687756 L65.6482253,32.9687756 L66.2370556,28.7644338 L75.0973487,28.7644338 C76.6081103,28.7644338 77.120721,25.3065115 77.120721,25.3065115 L66.7212519,25.3065115 L67.5427729,19.4405481 L74.8043735,19.4405481 C76.3147511,19.4405481 76.8271698,15.9826259 76.8271698,15.9826259 L68.0271612,15.9826259 L68.6689805,11.396404 L61.982003,11.396404 L61.3394158,15.9826259 L55.7366003,15.9826259 C53.2382472,15.9826259 52.4714431,14.8400684 53.2674295,12.5441637 C53.5461976,11.7366665 53.7614173,11.1154851 55.3284316,6.57184421 M10.9678334,10.7129889 L14.97714,10.7129889 L12.7880812,1.54574733 L5.87417276,1.54574733 C5.87417276,1.54574733 8.58774552,10.7129889 10.9678334,10.7129889 M10.2378911,13.6682244 L4.8001862,13.6682244 C4.8001862,13.6682244 6.44207627,15.452194 7.14456408,16.8311626 C8.39460457,19.2842894 7.98202017,20.6809841 5.42530244,24.7022855 C2.27092289,29.6609464 7.67956068e-05,32.4009649 7.67956068e-05,32.4009649 L8.0426887,32.4009649 C8.0426887,32.4009649 10.8248015,27.5783319 12.1253351,24.1034543 C13.3525289,20.8249116 13.7322832,18.8399829 12.1253351,16.2332949 C11.0248541,14.4420037 10.2378911,13.6682244 10.2378911,13.6682244 M26.9474632,2.64919197 L24.7121351,2.64919197 C25.4800912,1.23477131 26.0001894,0.119573554 26.0001894,0.119573554 L19.3168597,0.119573554 L15.9889221,8.46698678 L19.8790036,8.46698678 C20.6617428,8.46698678 21.6479904,7.43984108 22.598336,6.10711425 L25.6736161,6.10711425 C32.7990965,6.10711425 34.5074147,8.80185438 33.5910512,15.3446819 C33.4378439,16.4375294 32.7228768,21.5437787 32.4613878,23.4113689 C31.5636471,29.8216366 26.7213002,31.3073467 26.7213002,31.3073467 L29.9102377,33.2600988 C29.9102377,33.2600988 36.950859,32.4595379 38.3389396,22.5451061 C38.6029245,20.6605606 39.3023404,15.6654843 39.5139123,14.1514511 C40.7487857,5.33410572 36.4267289,2.64919197 26.9474632,2.64919197 M30.5631924,24.7832086 C30.604854,24.4845637 30.7473098,23.4664737 30.7473098,23.4664737 L26.7735212,23.4664737 C26.7735212,23.4664737 26.6650474,24.2429504 26.6262656,24.5192451 C26.5252794,25.2398462 26.1940983,25.6271212 25.4543646,25.6271212 L25.0139418,25.6271212 L25.6265788,21.2549603 L29.765094,21.2549603 C31.2758556,21.2549603 31.7884663,17.797038 31.7884663,17.797038 L26.1109671,17.797038 L26.5721247,14.5086689 L31.4281029,14.5086689 L31.2457133,11.0507466 L22.1026204,11.0507466 C22.2775224,10.4910283 22.3810045,10.1168552 22.3810045,10.1168552 L17.2527858,10.1168552 L15.9340133,16.0325285 L19.4643073,16.0325285 C19.889755,16.0325285 20.3536004,15.3793632 20.7844238,14.5086689 L21.4191395,14.5086689 L20.9583658,17.797038 L15.2816346,17.797038 L14.7972463,21.2549603 L20.4739776,21.2549603 L19.8623005,25.6271212 L19.4222617,25.6271212 C18.682912,25.6271212 18.4600128,25.2398462 18.560807,24.5192451 C18.595365,24.2739709 18.7086385,23.4664737 18.7086385,23.4664737 L14.7344659,23.4664737 C14.7344659,23.4664737 14.59201,24.4845637 14.5503484,24.7832086 C14.1961287,27.3099369 15.257636,28.6613531 17.687065,28.6613531 L18.5298968,28.6613531 L25.4973702,28.6613531 L26.340202,28.6613531 C28.769055,28.6613531 30.2091646,27.3099369 30.5631924,24.7832086" id="Fill-5"></path>
                </g>
            </g>
            <path d="M11.9532669,54.5487805 L11.9532669,56.2256098 C11.9532669,56.6117905 11.7496704,56.804878 11.3424714,56.804878 L8.3190339,56.804878 C8.29867395,56.8455287 8.27831431,56.8760162 8.25795436,56.8963415 C8.13579466,57.1199198 8.02381661,57.2723573 7.92201686,57.3536585 L11.7700282,57.3536585 C12.2383071,57.3739838 12.4826228,57.5975588 12.5029828,58.0243902 L12.5029828,58.6646341 C12.5437027,60.5142369 11.780216,61.1951244 10.2124998,60.7073171 C10.0292603,60.6260159 9.93764186,60.4939034 9.93764186,60.3109756 C9.97836176,60.1686985 10.1005196,60.097561 10.3041191,60.097561 C11.4239164,60.5243924 11.963447,60.0569174 11.9227271,58.695122 L11.9227271,58.1158537 C11.9023671,57.9735765 11.8311084,57.8922765 11.7089487,57.8719512 L11.1592328,57.8719512 C10.6909539,59.193096 9.52027433,60.168696 7.6471589,60.7987805 C7.4435594,60.8394311 7.30104189,60.7784561 7.21960209,60.6158537 C7.15852224,60.4126006 7.21960117,60.2804881 7.40284072,60.2195122 C9.07235665,59.6910543 10.1208784,58.9085418 10.5484373,57.8719512 L9.35738618,57.8719512 C8.70586777,58.9085418 7.4944689,59.6707293 5.72315322,60.1585366 C5.53991367,60.1991872 5.4177558,60.1483747 5.35667595,60.0060976 C5.2955961,59.8028445 5.35667503,59.670732 5.53991459,59.6097561 C7.02619096,59.2235753 8.06453285,58.6443128 8.6549714,57.8719512 L7.40284072,57.8719512 C6.83276211,58.3191079 6.23215259,58.6239829 5.60099413,58.7865854 C5.43811453,58.827236 5.32613648,58.766261 5.26505663,58.6036585 C5.22433673,58.4207308 5.27523584,58.2886183 5.4177555,58.2073171 C6.37467316,57.9430881 7.09744055,57.4756131 7.58607936,56.804878 L6.79204527,56.804878 C6.34412636,56.8252034 6.13035009,56.6321159 6.15071004,56.2256098 L6.15071004,54.5487805 C6.15071004,54.1625997 6.38484596,53.9593497 6.85312481,53.9390244 L11.3730112,53.9390244 C11.7598502,53.9593497 11.9532669,54.1625997 11.9532669,54.5487805 Z M6.70042595,54.6707317 L6.70042595,55.1280488 L11.4035509,55.1280488 L11.4035509,54.6707317 C11.383191,54.5894305 11.3322919,54.538618 11.2508521,54.5182927 L6.88366459,54.5182927 C6.76150488,54.538618 6.70042595,54.5894305 6.70042595,54.6707317 Z M11.4035509,55.6463415 L6.70042595,55.6463415 L6.70042595,56.0731707 C6.70042595,56.1747973 6.76150488,56.2256098 6.88366459,56.2256098 L11.2508521,56.2256098 C11.3526518,56.2459351 11.4035509,56.2052851 11.4035509,56.1036585 L11.4035509,55.6463415 Z M24.3963919,55.2195122 L22.8388635,55.2195122 L22.8388635,55.5243902 L25.5263635,55.5243902 C25.6688832,55.5447155 25.7503218,55.6260155 25.7706817,55.7682927 C25.7706817,55.9308951 25.6994229,56.0121951 25.5569033,56.0121951 L22.8388635,56.0121951 L22.8388635,56.7439024 L23.7855965,56.7439024 C23.8466763,56.6219506 23.8975754,56.4796756 23.9382953,56.3170732 C23.9993752,56.1544707 24.1317129,56.0934957 24.3353124,56.1341463 C24.498192,56.2154476 24.5592709,56.3475601 24.518551,56.5304878 C24.4778311,56.6321143 24.4574715,56.7032518 24.4574715,56.7439024 L25.4042044,56.7439024 C25.587444,56.7642277 25.6790624,56.8455277 25.6790624,56.9878049 C25.6790624,57.1504073 25.587444,57.2317073 25.4042044,57.2317073 L24.6407101,57.2317073 C25.088629,57.6382134 25.6179798,58.0243884 26.2287783,58.3902439 C26.330578,58.4918704 26.330578,58.6239829 26.2287783,58.7865854 C26.1066186,58.9288625 25.9844607,58.9491875 25.862301,58.847561 C25.8012212,58.8272357 25.6892431,58.7560982 25.5263635,58.6341463 C25.4449237,58.5731704 25.3838448,58.5223579 25.3431249,58.4817073 C25.302405,58.6443098 25.2413261,58.7154473 25.1598863,58.695122 L24.6101703,58.695122 L24.6101703,59 L25.8012215,59 C25.9437411,59.0203253 26.0149999,59.1117878 26.0149999,59.2743902 C25.9946399,59.4166674 25.9132014,59.4878049 25.7706817,59.4878049 L24.6101703,59.4878049 L24.6101703,60.402439 L24.9155681,60.402439 L25.0988067,59.7926829 C25.1395266,59.6300805 25.2413248,59.5691055 25.4042044,59.6097561 C25.5263641,59.670732 25.5772632,59.7825195 25.5569033,59.945122 C25.5161834,60.0873991 25.5060036,60.1178866 25.5263635,60.0365854 L25.4347442,60.402439 L26.137159,60.402439 C26.2796786,60.402439 26.3611172,60.483739 26.3814772,60.6463415 C26.3611172,60.7886186 26.2796786,60.8699186 26.137159,60.8902439 L22.8694033,60.8902439 C22.7065237,60.8699186 22.6149053,60.7886186 22.5945453,60.6463415 C22.5945453,60.483739 22.6759839,60.402439 22.8388635,60.402439 L23.3274999,60.402439 C23.3071399,60.3617884 23.2969601,60.3211384 23.2969601,60.2804878 C23.2766002,60.1991866 23.2460607,60.0569116 23.2053408,59.8536585 C23.1646209,59.7113814 23.21552,59.6097564 23.3580397,59.5487805 C23.5209193,59.5284552 23.6328973,59.5894302 23.6939772,59.7317073 C23.6939772,59.7926832 23.704157,59.8841457 23.7245169,60.0060976 C23.7855968,60.1687 23.8263161,60.3008125 23.846676,60.402439 L24.121534,60.402439 L24.121534,59.4878049 L23.0526419,59.4878049 C22.8897623,59.4878049 22.7981439,59.4065049 22.777784,59.2439024 C22.7981439,59.1016253 22.8897623,59.0203253 23.0526419,59 L24.121534,59 L24.121534,58.695122 L23.6328976,58.695122 C23.5107379,58.695122 23.4394792,58.613822 23.4191192,58.4512195 C23.3987593,58.4715448 23.35804,58.5020323 23.2969601,58.5426829 C23.1951604,58.6239841 23.1137218,58.6849591 23.0526419,58.7256098 C22.8694024,58.8272363 22.716705,58.8069113 22.5945453,58.6646341 C22.5131055,58.522357 22.5538248,58.3902445 22.7167044,58.2682927 C23.0831835,58.0447143 23.4801966,57.6991893 23.9077556,57.2317073 L21.159176,57.2317073 C21.2202559,57.3130085 21.3016945,57.3943085 21.4034942,57.4756098 C21.6885335,57.7398387 22.0244677,57.9939012 22.4113067,58.2378049 C22.5334664,58.3597567 22.5436462,58.5020317 22.4418465,58.6646341 C22.3400467,58.786586 22.2178889,58.7967485 22.0753692,58.695122 L22.0142897,58.695122 C21.87177,58.5934954 21.7903314,58.5121954 21.7699715,58.4512195 C21.7496115,58.613822 21.6885326,58.695122 21.5867328,58.695122 L21.0370169,58.695122 L21.0370169,59 L22.0448294,59 C22.207709,59.0203253 22.2993274,59.1016253 22.3196874,59.2439024 C22.2993274,59.4065049 22.207709,59.4878049 22.0448294,59.4878049 L21.0370169,59.4878049 L21.0370169,60.3414634 C21.1388167,60.3211381 21.2609746,60.3008131 21.4034942,60.2804878 L21.5561931,59.8231707 C21.596913,59.6605683 21.6987112,59.5894308 21.8615908,59.6097561 C22.0041104,59.670732 22.0651894,59.7825195 22.0448294,59.945122 C22.0041095,60.0467485 21.9735701,60.1280485 21.9532101,60.1890244 C22.0346499,60.1686991 22.146628,60.1483741 22.2891476,60.1280488 C22.4316673,60.1077235 22.5232857,60.1686985 22.5640056,60.3109756 C22.5843655,60.473578 22.5232866,60.575203 22.3807669,60.6158537 C21.525649,60.7581308 20.5585659,60.8902433 19.4794885,61.0121951 C19.3166089,61.0121951 19.2249905,60.9410576 19.2046306,60.7987805 C19.1842706,60.636178 19.2453496,60.554878 19.3878692,60.554878 C19.4082292,60.5345527 19.4387686,60.5243902 19.4794885,60.5243902 C19.5609283,60.5040649 19.6525467,60.5040649 19.7543465,60.5243902 C19.7339865,60.4227637 19.6830874,60.2601637 19.6016476,60.0365854 C19.5405678,59.8739829 19.5914669,59.7621954 19.7543465,59.7012195 C19.9172261,59.6808942 20.0292041,59.7418692 20.090284,59.8841463 C20.1513638,60.0264235 20.2124428,60.219511 20.2735226,60.4634146 C20.3549624,60.4430893 20.4465808,60.4329268 20.5483806,60.4329268 L20.5483806,59.4878049 L19.5405681,59.4878049 C19.3776885,59.4878049 19.2860701,59.4065049 19.2657101,59.2439024 C19.2860701,59.1016253 19.3776885,59.0203253 19.5405681,59 L20.5483806,59 L20.5483806,58.695122 L20.090284,58.695122 C19.9681243,58.695122 19.9070453,58.613822 19.9070453,58.4512195 C19.8459655,58.4918701 19.7747067,58.5426826 19.6932669,58.6036585 C19.5711072,58.7052851 19.4489494,58.7865851 19.3267897,58.847561 C19.1435501,58.9491875 19.0010326,58.9288625 18.8992328,58.7865854 C18.817793,58.6036576 18.8585123,58.4613826 19.0213919,58.3597561 C19.6321904,58.0142259 20.1106421,57.6382134 20.4567613,57.2317073 L19.7238067,57.2317073 C19.5202072,57.2317073 19.418409,57.1504073 19.418409,56.9878049 C19.418409,56.8455277 19.5202072,56.7642277 19.7238067,56.7439024 L20.6705397,56.7439024 C20.6501797,56.7032518 20.6094604,56.6117893 20.5483806,56.4695122 C20.4669408,56.2865845 20.5178399,56.154472 20.7010794,56.0731707 C20.884319,56.0121948 21.0268365,56.0731698 21.1286363,56.2560976 C21.1897161,56.4390253 21.250795,56.6016253 21.3118749,56.7439024 L22.3196874,56.7439024 L22.3196874,56.0121951 L19.5405681,56.0121951 C19.3573285,56.0121951 19.2657101,55.9308951 19.2657101,55.7682927 C19.2657101,55.6260155 19.3573285,55.5447155 19.5405681,55.5243902 L22.3196874,55.5243902 L22.3196874,55.2195122 L20.762159,55.2195122 C20.6603592,55.2195122 20.5891005,55.1585372 20.5483806,55.0365854 C20.0597418,55.1788625 19.7238076,55.2601625 19.5405681,55.2804878 C19.3573285,55.3211384 19.2351706,55.2703259 19.1740908,55.1280488 C19.1537308,54.9654463 19.2351694,54.8536588 19.418409,54.7926829 C20.4567664,54.528454 21.3729505,54.182929 22.1669885,53.7560976 C22.370588,53.6138204 22.6250836,53.6138204 22.9304828,53.7560976 C23.8670406,54.182929 24.7526851,54.4979665 25.5874431,54.7012195 C25.7503227,54.7621954 25.8215814,54.8739829 25.8012215,55.0365854 C25.7605016,55.1991878 25.6485235,55.2601628 25.465284,55.2195122 C25.2820444,55.1991869 25.1089874,55.1585369 24.9461078,55.097561 C24.7832282,55.0365851 24.6610704,54.9959351 24.5796306,54.9756098 C24.5796306,55.1382122 24.5185516,55.2195122 24.3963919,55.2195122 Z M21.4034942,54.7012195 L23.8772158,54.7012195 C23.4089369,54.5386171 23.0831826,54.4166671 22.8999431,54.3353659 C22.7167035,54.2540646 22.6149053,54.2134146 22.5945453,54.2134146 C22.5131055,54.2337399 22.3909477,54.2743899 22.2280681,54.3353659 C21.9633887,54.477643 21.6885335,54.599593 21.4034942,54.7012195 Z M23.7245169,58.2073171 L24.9766476,58.2073171 C24.834128,58.1260159 24.7221499,58.0345534 24.6407101,57.9329268 L24.3353124,57.6890244 C24.3149524,57.6890244 24.2436937,57.7499994 24.121534,57.8719512 C23.9586544,58.0142284 23.8263167,58.1260159 23.7245169,58.2073171 Z M20.2124431,58.2073171 L21.4034942,58.2073171 C21.3627743,58.1869918 21.322055,58.1565043 21.2813351,58.1158537 C20.9962958,57.87195 20.8334187,57.7398375 20.7926988,57.7195122 C20.7723388,57.7195122 20.7316195,57.7499997 20.6705397,57.8109756 C20.52802,57.9532527 20.3753227,58.0853652 20.2124431,58.2073171 Z M39.3437784,55.0670732 L36.5646591,55.0670732 L36.5646591,55.554878 L39.1910795,55.554878 C39.3335992,55.5752034 39.4150377,55.6666659 39.4353977,55.8292683 C39.4150377,55.9715454 39.3234193,56.0426829 39.1605397,56.0426829 L36.5646591,56.0426829 L36.5646591,56.5304878 L39.2216193,56.5304878 C39.3641389,56.5508131 39.4455775,56.6422756 39.4659375,56.804878 C39.4455775,56.9471552 39.3539591,57.0182927 39.1910795,57.0182927 L36.5646591,57.0182927 L36.5646591,57.5365854 L39.4659375,57.5365854 C39.6084571,57.5569107 39.6898957,57.6483732 39.7102556,57.8109756 C39.6898957,57.973578 39.6084571,58.054878 39.4659375,58.054878 L36.5646591,58.054878 L36.5646591,58.5426829 L39.7102556,58.5426829 C39.8527753,58.5630082 39.9342139,58.6544707 39.9545738,58.8170732 C39.9342139,58.9593503 39.8425955,59.0304878 39.6797159,59.0304878 L36.8089772,59.0304878 C37.8880546,59.7012229 38.8653176,60.1077229 39.7407954,60.25 C39.9647549,60.3109759 40.0563733,60.4430884 40.0156534,60.6463415 C39.9342136,60.8089439 39.7713364,60.8699189 39.527017,60.8292683 C38.4479396,60.4837381 37.4604969,60.0264256 36.5646591,59.4573171 L36.5646591,60.7378049 C36.5442991,60.880082 36.4526807,60.961382 36.2898011,60.9817073 C36.1269215,60.9817073 36.0454829,60.9004073 36.0454829,60.7378049 L36.0454829,59.4573171 C35.3328847,59.985775 34.2945428,60.4227625 32.9304261,60.7682927 C32.6861067,60.8089433 32.5334094,60.7378058 32.4723295,60.554878 C32.4316096,60.351625 32.5334078,60.229675 32.7777272,60.1890244 C34.0400442,59.965446 35.0478466,59.579271 35.8011647,59.0304878 L32.8388068,59.0304878 C32.6352073,59.0304878 32.5334091,58.9491878 32.5334091,58.7865854 C32.5334091,58.6443082 32.6352073,58.5630082 32.8388068,58.5426829 L36.0454829,58.5426829 L36.0454829,58.054878 L33.8160795,58.054878 C33.7957196,58.2378058 33.7041012,58.3292683 33.5412216,58.3292683 C33.378342,58.3292683 33.2969034,58.2378058 33.2969034,58.054878 L33.2969034,55.6768293 C33.2154636,55.7784558 33.1136653,55.8800808 32.9915056,55.9817073 L32.9304261,56.0121951 C32.7471865,56.1544723 32.5944892,56.1646348 32.4723295,56.0426829 C32.3705298,55.9004058 32.4010692,55.7479683 32.5639488,55.5853659 C33.0322277,55.2195104 33.46996,54.6808979 33.8771591,53.9695122 C33.9993188,53.7662591 34.1520161,53.6951216 34.3352556,53.7560976 C34.4981352,53.8373988 34.5286747,53.9898363 34.426875,54.2134146 C34.406515,54.2540652 34.3657957,54.3252027 34.3047159,54.4268293 L34.2436363,54.5487805 L36.0454829,54.5487805 C35.9844031,54.4268287 35.9131443,54.2642287 35.8317045,54.0609756 C35.7502647,53.8983732 35.7808042,53.7662607 35.9233238,53.6646341 C36.0862034,53.6239835 36.2287209,53.6849585 36.3508806,53.847561 C36.4323204,54.0304887 36.5341187,54.2642262 36.6562784,54.5487805 L39.3437784,54.5487805 C39.486298,54.5691058 39.5677366,54.6605683 39.5880966,54.8231707 C39.5677366,54.9857732 39.486298,55.0670732 39.3437784,55.0670732 Z M36.0454829,55.0670732 L34.0603977,55.0670732 C33.8771581,55.0670732 33.7957196,55.1585357 33.8160795,55.3414634 L33.8160795,55.554878 L36.0454829,55.554878 L36.0454829,55.0670732 Z M33.8160795,56.0426829 L33.8160795,56.5304878 L36.0454829,56.5304878 L36.0454829,56.0426829 L33.8160795,56.0426829 Z M33.8160795,57.5365854 L36.0454829,57.5365854 L36.0454829,57.0182927 L33.8160795,57.0182927 L33.8160795,57.5365854 Z M47.2670171,54.0609756 L52.3671591,54.0609756 C52.8761579,54.020325 53.1102938,54.2540625 53.0695739,54.7621951 L53.0695739,59.945122 C53.0899339,60.3922787 52.8557979,60.6056912 52.3671591,60.5853659 L47.2670171,60.5853659 C46.7580183,60.6056912 46.5238824,60.3922787 46.5646023,59.945122 L46.5646023,54.7621951 C46.5238824,54.2540625 46.7580183,54.020325 47.2670171,54.0609756 Z M52.245,54.6402439 L47.4197159,54.6402439 C47.2364764,54.6402439 47.144858,54.7317064 47.144858,54.9146341 L47.144858,59.7621951 C47.124498,59.9654482 47.2161164,60.0569107 47.4197159,60.0365854 L52.245,60.0365854 C52.4282396,60.0365854 52.519858,59.9451229 52.519858,59.7621951 L52.519858,54.9146341 C52.519858,54.7317064 52.4282396,54.6402439 52.245,54.6402439 Z M50.9928694,55.0365854 L50.9928694,55.7378049 L51.9396023,55.7378049 C52.1024819,55.7581302 52.1941003,55.8597552 52.2144603,56.0426829 C52.1941003,56.2256107 52.1024819,56.3170732 51.9396023,56.3170732 L50.9928694,56.3170732 L50.9928694,58.9390244 C51.0132293,59.6910607 50.5042382,59.9146357 49.4658807,59.6097561 C49.2826412,59.5691055 49.2012026,59.457318 49.2215625,59.2743902 C49.2622824,59.1117878 49.3844403,59.0406503 49.5880398,59.0609756 C50.1988383,59.2439034 50.4736935,59.1422784 50.4126137,58.7560976 L50.4126137,56.6219512 C49.883255,57.5569152 49.0688692,58.3191027 47.9694319,58.9085366 C47.7658324,59.0304884 47.613135,59.0000009 47.5113353,58.8170732 C47.4502554,58.6341454 47.5215142,58.4918704 47.7251137,58.3902439 C48.7431112,57.8211354 49.4862382,57.1300854 49.9545171,56.3170732 L47.7861932,56.3170732 C47.6029537,56.3170732 47.5113353,56.2256107 47.5113353,56.0426829 C47.5113353,55.8597552 47.6029537,55.7581302 47.7861932,55.7378049 L50.4126137,55.7378049 L50.4126137,55.0365854 C50.4126137,54.8536576 50.5042321,54.7621951 50.6874716,54.7621951 C50.8707112,54.7621951 50.9725094,54.8536576 50.9928694,55.0365854 Z M66.1540342,55.1890244 L66.1540342,55.6463415 L66.7037501,55.6463415 C66.8462698,55.6666668 66.9277083,55.7581293 66.9480683,55.9207317 C66.9277083,56.1036595 66.8462698,56.195122 66.7037501,56.195122 L66.1540342,56.195122 L66.1540342,58.8170732 L66.7953694,58.8170732 C67.0600488,59.0000009 67.0600488,59.1829259 66.7953694,59.3658537 L62.6725001,59.3658537 C62.3874608,59.1829259 62.3874608,59.0000009 62.6725001,58.8170732 L63.0389774,58.8170732 L63.0389774,56.195122 L62.6114206,56.195122 C62.4689009,56.195122 62.3874623,56.1036595 62.3671024,55.9207317 C62.3874623,55.7581293 62.4689009,55.6666668 62.6114206,55.6463415 L63.0389774,55.6463415 L63.0389774,55.1890244 C63.2222169,54.9247954 63.4156336,54.9247954 63.6192331,55.1890244 L63.6192331,55.6463415 L65.5737785,55.6463415 L65.5737785,55.1890244 C65.7570181,54.8841448 65.9504347,54.8841448 66.1540342,55.1890244 Z M63.6192331,56.195122 L63.6192331,56.7134146 L65.5737785,56.7134146 L65.5737785,56.195122 L63.6192331,56.195122 Z M65.5737785,57.2317073 L63.6192331,57.2317073 L63.6192331,57.75 L65.5737785,57.75 L65.5737785,57.2317073 Z M63.6192331,58.2987805 L63.6192331,58.8170732 L65.5737785,58.8170732 L65.5737785,58.2987805 L63.6192331,58.2987805 Z M65.5737785,59.5792683 C66.0013375,59.762196 66.5001488,60.046746 67.0702274,60.4329268 C67.1720271,60.514228 67.182207,60.636178 67.1007672,60.7987805 C66.9989674,60.9410576 66.8869894,60.9817076 66.7648297,60.9207317 C66.1540311,60.5142256 65.6857593,60.2398381 65.3600001,60.097561 C65.1971205,60.0162598 65.1360416,59.8943098 65.1767615,59.7317073 C65.2582013,59.5691049 65.390539,59.5182924 65.5737785,59.5792683 Z M63.6192331,59.6402439 C63.7617527,59.5589427 63.8940904,59.5792677 64.0162501,59.7012195 C64.1180499,59.8434966 64.10787,59.9756091 63.9857103,60.097561 C63.5581514,60.4227659 63.0288006,60.6869909 62.3976422,60.8902439 C62.2347626,60.9105692 62.1126047,60.8495942 62.0311649,60.7073171 C61.970085,60.5447146 62.0108043,60.4430896 62.153324,60.402439 C62.560523,60.2195113 63.018615,59.9857738 63.5276137,59.7012195 C63.5683336,59.6808942 63.5988731,59.6605692 63.6192331,59.6402439 Z M63.3138353,54.2743902 L66.6426706,54.2743902 C66.8055502,54.2947155 66.8971686,54.386178 66.9175285,54.5487805 C66.8971686,54.7317082 66.8055502,54.8231707 66.6426706,54.8231707 L63.1000569,54.8231707 C62.8964574,55.1280503 62.7234004,55.3516253 62.5808808,55.4939024 C62.4180012,55.6565049 62.2653039,55.6869924 62.1227842,55.5853659 C61.9802646,55.463414 61.9700847,55.321139 62.0922444,55.1585366 C62.3976437,54.853657 62.6521392,54.426832 62.8557387,53.8780488 C62.8964586,53.756097 63.0084367,53.715447 63.1916762,53.7560976 C63.3545559,53.7967482 63.4258146,53.8882107 63.4054547,54.0304878 C63.3850947,54.111789 63.3545552,54.193089 63.3138353,54.2743902 Z M61.878466,55.3109756 L60.9622728,55.3109756 L60.9622728,56.2560976 L61.6036081,56.2560976 C62.0108071,56.2560976 62.2042237,56.4491851 62.1838637,56.8353659 L62.1838637,57.7195122 C62.1838637,59.040657 62.0922453,59.873982 61.9090058,60.2195122 C61.7461262,60.6260183 61.3898324,60.7987808 60.8401137,60.7378049 C60.6365142,60.6971543 60.5245362,60.5853668 60.5041762,60.402439 C60.5245362,60.199186 60.6365142,60.1077235 60.8401137,60.1280488 C61.165873,60.1890247 61.3694694,60.0873997 61.4509092,59.8231707 C61.552709,59.5386165 61.6036081,58.857729 61.6036081,57.7804878 L61.6036081,57.0182927 C61.6036081,56.8963409 61.5425291,56.8353659 61.4203694,56.8353659 L60.9317331,56.8353659 C60.9317331,58.3394384 60.6874173,59.5995884 60.1987785,60.6158537 C60.0969788,60.7581308 59.9544613,60.8089433 59.7712217,60.7682927 C59.6287021,60.6869915 59.5879828,60.5650415 59.6490626,60.402439 C60.1580614,59.3455232 60.4023771,58.1565107 60.3820172,56.8353659 L60.3820172,55.3109756 L59.9850001,55.3109756 C59.8221205,55.3109756 59.7305021,55.2195131 59.7101422,55.0365854 C59.7305021,54.8536576 59.8221205,54.7520326 59.9850001,54.7317073 L60.6568751,54.7317073 C60.6365152,54.6910567 60.5957959,54.5995942 60.534716,54.4573171 C60.4532762,54.3150399 60.4125569,54.2134149 60.4125569,54.152439 C60.3311171,54.0101619 60.3820162,53.8882119 60.5652558,53.7865854 C60.7484953,53.7256095 60.880833,53.7662595 60.9622728,53.9085366 C61.0844325,54.1727655 61.1964106,54.447153 61.2982103,54.7317073 L61.878466,54.7317073 C62.1431454,54.9349604 62.1431454,55.1280479 61.878466,55.3109756 Z M77.1007104,56.5135503 L77.1007104,60.7073171 C76.856391,61.032522 76.6324349,61.0223595 76.4288354,60.6768293 L76.4288354,54.7621951 L73.5886366,54.7621951 C73.385037,54.7621951 73.2832388,54.6605701 73.2832388,54.4573171 C73.2832388,54.254064 73.385037,54.1422765 73.5886366,54.1219512 L80.3990059,54.1219512 C80.5822454,54.1422765 80.6738638,54.254064 80.6738638,54.4573171 C80.6535039,54.6605701 80.5517056,54.7621951 80.3684661,54.7621951 L77.1007104,54.7621951 L77.1007104,55.7987805 C78.485187,56.6930939 79.3911912,57.3434939 79.8187502,57.75 C79.9816298,57.9329277 80.0121693,58.1056902 79.9103695,58.2682927 C79.7882098,58.4105698 79.6355125,58.4105698 79.4522729,58.2682927 C78.3121157,57.3739793 77.5689887,56.8252043 77.2228695,56.6219512 C77.1550033,56.5677506 77.1142837,56.5316171 77.1007104,56.5135503 L77.1007104,56.5135503 Z" id="易鑫集团旗下" fill="#FF6402" fill-rule="nonzero"></path>
        </g>
    </g>
</svg>