<?xml version="1.0" encoding="UTF-8"?>
<svg width="176px" height="66px" viewBox="0 0 176 66" version="1.1" xmlns="http://www.w3.org/2000/svg" xmlns:xlink="http://www.w3.org/1999/xlink">
    <!-- Generator: Sketch 43 (38999) - http://www.bohemiancoding.com/sketch -->
    <title>易鑫租赁logo</title>
    <desc>Created with Sketch.</desc>
    <defs></defs>
    <g id="Page-1" stroke="none" stroke-width="1" fill="none" fill-rule="evenodd">
        <g id="易鑫租赁logo">
            <rect id="Rectangle-Copy" x="0" y="0" width="178" height="70"></rect>
            <path d="M6.41015625,60.7148438 L6.17578125,61.7578125 L8.4140625,61.7578125 L8.61328125,60.3984375 L5.58984375,60.3984375 L5.58984375,60.1464844 C5.2499983,60.4355483 4.86718963,60.7226548 4.44140625,61.0078125 C4.25390531,60.7734363 4.06250098,60.5546885 3.8671875,60.3515625 C4.77344203,59.7851534 5.47070068,59.203128 5.95898438,58.6054688 L4.2421875,58.6054688 L4.2421875,57.9257812 L6.42773438,57.9257812 C6.58007889,57.6562487 6.71289006,57.3554704 6.82617188,57.0234375 L4.55859375,57.0234375 L4.55859375,56.34375 L7.02539062,56.34375 C7.17773514,55.6953093 7.26953109,54.9531292 7.30078125,54.1171875 L8.14453125,54.1171875 C8.10156229,54.9453166 8.00976633,55.6874967 7.86914062,56.34375 L11.1445312,56.34375 L11.1445312,57.0234375 L7.69921875,57.0234375 C7.60156201,57.3515641 7.490235,57.6523424 7.36523438,57.9257812 L11.4375,57.9257812 L11.4375,58.6054688 L9.24023438,58.6054688 C9.83008107,59.3671913 10.6640571,59.8945298 11.7421875,60.1875 C11.5390615,60.4296887 11.3515634,60.6796862 11.1796875,60.9375 C10.535153,60.6953113 9.97070555,60.3613303 9.48632812,59.9355469 L9.22265625,61.7578125 L10.8515625,61.7578125 C10.7890622,62.7812551 10.7382814,63.5507787 10.6992188,64.0664062 C10.6523435,65.0117235 10.1640671,65.484375 9.234375,65.484375 C8.7734352,65.484375 8.26562777,65.4726564 7.7109375,65.4492188 C7.66406227,65.1992175 7.61328152,64.9218765 7.55859375,64.6171875 C8.1289091,64.6718753 8.64452895,64.6992188 9.10546875,64.6992188 C9.58203363,64.6992188 9.83984355,64.4492212 9.87890625,63.9492188 C9.91796895,63.4960915 9.95312484,62.9843779 9.984375,62.4140625 L5.25,62.4140625 L5.61328125,60.7148438 L6.41015625,60.7148438 Z M0.78515625,54.84375 L3.80859375,54.84375 L3.80859375,64.40625 C3.80859375,65.1250036 3.44531613,65.484375 2.71875,65.484375 C2.21093496,65.484375 1.84375113,65.4726564 1.6171875,65.4492188 C1.59374988,65.2226551 1.54687535,64.9531266 1.4765625,64.640625 C1.87500199,64.6953128 2.21874855,64.7226562 2.5078125,64.7226562 C2.8281266,64.7226562 2.98828125,64.5625016 2.98828125,64.2421875 L2.98828125,61.5234375 L1.60546875,61.5234375 L1.60546875,61.6992188 C1.60546875,63.441415 1.28515945,64.757808 0.64453125,65.6484375 C0.472655391,65.4218739 0.257813789,65.2031261 0,64.9921875 C0.523440117,64.2031211 0.78515625,63.0742261 0.78515625,61.6054688 L0.78515625,54.84375 Z M4.23046875,63.1875 L9.29296875,63.1875 L9.29296875,63.8671875 L4.23046875,63.8671875 L4.23046875,63.1875 Z M1.60546875,60.796875 L2.98828125,60.796875 L2.98828125,58.5585938 L1.60546875,58.5585938 L1.60546875,60.796875 Z M2.98828125,55.6054688 L1.60546875,55.6054688 L1.60546875,57.8320312 L2.98828125,57.8320312 L2.98828125,55.6054688 Z M6.03515625,59.7421875 L9.27539062,59.7421875 C8.93945145,59.4101546 8.64648563,59.0312521 8.39648438,58.6054688 L6.99023438,58.6054688 C6.74413939,58.9882832 6.4257832,59.3671856 6.03515625,59.7421875 Z M8.90625,55.8398438 C9.31250203,55.3554663 9.6601548,54.8984396 9.94921875,54.46875 L10.6875,54.9609375 C10.2656229,55.4843776 9.88672043,55.9335919 9.55078125,56.3085938 L8.90625,55.8398438 Z M4.734375,54.9257812 L5.390625,54.4921875 C5.73437672,54.890627 6.07421707,55.335935 6.41015625,55.828125 L5.6953125,56.296875 C5.39062348,55.804685 5.07031418,55.3476584 4.734375,54.9257812 Z M14.953125,59.25 L17.15625,59.25 L17.15625,55.6054688 L15.1054688,55.6054688 L15.1054688,54.7382812 L21.5859375,54.7382812 L21.5859375,58.40625 C21.5234372,61.5156405 21.7226539,63.4179653 22.1835938,64.1132812 C22.2851568,64.2851571 22.3906245,64.375 22.5,64.3828125 C22.6093755,64.375 22.6796873,64.2500012 22.7109375,64.0078125 C22.7734378,63.406247 22.8242186,62.7656284 22.8632812,62.0859375 C23.2539082,62.2187507 23.5429678,62.3164059 23.7304688,62.3789062 C23.6679684,63.1757852 23.6054691,63.8554659 23.5429688,64.4179688 C23.4179681,65.2695355 23.1484396,65.6953125 22.734375,65.6953125 C22.2734352,65.6953125 21.843752,65.390628 21.4453125,64.78125 C20.8593721,63.8359328 20.5976559,61.8359528 20.6601562,58.78125 L20.6601562,55.6054688 L18.0820312,55.6054688 L18.0820312,59.25 L20.25,59.25 L20.25,60.1171875 L18.0820312,60.1171875 L18.0820312,65.6835938 L17.15625,65.6835938 L17.15625,60.1171875 L14.953125,60.1171875 L14.953125,59.25 Z M15.7851562,62.578125 C15.8554691,62.9375018 15.9335933,63.2656235 16.0195312,63.5625 C15.4101532,63.968752 14.8398464,64.3789042 14.3085938,64.7929688 C14.0898427,64.9804697 13.8750011,65.2109361 13.6640625,65.484375 L12.890625,64.6992188 C13.195314,64.4179673 13.3476562,64.0117214 13.3476562,63.4804688 L13.3476562,59.0507812 L11.9882812,59.0507812 L11.9882812,58.1835938 L14.2617188,58.1835938 L14.2617188,63.6914062 C14.7304711,63.3632796 15.2382785,62.9921896 15.7851562,62.578125 Z M13.03125,54.3515625 C13.8125039,55.1171913 14.4296852,55.7656223 14.8828125,56.296875 L14.0859375,56.953125 C13.5468723,56.257809 12.9648469,55.5859407 12.3398438,54.9375 L13.03125,54.3515625 Z M36.2929688,57.6210938 L44.671875,57.6210938 L44.671875,61.5820312 L43.7578125,61.5820312 L43.7578125,61.1132812 L41.0625,61.1132812 L41.0625,64.0898438 C41.0625,65.0156296 40.6210982,65.4843749 39.7382812,65.4960938 L38.203125,65.4960938 C38.1484372,65.1601546 38.0898441,64.8437515 38.0273438,64.546875 C38.5507839,64.5937502 39.0039043,64.6171875 39.3867188,64.6171875 C39.8789087,64.6328126 40.125,64.3789089 40.125,63.8554688 L40.125,61.1132812 L37.2070312,61.1132812 L37.2070312,61.640625 L36.2929688,61.640625 L36.2929688,57.6210938 Z M43.7578125,58.4296875 L37.2070312,58.4296875 L37.2070312,60.3046875 L43.7578125,60.3046875 L43.7578125,58.4296875 Z M34.7695312,55.7578125 L40.1835938,55.7578125 C39.9609364,55.3437479 39.7070327,54.9179709 39.421875,54.4804688 L40.2773438,54.0585938 C40.5898453,54.5273461 40.8945298,55.0117162 41.1914062,55.5117188 L40.7226562,55.7578125 L46.2304688,55.7578125 L46.2304688,56.578125 L34.7695312,56.578125 L34.7695312,55.7578125 Z M37.78125,62.0976562 L38.4257812,62.8007812 C37.378901,63.5898477 36.3281303,64.3124967 35.2734375,64.96875 C35.1249993,64.7031237 34.9453136,64.4414075 34.734375,64.1835938 C35.8046929,63.5664032 36.8203077,62.8710976 37.78125,62.0976562 Z M42.328125,62.8828125 L42.8789062,62.1796875 C43.9492241,62.8125032 44.9765576,63.4531218 45.9609375,64.1015625 L45.3398438,64.9101562 C44.5117146,64.2929657 43.5078184,63.6171912 42.328125,62.8828125 Z M47.8125,60.5742188 L47.8125,59.6835938 L49.1542969,56.5664062 L46.8515625,56.5664062 L46.8515625,55.6757812 L49.5351562,55.6757812 L50.2265625,54.0703125 L51.234375,54.28125 L50.625,55.6757812 L58.125,55.6757812 L58.125,56.5664062 L50.2382812,56.5664062 L48.8789062,59.6835938 L52.40625,59.6835938 L52.40625,57.1171875 L53.390625,57.1171875 L53.390625,59.6835938 L57.5742188,59.6835938 L57.5742188,60.5742188 L53.390625,60.5742188 L53.390625,64.03125 C53.390625,65.0078174 52.8828176,65.4960938 51.8671875,65.4960938 C51.3515599,65.4960938 50.7656283,65.4921875 50.109375,65.484375 C50.0624998,65.179686 50.0039066,64.828127 49.9335938,64.4296875 C50.4492213,64.4960941 51.0039033,64.53125 51.5976562,64.5351562 C52.1367214,64.5390625 52.40625,64.2617215 52.40625,63.703125 L52.40625,60.5742188 L47.8125,60.5742188 Z M49.5234375,61.2773438 L50.3085938,61.875 C49.4179643,62.9218802 48.4023495,63.9999945 47.2617188,65.109375 C47.0585927,64.8906239 46.8359387,64.6718761 46.59375,64.453125 C47.6328177,63.4687451 48.6093704,62.4101619 49.5234375,61.2773438 Z M54.5273437,62.0625 L55.1835937,61.4179688 C56.2617241,62.3085982 57.3398384,63.2421826 58.4179687,64.21875 L57.6914062,64.9570312 C56.6210884,63.9023385 55.5664114,62.9375044 54.5273437,62.0625 Z M70.6640625,57.2578125 L74.2675781,57.2578125 L74.5898438,55.6640625 L69.4453125,55.6640625 L69.4453125,54.796875 L80.8476562,54.796875 L80.8476562,55.6640625 L75.5449219,55.6640625 L75.1699219,57.2578125 L79.640625,57.2578125 L79.640625,65.578125 L78.703125,65.578125 L78.703125,64.7109375 L71.6015625,64.7109375 L71.6015625,65.578125 L70.6640625,65.578125 L70.6640625,57.2578125 Z M71.6015625,63.8671875 L78.703125,63.8671875 L78.703125,61.3828125 L71.6015625,61.3828125 L71.6015625,63.8671875 Z M78.703125,58.1015625 L71.6015625,58.1015625 L71.6015625,60.5390625 L78.703125,60.5390625 L78.703125,58.1015625 Z M84.046875,61.828125 L84.046875,61.0546875 L91.3945312,61.0546875 L91.3945312,61.8164062 C90.6874965,62.5781288 89.8613329,63.2402316 88.9160156,63.8027344 C90.0449275,64.2558616 91.3671799,64.5507806 92.8828125,64.6875 L92.4257812,65.6015625 C90.683585,65.3593738 89.1992249,64.9296906 87.9726562,64.3125 C86.6679622,64.9492219 85.1718834,65.4218735 83.484375,65.7304688 C83.3593744,65.4804675 83.1992197,65.1992203 83.0039062,64.8867188 C84.550789,64.64453 85.9081973,64.2812524 87.0761719,63.796875 C86.2402302,63.2539035 85.5527371,62.5976601 85.0136719,61.828125 L84.046875,61.828125 Z M83.6953125,57.46875 L85.4414062,57.46875 L85.4414062,56.484375 L86.3320312,56.484375 L86.3320312,57.46875 L89.6484375,57.46875 L89.6484375,56.4726562 L90.5390625,56.4726562 L90.5390625,57.46875 L92.671875,57.46875 L92.671875,58.2421875 L90.5390625,58.2421875 L90.5390625,60.4921875 L89.6484375,60.4921875 L89.6484375,60.0820312 L86.3320312,60.0820312 L86.3320312,60.5039062 L85.4414062,60.5039062 L85.4414062,58.2421875 L83.6953125,58.2421875 L83.6953125,57.46875 Z M86.8125,54.4101562 L87.6679688,54 C87.9335951,54.4179708 88.2011705,54.8906224 88.4707031,55.4179688 L92.7890625,55.4179688 L92.7890625,56.2382812 L83.4375,56.2382812 L83.4375,59.765625 C83.4375,62.4375134 82.9179739,64.4296809 81.8789062,65.7421875 C81.6835928,65.4843737 81.4609387,65.2187514 81.2109375,64.9453125 C82.0703168,63.8906197 82.5078124,62.1445434 82.5234375,59.7070312 L82.5234375,55.4179688 L87.3867188,55.4179688 C87.2070304,55.074217 87.015626,54.7382829 86.8125,54.4101562 Z M86.3320312,59.3320312 L89.6484375,59.3320312 L89.6484375,58.2421875 L86.3320312,58.2421875 L86.3320312,59.3320312 Z M90.1757812,61.828125 L85.9921875,61.828125 C86.5468778,62.437503 87.2148398,62.9531229 87.9960938,63.375 C88.8437542,62.9374978 89.5703095,62.421878 90.1757812,61.828125 Z M105.515625,54.6914062 L114.140625,54.6914062 L114.140625,59.5664062 L113.226562,59.5664062 L113.226562,59.0976562 L105.515625,59.0976562 L105.515625,54.6914062 Z M104.003906,62.0625 C105.253912,61.3828091 106.312496,60.4609433 107.179688,59.296875 L108.011719,59.6132812 C107.855468,59.8242198 107.69922,60.0273428 107.542969,60.2226562 L114.820312,60.2226562 C114.75,61.6992261 114.675782,62.8398397 114.597656,63.6445312 C114.496093,64.90235 113.863287,65.5351562 112.699219,65.5429688 C112.050778,65.5507813 111.375004,65.5507813 110.671875,65.5429688 C110.625,65.2070296 110.566407,64.8750016 110.496094,64.546875 C111.175785,64.6093753 111.832028,64.640625 112.464844,64.640625 C113.199222,64.640625 113.605468,64.2734412 113.683594,63.5390625 C113.769532,62.835934 113.828125,62.0039111 113.859375,61.0429688 L112.054688,61.0429688 C111.578123,63.0976665 110.191418,64.6757757 107.894531,65.7773438 C107.691405,65.51953 107.472657,65.2539076 107.238281,64.9804688 C109.425792,64.0820268 110.72656,62.7695399 111.140625,61.0429688 L109.359375,61.0429688 C108.78906,62.7070396 107.281262,64.011714 104.835938,64.9570312 C104.632811,64.6992175 104.414064,64.4375013 104.179688,64.171875 C106.484387,63.3124957 107.886716,62.2695374 108.386719,61.0429688 L106.804688,61.0429688 C106.140622,61.7148471 105.402348,62.304685 104.589844,62.8125 C104.42578,62.5781238 104.23047,62.3281263 104.003906,62.0625 Z M106.429688,58.2773438 L113.226562,58.2773438 L113.226562,57.2929688 L106.429688,57.2929688 L106.429688,58.2773438 Z M113.226562,55.5117188 L106.429688,55.5117188 L106.429688,56.4726562 L113.226562,56.4726562 L113.226562,55.5117188 Z M116.097656,62.3789062 L121.804688,62.3789062 L121.804688,60.375 L117.503906,60.375 L117.503906,59.5195312 C118.031253,58.5781203 118.515623,57.6640669 118.957031,56.7773438 L116.542969,56.7773438 L116.542969,55.9101562 L119.378906,55.9101562 C119.683595,55.2773406 119.964842,54.6601593 120.222656,54.0585938 L121.101562,54.328125 C120.843749,54.8828153 120.595704,55.4101537 120.357422,55.9101562 L126.949219,55.9101562 L126.949219,56.7773438 L119.935547,56.7773438 C119.419919,57.8359428 118.949221,58.7539024 118.523438,59.53125 L121.804688,59.53125 L121.804688,57.2695312 L122.71875,57.2695312 L122.71875,59.53125 L126.105469,59.53125 L126.105469,60.375 L122.71875,60.375 L122.71875,62.3789062 L127.394531,62.3789062 L127.394531,63.2460938 L122.71875,63.2460938 L122.71875,65.7070312 L121.804688,65.7070312 L121.804688,63.2460938 L116.097656,63.2460938 L116.097656,62.3789062 Z M128.027344,60.6445312 L131.050781,60.6445312 L131.050781,57.4101562 L128.496094,57.4101562 L128.496094,56.5195312 L131.050781,56.5195312 L131.050781,54.2695312 L132.011719,54.2695312 L132.011719,56.5195312 L135.5625,56.5195312 L135.5625,54.2578125 L136.523438,54.2578125 L136.523438,56.5195312 L139.089844,56.5195312 L139.089844,57.4101562 L136.523438,57.4101562 L136.523438,60.6445312 L139.558594,60.6445312 L139.558594,61.5351562 L128.027344,61.5351562 L128.027344,60.6445312 Z M132.011719,60.6445312 L135.5625,60.6445312 L135.5625,57.4101562 L132.011719,57.4101562 L132.011719,60.6445312 Z M131.953125,62.1328125 L132.679688,62.8828125 C131.382806,63.8281297 130.031257,64.703121 128.625,65.5078125 C128.453124,65.2578113 128.246095,64.9882827 128.003906,64.6992188 C129.371101,63.9726526 130.687494,63.1171924 131.953125,62.1328125 Z M134.8125,62.9414062 L135.410156,62.203125 C136.753913,63.000004 138.046869,63.8242145 139.289062,64.6757812 L138.609375,65.53125 C137.374994,64.6015579 136.109381,63.7382852 134.8125,62.9414062 Z M141.691406,65.5546875 L140.789062,65.5546875 L140.789062,54.8085938 L150.773438,54.8085938 L150.773438,64.1953125 C150.773438,65.0625043 150.316411,65.4960938 149.402344,65.4960938 C148.832028,65.4960938 148.183597,65.4804689 147.457031,65.4492188 C147.417969,65.1757799 147.363282,64.863283 147.292969,64.5117188 C148.06641,64.5820316 148.707029,64.6171875 149.214844,64.6171875 C149.652346,64.6171875 149.871094,64.3984397 149.871094,63.9609375 L149.871094,55.6757812 L141.691406,55.6757812 L141.691406,65.5546875 Z M143.308594,59.296875 L148.242188,59.296875 L148.242188,62.9882812 L144.175781,62.9882812 L144.175781,63.5976562 L143.308594,63.5976562 L143.308594,59.296875 Z M147.375,60.140625 L144.175781,60.140625 L144.175781,62.1445312 L147.375,62.1445312 L147.375,60.140625 Z M142.347656,57.1054688 L149.214844,57.1054688 L149.214844,57.9492188 L142.347656,57.9492188 L142.347656,57.1054688 Z M156.386719,60.3632812 L156.386719,59.5429688 L162.410156,59.5429688 L162.410156,60.3515625 C161.878904,61.5898499 161.130864,62.6308552 160.166016,63.4746094 C161.099614,64.0605498 162.27343,64.4687488 163.6875,64.6992188 C163.468749,64.9882827 163.273438,65.2851547 163.101562,65.5898438 C161.640618,65.2695296 160.42188,64.7519567 159.445312,64.0371094 C158.39062,64.7753943 157.125007,65.324217 155.648438,65.6835938 C155.476562,65.3632796 155.304688,65.0898449 155.132812,64.8632812 C156.550788,64.5664048 157.757808,64.0957063 158.753906,63.4511719 C157.894527,62.626949 157.281252,61.5976624 156.914062,60.3632812 L156.386719,60.3632812 Z M151.96875,60.421875 C152.515628,60.2734368 153.085935,60.1074228 153.679688,59.9238281 L153.679688,57.3398438 L152.121094,57.3398438 L152.121094,56.5195312 L153.679688,56.5195312 L153.679688,54.2460938 L154.558594,54.2460938 L154.558594,56.5195312 L155.976562,56.5195312 L155.976562,57.3398438 L154.558594,57.3398438 L154.558594,59.6484375 C154.96094,59.5195306 155.374998,59.3828132 155.800781,59.2382812 C155.792969,59.4882825 155.800781,59.792967 155.824219,60.1523438 C155.398435,60.2851569 154.976565,60.4199212 154.558594,60.5566406 L154.558594,64.2421875 C154.558594,65.0937543 154.179691,65.5195312 153.421875,65.5195312 L152.285156,65.5195312 C152.253906,65.2460924 152.203125,64.9140645 152.132812,64.5234375 C152.570315,64.5703127 152.92578,64.59375 153.199219,64.59375 C153.519533,64.59375 153.679688,64.4062519 153.679688,64.03125 L153.679688,60.84375 C153.144529,61.0234384 152.613284,61.2070303 152.085938,61.3945312 L151.96875,60.421875 Z M162.328125,57.796875 L163.640625,57.796875 C163.5625,58.0781264 163.496094,58.3632798 163.441406,58.6523438 L162.199219,58.6523438 C161.300777,58.6523438 160.851562,58.2226605 160.851562,57.3632812 L160.851562,55.5234375 L158.25,55.5234375 L158.25,55.9570312 C158.257813,57.4648513 157.660162,58.58984 156.457031,59.3320312 C156.261718,59.0742175 156.050782,58.8359386 155.824219,58.6171875 C156.855474,58.0546847 157.371094,57.1679748 157.371094,55.9570312 L157.371094,54.703125 L161.730469,54.703125 L161.730469,57.234375 C161.730469,57.6093769 161.929686,57.796875 162.328125,57.796875 Z M161.4375,60.3632812 L157.763672,60.3632812 C158.091799,61.4023489 158.654293,62.2636685 159.451172,62.9472656 C160.306645,62.2480434 160.968748,61.3867239 161.4375,60.3632812 Z M167.226562,59.015625 C169.570324,58.4140595 170.839843,57.3984446 171.035156,55.96875 L169.160156,55.96875 C168.878905,56.5468779 168.566408,57.0664039 168.222656,57.5273438 C167.972655,57.3554679 167.710939,57.1875008 167.4375,57.0234375 C168.171879,56.1562457 168.691405,55.1523495 168.996094,54.0117188 L169.875,54.2226562 C169.757812,54.566408 169.636719,54.8906235 169.511719,55.1953125 L175.066406,55.1953125 L175.066406,55.9335938 L174.269531,57.5273438 C174.003905,57.4023431 173.718752,57.2812506 173.414062,57.1640625 L174.035156,55.96875 L171.949219,55.96875 C171.886718,56.2187512 171.816407,56.4609363 171.738281,56.6953125 C172.41016,57.804693 173.671866,58.5742166 175.523438,59.0039062 C175.304686,59.3007827 175.109376,59.5859361 174.9375,59.859375 C173.273429,59.3281223 172.085941,58.5468802 171.375,57.515625 C170.835935,58.4531297 169.652353,59.2109346 167.824219,59.7890625 C167.667968,59.5546863 167.468751,59.2968764 167.226562,59.015625 Z M165.714844,59.8359375 L173.859375,59.8359375 L173.859375,63.65625 L172.945312,63.65625 L172.945312,60.65625 L166.628906,60.65625 L166.628906,63.65625 L165.714844,63.65625 L165.714844,59.8359375 Z M167.0625,56.7539062 C167.203126,57.0585953 167.355468,57.3359363 167.519531,57.5859375 C166.589839,58.2812535 165.621099,59.0351522 164.613281,59.8476562 L164.003906,59.0507812 C165.105474,58.292965 166.124995,57.5273476 167.0625,56.7539062 Z M164.976562,54.2109375 C165.648441,54.6328146 166.300778,55.0703102 166.933594,55.5234375 L166.335938,56.25 C165.773435,55.8046853 165.148441,55.3398462 164.460938,54.8554688 L164.976562,54.2109375 Z M170.25,61.1015625 C170.242187,61.9453167 170.183594,62.5937477 170.074219,63.046875 C171.855478,63.6250029 173.554679,64.2265594 175.171875,64.8515625 L174.679688,65.7070312 C173.203118,65.0976532 171.558603,64.4687532 169.746094,63.8203125 C169.222654,64.7500046 167.554702,65.3945295 164.742188,65.7539062 C164.601562,65.4570298 164.433595,65.1523453 164.238281,64.8398438 C166.824232,64.6132801 168.386716,64.12891 168.925781,63.3867188 C169.214845,62.9960918 169.351563,62.2343807 169.335938,61.1015625 L170.25,61.1015625 Z" id="腾讯-京东-百度-易车共同投资-copy" fill="#999999"></path>
            <path d="M15.2811932,4.32207292 L14.0467531,0.937302083 C13.7778582,0.198510417 12.9616205,-0.182572917 12.2235747,0.0862395833 C11.4855289,0.35540625 11.105184,1.17176042 11.3737252,1.91090625 L12.6078114,5.29603125 C12.8767064,6.03482292 13.692944,6.41590625 14.4309899,6.14673958 C15.1693895,5.87792708 15.5497343,5.06121875 15.2811932,4.32207292 Z M5.29811481,11.4039896 L1.91428429,10.1746771 C1.17623845,9.90586458 0.360000789,10.2869479 0.0911058508,11.0257396 C-0.177435278,11.7645313 0.203263345,12.5812396 0.941309188,12.8500521 L4.3251397,14.0790104 C5.06318554,14.3481771 5.87942321,13.9670938 6.14796434,13.2283021 C6.41650546,12.4898646 6.03616065,11.6731563 5.29811481,11.4039896 Z M9.86119115,7.21207292 C10.4166715,7.76811458 10.4166715,8.66946875 9.86119115,9.22586458 C9.305357,9.78155208 8.40491277,9.78155208 7.84978625,9.22586458 L4.43092863,5.80319792 C3.8754483,5.24715625 3.8754483,4.34580208 4.43092863,3.79011458 C4.98640896,3.23407292 5.8868532,3.23407292 6.44233353,3.79011458 L9.86119115,7.21207292 Z" id="Fill-1" fill="#E8474C"></path>
            <path d="M42.6633662,36.6584813 C40.737937,36.6584813 39.1762235,35.0951896 39.1762235,33.1674604 C39.1762235,31.2400854 40.737937,29.6771479 42.6633662,29.6771479 C44.5891493,29.6771479 46.150509,31.2400854 46.150509,33.1674604 C46.150509,35.0951896 44.5891493,36.6584813 42.6633662,36.6584813 L42.6633662,36.6584813 Z M9.75381008,22.1348146 C10.9419011,15.4686896 17.5825447,10.3640854 25.5980905,10.3640854 C33.6132825,10.3640854 40.2542799,15.4686896 41.4420171,22.1348146 L9.75381008,22.1348146 Z M25.5980905,36.6584813 C21.5342388,36.6584813 18.0463884,34.1934813 16.5426996,30.6762521 L34.6531275,30.6762521 C33.1501464,34.1934813 29.6619422,36.6584813 25.5980905,36.6584813 L25.5980905,36.6584813 Z M8.53281477,36.6584813 C6.60703168,36.6584813 5.0460258,35.0951896 5.0460258,33.1681688 C5.0460258,31.2400854 6.60703168,29.6775021 8.53281477,29.6775021 C10.4582441,29.6775021 12.0199575,31.2400854 12.0199575,33.1681688 C12.0199575,35.0951896 10.4582441,36.6584813 8.53281477,36.6584813 L8.53281477,36.6584813 Z M51.1958272,24.4500021 C51.1958272,23.1714604 50.1605817,22.1348146 48.8829769,22.1348146 L46.4519544,22.1348146 C45.2613867,12.7883563 36.3797161,5.52581458 25.5984443,5.52581458 C14.8168187,5.52581458 5.93514814,12.7883563 4.74458042,22.1348146 L2.31320409,22.1348146 C1.03595313,22.1348146 0,23.1714604 0,24.4500021 C0,25.6421271 0.899382807,26.6228146 2.05563104,26.7510229 C0.761751055,28.5590438 0,30.7747104 0,33.1681688 C0,36.3478771 1.34447469,39.2127313 3.49457277,41.2258146 L3.49457277,42.7154396 C3.49457277,45.5016688 5.75045978,47.7587729 8.53281477,47.7587729 C10.7986084,47.7587729 12.7151925,46.2613563 13.3485108,44.2008146 L37.8473164,44.2008146 C38.4809885,46.2613563 40.3972188,47.7587729 42.6633662,47.7587729 C45.446075,47.7587729 47.7016082,45.5016688 47.7016082,42.7154396 L47.7016082,41.2258146 C49.8517063,39.2127313 51.1958272,36.3478771 51.1958272,33.1681688 C51.1958272,30.7747104 50.43443,28.5590438 49.1409038,26.7510229 C50.2967982,26.6228146 51.1958272,25.6421271 51.1958272,24.4500021 L51.1958272,24.4500021 Z" id="Fill-3" fill="#E8474C"></path>
            <path d="M170.455261,21.858175 L165.56668,21.858175 L165.536607,21.858175 L156.544548,21.858175 C154.047009,21.858175 152.022513,23.5734042 152.022513,26.0734667 L152.022513,28.398925 C152.022513,29.0771542 152.571625,29.6268208 153.249169,29.6268208 C153.922822,29.6268208 154.482548,29.083175 154.488209,28.4088417 L154.488209,26.065675 C154.488209,25.0899458 155.481705,24.2916542 156.456095,24.2916542 L165.537314,24.2916542 L165.565973,24.2916542 L170.543713,24.2916542 C171.518458,24.2916542 172.511954,25.0899458 172.511954,26.065675 L172.511954,28.4088417 C172.517261,29.083175 173.076987,29.6268208 173.750639,29.6268208 C174.428184,29.6268208 174.977296,29.0771542 174.977296,28.398925 L174.977296,26.0734667 C174.977296,23.5734042 172.9528,21.858175 170.455261,21.858175" id="Fill-18" fill="#044A8A"></path>
            <path d="M173.585552,30.6215687 L173.585552,30.6215687 C169.818192,30.6215687 166.506893,28.3885479 164.617906,25.8559021 C164.350426,25.5042146 163.888351,25.2708187 163.36153,25.2708187 C162.829047,25.2708187 162.362019,25.5102354 162.096308,25.8690062 C160.205906,28.3942146 156.89956,30.6215687 153.138215,30.6215687 L153.137861,30.6215687 C152.309948,30.6215687 151.679814,31.1669854 151.679814,31.8767354 C151.679814,32.5861312 152.309948,33.0816104 153.138215,33.0816104 C157.210204,33.0816104 160.864345,30.9966312 163.362237,28.5712979 C165.86013,30.9962771 169.513917,33.0816104 173.585552,33.0816104 C174.413465,33.0816104 175.00185,32.5861312 175.00185,31.8767354 C175.00185,31.1669854 174.413465,30.6215687 173.585552,30.6215687" id="Fill-20" fill="#044A8A"></path>
            <path d="M135.482007,30.3945833 L142.845483,30.3945833 L142.845483,26.4651042 L135.482007,26.4651042 L135.482007,30.3945833 Z M135.482007,24.0819167 L142.845483,24.0819167 L142.845483,19.9204583 L135.482007,19.9204583 L135.482007,24.0819167 Z M135.482007,17.5369167 L142.845483,17.5369167 L142.831684,14.6249583 C142.831684,14.2300625 142.702544,13.899625 142.445324,13.6332917 C142.196597,13.3839583 141.874277,13.2723958 141.478718,13.2723958 L136.724938,13.2723958 C136.439415,13.2723958 136.15849,13.4013125 135.882519,13.6587917 C135.606194,13.916625 135.482007,14.3232083 135.482007,14.6405417 L135.482007,17.5369167 Z M130.40803,30.3945833 L132.927859,30.3945833 L132.91406,14.3802292 C132.91406,13.3071042 133.263624,12.4436458 133.963458,11.7905625 C134.616944,11.1810417 135.35322,10.87575 136.172289,10.87575 L141.658099,10.87575 C142.661148,10.87575 143.48057,11.1165833 144.115657,11.5975417 C144.962323,12.2417708 145.385832,13.1477292 145.385832,14.3157708 L145.399631,30.3945833 L145.743533,30.3945833 C146.411525,30.3945833 146.953207,30.9368125 146.953207,31.6054792 C146.953207,32.2745 146.411525,32.8167292 145.743533,32.8167292 L130.40803,32.8167292 C129.739685,32.8167292 129.198003,32.2745 129.198003,31.6054792 C129.198003,30.9368125 129.739685,30.3945833 130.40803,30.3945833 Z" id="Fill-22" fill="#044A8A"></path>
            <path d="M106.629226,25.3126812 C106.798701,25.0792854 106.95933,24.7421187 107.111114,24.4956187 L114.252044,24.4956187 C114.404536,24.7424729 114.565873,25.0789312 114.735701,25.3126812 L106.629226,25.3126812 Z M113.676397,29.8959521 L113.36646,31.1532437 L113.401487,31.1624521 L112.104423,31.1624521 L112.104423,29.8959521 L113.676397,29.8959521 Z M109.650756,27.9855771 L106.258081,27.9855771 C105.731259,27.9855771 105.303857,28.4130562 105.303857,28.9404104 C105.303857,29.1164312 105.352329,29.2807646 105.435121,29.4224312 L105.864291,31.1624521 L103.387627,31.1624521 L103.816798,29.4227854 C103.899589,29.2811187 103.948061,29.1164312 103.948061,28.9404104 C103.948061,28.4130562 103.521013,27.9855771 102.993838,27.9855771 L99.6011618,27.9855771 L99.6011618,27.1263687 L109.650756,27.1263687 L109.650756,27.9855771 Z M109.650756,31.1624521 L108.354046,31.1624521 L108.388719,31.1532437 L108.078782,29.8959521 L109.650756,29.8959521 L109.650756,31.1624521 Z M100.897872,31.1624521 L99.6011618,31.1624521 L99.6011618,29.8959521 L101.173136,29.8959521 L100.863199,31.1532437 L100.897872,31.1624521 Z M94.5140941,25.3126812 C94.6842763,25.0792854 94.8449057,24.7424729 94.9973974,24.4956187 L102.139035,24.4956187 C102.291526,24.7428271 102.454279,25.0785771 102.624815,25.3126812 L94.5140941,25.3126812 Z M97.1474955,31.1624521 L95.850785,31.1624521 L95.8858121,31.1532437 L95.5755215,29.8959521 L97.1474955,29.8959521 L97.1474955,31.1624521 Z M117.506734,25.4734729 C116.762674,24.7853271 116.129001,23.9781812 115.637561,23.0824937 C115.476224,22.7878271 115.164164,22.5877229 114.805048,22.5855979 L106.566248,22.5852437 L106.565541,22.5852437 C106.203594,22.5852437 105.88835,22.7871187 105.726659,23.0846187 L105.726305,23.0846187 C105.414246,23.6530562 105.043808,24.1835979 104.625251,24.6727021 C104.207049,24.1835979 103.836965,23.6519937 103.525259,23.0835562 C103.363214,22.7864104 103.048324,22.5852437 102.686731,22.5852437 L94.4528852,22.5852437 C94.0905846,22.5852437 93.7753407,22.7871187 93.6136499,23.0849729 C93.12787,23.9693271 92.5041045,24.7669104 91.7717196,25.4493896 C91.3775762,25.7900979 91.3283967,26.3858062 91.6648692,26.7863687 C91.8534495,27.0112646 92.1244673,27.1267229 92.3965465,27.1263687 L97.1474955,27.1263687 L97.1474955,27.9855771 L93.7551736,27.9855771 C93.2279979,27.9855771 92.8009503,28.4130562 92.8009503,28.9404104 C92.8009503,29.1164312 92.8494222,29.2807646 92.9322135,29.4224312 L93.361384,31.1624521 L92.9060316,31.1624521 L92.9060316,31.1628062 C92.3792098,31.1628062 91.9518084,31.5902854 91.9518084,32.1176396 C91.9518084,32.6453479 92.3792098,33.0728271 92.9060316,33.0728271 L116.34624,33.0728271 C116.873062,33.0728271 117.30011,32.6453479 117.30011,32.1176396 C117.30011,31.5902854 116.873062,31.1628062 116.34624,31.1628062 L116.34624,31.1624521 L115.890888,31.1624521 L116.319705,29.4227854 C116.40285,29.2811187 116.451322,29.1164312 116.451322,28.9404104 C116.451322,28.4130562 116.024274,27.9855771 115.497452,27.9855771 L112.104423,27.9855771 L112.104423,27.1263687 L116.856433,27.1263687 C117.128866,27.1263687 117.398822,27.0109104 117.587403,26.7863687 C117.916091,26.3950146 117.876465,25.8177229 117.506734,25.4734729 L117.506734,25.4734729 Z M98.3472622,13.1509521 L110.90501,13.1509521 C111.119418,13.5051187 111.353286,13.8465354 111.603429,14.1741396 L97.6484892,14.1741396 C97.8993399,13.8465354 98.1321463,13.5051187 98.3472622,13.1509521 L98.3472622,13.1509521 Z M111.04618,19.0184312 L110.810543,19.9357229 L105.852969,19.9357229 L105.852969,19.0184312 L111.04618,19.0184312 Z M103.399303,19.9357229 L98.4410217,19.9357229 L98.2057386,19.0184312 L103.399303,19.0184312 L103.399303,19.9357229 Z M93.5549176,17.5284521 C93.5701314,17.5220771 93.5839299,17.5139312 93.5984361,17.5064937 C94.3881381,17.1169104 95.1261839,16.6380771 95.8008979,16.0845146 L103.399303,16.0845146 L103.399303,17.1080562 L96.2629727,17.1080562 C95.7357971,17.1080562 95.3087494,17.5355354 95.3087494,18.0628896 C95.3087494,18.3352437 95.422676,18.5799729 95.6048877,18.7535146 L95.9084559,19.9357229 L94.6117455,19.9357229 C94.0849237,19.9357229 93.657876,20.3632021 93.657876,20.8909104 C93.657876,21.4186187 94.0849237,21.8460979 94.6117455,21.8460979 L114.640526,21.8460979 C115.167348,21.8460979 115.59475,21.4186187 115.59475,20.8909104 C115.59475,20.3632021 115.167348,19.9357229 114.640526,19.9357229 L113.343816,19.9357229 L113.64703,18.7535146 C113.829242,18.5799729 113.943169,18.3352437 113.943169,18.0628896 C113.943169,17.5355354 113.516121,17.1080562 112.989299,17.1080562 L105.852969,17.1080562 L105.852969,16.0845146 L113.45102,16.0845146 C114.126088,16.6380771 114.863426,17.1169104 115.653836,17.5064937 C115.668696,17.5139312 115.682494,17.5220771 115.697354,17.5284521 C116.246466,17.7777854 116.892522,17.5334104 117.140542,16.9844521 C117.384316,16.4461187 117.15434,15.8149937 116.629288,15.5557437 C114.950817,14.7326604 113.556101,13.4094937 112.636198,11.7888271 C112.447971,11.4612229 112.094516,11.2405771 111.690112,11.2405771 L97.5621598,11.2405771 C97.1570483,11.2405771 96.8039468,11.4612229 96.6160742,11.7888271 C95.6961704,13.4094937 94.3014548,14.7326604 92.6233381,15.5557437 C92.0979316,15.8149937 91.8676018,16.4461187 92.1113763,16.9844521 C92.3593965,17.5334104 93.0061596,17.7777854 93.5549176,17.5284521 L93.5549176,17.5284521 Z" id="Fill-14" fill="#044A8A"></path>
            <path d="M66.8609387,17.5597604 L85.7168424,17.5597604 L85.7168424,18.0109687 C85.7168424,18.5386771 85.289441,18.9661562 84.7626192,18.9661562 L84.7626192,18.9665104 L67.8151619,18.9661562 C67.2883401,18.9661562 66.8609387,18.5386771 66.8609387,18.0109687 L66.8609387,17.5597604 Z M66.8609387,14.6516979 C66.8609387,14.1246979 67.2883401,13.6968646 67.8151619,13.6968646 L84.7626192,13.6968646 C85.289441,13.6968646 85.7168424,14.1246979 85.7168424,14.6516979 L85.7168424,15.1032604 L66.8609387,15.1032604 L66.8609387,14.6516979 Z M85.3081929,22.6590521 L67.538837,22.6590521 C67.6272893,22.2588437 67.6768225,21.8444687 67.6828373,21.4187604 C67.7267096,21.4205312 67.7709358,21.4223021 67.8151619,21.4223021 L84.7626192,21.4223021 C86.6448838,21.4223021 88.1708625,19.8951354 88.1708625,18.0109687 L88.1708625,14.6516979 C88.1708625,12.7678854 86.6448838,11.2403646 84.7626192,11.2403646 L67.8151619,11.2403646 C65.9328973,11.2403646 64.4069186,12.7678854 64.4069186,14.6516979 L64.4069186,18.0109687 C64.4069186,18.6024271 64.5576413,19.1588229 64.8222905,19.6436771 C65.082694,20.1490729 65.2305862,20.7214062 65.2305862,21.3291562 C65.2305862,22.6710937 64.5130613,23.8455104 63.4417273,24.4893854 C63.0719967,24.7011771 62.8158389,25.1045729 62.8158389,25.5614479 C62.8158389,26.2396771 63.3653045,26.7893437 64.042849,26.7893437 C64.2699944,26.7893437 64.4822799,26.7277187 64.6648454,26.6200521 L64.6733368,26.6143854 C65.331068,26.2244479 65.9095459,25.7144479 66.3786968,25.1151979 L70.8087409,25.1151979 C69.4992934,27.3478646 67.5133627,29.1403021 65.1347039,30.2020937 C64.5516265,30.4677187 64.2420435,31.1317812 64.4348695,31.7614896 C64.6446783,32.4453854 65.3689256,32.8300104 66.0524848,32.6199896 C69.7519131,31.4041354 72.7822883,28.6469479 74.3461246,25.1151979 L78.901771,25.1151979 C77.9394101,27.3662812 76.1629345,29.1856354 73.9392441,30.1964271 C73.3476753,30.4578021 73.0320775,31.1271771 73.2263187,31.7614896 C73.4361275,32.4457396 74.1603748,32.8300104 74.8442879,32.6199896 C74.8584402,32.6160937 74.8725926,32.6111354 74.886745,32.6061771 C78.3420449,31.3680104 81.0727438,28.5977187 82.2647267,25.1151979 L84.7626192,25.1151979 C85.289441,25.1151979 85.7168424,25.5430312 85.7168424,26.0707396 L85.7168424,29.6619896 C85.7168424,30.1893437 85.289441,30.6168229 84.7626192,30.6168229 L83.0791954,30.6168229 C82.4016509,30.6168229 81.8521853,31.1668437 81.8521853,31.8454271 C81.8521853,32.5233021 82.4016509,33.0729687 83.0791954,33.0729687 L85.3081929,33.0729687 C87.1904574,33.0729687 88.7160824,31.5454479 88.7160824,29.6616354 L88.7160824,26.0703854 C88.7160824,24.1865729 87.1904574,22.6590521 85.3081929,22.6590521 L85.3081929,22.6590521 Z" id="Fill-16" fill="#044A8A"></path>
            <path d="M129.184558,31.566875 L129.184558,19.9873958 C129.184558,19.3881458 129.669631,18.9025833 130.268276,18.9025833 C130.866921,18.9025833 131.352347,19.3881458 131.352347,19.9873958 L131.352347,31.566875 C131.352347,32.166125 130.866921,32.6516875 130.268276,32.6516875 C129.669631,32.6516875 129.184558,32.166125 129.184558,31.566875 L129.184558,31.566875 Z" id="Path" fill="#044A8A"></path>
            <path d="M128.052369,13.5670625 L128.052369,15.1919792 L130.303303,15.1919792 C130.966341,15.1919792 131.503777,15.7299583 131.503777,16.3940208 L131.503777,16.3940208 C131.503777,17.0577292 130.966341,17.5957083 130.303303,17.5957083 L128.052369,17.5957083 L128.052369,31.4999375 C128.052369,32.2057917 127.480967,32.778125 126.775472,32.778125 C126.07033,32.778125 125.498575,32.2057917 125.498575,31.4999375 L125.498575,17.5957083 L122.888525,17.5957083 C122.225487,17.5957083 121.687697,17.0577292 121.687697,16.3940208 L121.687697,16.3940208 C121.687697,15.7299583 122.225487,15.1919792 122.888525,15.1919792 L125.498575,15.1919792 L125.498575,13.5670625 L128.052369,13.5670625 Z" id="Path" fill="#044A8A"></path>
            <path d="M121.425524,31.28425 L121.425524,31.0618333 C121.536266,30.8468542 121.672837,30.5822917 121.783579,30.3673125 C121.808346,30.3453542 121.831697,30.3202083 121.853633,30.2915208 C121.963668,30.1541042 122.023462,29.7935625 122.033014,29.2091875 L122.167816,20.1120625 C122.177369,19.4696042 122.700298,18.9539375 123.342108,18.9539375 C123.996655,18.9539375 124.524892,19.4894375 124.516754,20.1446458 L124.407781,28.7197292 C124.398228,29.3983125 124.356833,29.9695833 124.28324,30.4331875 C124.1541,31.2711458 123.72033,31.8803125 122.981577,32.2606875 C122.271128,32.6265417 121.425524,32.0839583 121.425524,31.28425 L121.425524,31.28425 Z" id="Path" fill="#044A8A"></path>
            <path d="M121.716108,12.4327375 L121.716108,12.4327375 C121.716461,11.7963 122.232315,11.2806333 122.868464,11.2816958 L129.066846,11.2916125 C129.258611,11.2916125 129.404026,11.2438 129.503093,11.1485292 C129.74899,10.9112375 130.04619,10.7355708 130.387616,10.7338 L130.558859,10.7330917 C131.578183,10.7277792 132.092268,11.9613417 131.371559,12.6827792 L131.358822,12.6958833 C130.760177,13.2887583 130.065295,13.5848417 129.273824,13.5848417 L122.866341,13.5848417 C122.2309,13.5848417 121.715754,13.0688208 121.716108,12.4327375" id="Fill-24" fill="#044A8A"></path>
            <path d="M153.290919,14.8984458 C152.65477,15.304675 151.971565,15.6421958 151.252978,15.899675 C151.120654,15.9453625 150.97913,15.9701542 150.831238,15.9701542 C150.116189,15.9701542 149.535942,15.389675 149.535942,14.6739042 C149.535942,14.1097167 149.896474,13.6291125 150.399237,13.451675 C151.658443,12.9972792 152.771881,12.2081958 153.616069,11.2023625 L153.617131,11.203425 C153.854537,10.9349667 154.199854,10.7649667 154.58586,10.7649667 C155.300908,10.7649667 155.880448,11.3454458 155.880448,12.0615708 L155.880448,19.6874875 C155.880448,20.4036125 155.300908,20.9840917 154.58586,20.9840917 C153.870458,20.9840917 153.290919,20.4036125 153.290919,19.6874875 L153.290919,14.8984458 Z" id="Fill-25" fill="#044A8A"></path>
            <path d="M157.701362,14.804025 L164.24117,14.804025 L164.24117,13.643775 L159.882595,13.643775 C159.178869,13.643775 158.608528,13.0728583 158.608528,12.3684208 C158.608528,11.6593792 159.183114,11.0845667 159.89144,11.085275 L170.3511,11.0969625 C170.542157,11.0969625 170.686865,11.0495042 170.785931,10.9549417 C171.033951,10.7183583 171.331151,10.5409208 171.673992,10.53915 C172.815026,10.5331292 173.391028,11.9143792 172.583989,12.7222333 C171.985698,13.3151083 171.64038,13.6370458 170.558078,13.643775 L166.795672,13.643775 L166.795672,14.804025 L173.762085,14.804025 C174.433615,14.804025 174.977773,15.3487333 174.977773,16.0209417 C174.977773,16.69315 174.433615,17.2378583 173.762085,17.2378583 L166.795672,17.2378583 L166.795672,18.2412125 L171.661609,18.2412125 C172.347998,18.2412125 172.909847,18.8036292 172.909847,19.4910667 C172.909847,20.1997542 172.330662,20.779525 171.62269,20.779525 L159.905947,20.779525 C159.192314,20.779525 158.608528,20.19515 158.608528,19.4807958 C158.608528,18.7961917 159.162947,18.2412125 159.84686,18.2412125 L164.24117,18.2412125 L164.24117,17.2378583 L157.701362,17.2378583 C157.029832,17.2378583 156.485674,16.69315 156.485674,16.0209417 C156.485674,15.3487333 157.029832,14.804025 157.701362,14.804025 Z" id="Fill-26" fill="#044A8A"></path>
            <g id="Group-2" transform="translate(66.000000, 36.000000)">
                <path d="M108.64548,3.03719271 C108.23171,2.63922005 107.634464,2.4375 106.870422,2.4375 C106.401053,2.4375 105.848286,2.57533724 105.457048,2.81475391 C104.930032,3.13733333 104.670767,3.43315104 104.572738,3.52926302 L104.503679,3.59688672 L104.461248,3.51055859 C104.297086,3.17502995 104.035187,2.90971484 103.682868,2.72180729 C103.328208,2.53303646 102.912389,2.4375 102.446239,2.4375 C101.975699,2.4375 101.451317,2.5451224 101.008869,2.76266927 C100.492095,3.01704948 99.9194296,3.58192318 99.9194296,3.58192318 C99.5372625,3.05560938 99.2226916,2.69504557 98.6854338,2.50771354 L98.6304205,2.48958464 C98.5315135,2.45447786 98.4302656,2.4375 98.3284324,2.4375 C98.0878954,2.4375 97.861697,2.52929557 97.6913898,2.69677214 C97.5210825,2.8642487 97.4277355,3.08697526 97.4277355,3.32380208 C97.4277355,3.55084505 97.5158153,3.76752865 97.6755881,3.93299089 L97.6855373,3.94335026 C97.691975,3.94996875 97.6981201,3.95601172 97.7039726,3.96263021 L97.7136292,3.97241406 C97.8944709,4.16924219 97.9687974,4.39801172 97.9685048,4.74533854 L97.9685048,8.81024219 C97.9682122,9.10001693 98.0823356,9.37223828 98.2906839,9.5771237 C98.4990323,9.78114583 98.7758547,9.89394792 99.0699419,9.89394792 C99.6771369,9.89394792 100.171379,9.40792057 100.171964,8.81024219 L100.171379,8.79815625 L100.171379,4.64001823 L100.196545,4.61929948 C100.451713,4.40923437 100.86285,3.98133464 101.450439,3.98133464 C101.811244,3.98133464 102.080751,4.08866927 102.251644,4.30046094 C102.421073,4.50908724 102.503008,4.82447266 102.503008,5.26445833 L102.503008,8.79758073 C102.503008,9.08908203 102.618009,9.36274219 102.82782,9.56849089 C103.037047,9.77423958 103.315625,9.88732943 103.612053,9.88732943 C104.222174,9.88732943 104.718465,9.39871224 104.71905,8.79758073 L104.71905,4.63944271 L104.744801,4.61929948 C104.979193,4.42880208 105.377454,3.98133464 105.984942,3.98133464 C106.350137,3.98133464 106.623448,4.08866927 106.796096,4.29988542 C106.964647,4.50678516 107.050386,4.83109115 107.050386,5.26445833 L107.050386,8.79758073 C107.050386,9.08908203 107.16568,9.36274219 107.374906,9.56849089 C107.584718,9.77423958 107.862711,9.88732943 108.158846,9.88732943 C108.769553,9.88732943 109.265843,9.39871224 109.266136,8.79758073 L109.266136,4.75713672 C109.266428,4.01298828 109.057495,3.43430208 108.64548,3.03719271" id="Fill-9" fill="#E8474C"></path>
                <path d="M87.0613358,8.75297786 C87.1596575,9.18317969 86.8863466,9.61223047 86.4447769,9.71639974 L86.4216596,9.72301823 C86.2595458,9.75553516 86.0907017,9.78488672 85.9189314,9.80905859 C85.5557849,9.86143099 85.2066844,9.88732943 84.8809937,9.88732943 C83.655484,9.88732943 82.6725597,9.54489453 81.9591422,8.86923307 C81.2471878,8.19501042 80.8860896,7.26496875 80.8863823,6.10471875 C80.8863823,4.9818776 81.2533329,4.08032422 81.9769922,3.42538151 C82.7015295,2.76957552 83.7028891,2.4375 84.9544424,2.4375 C85.2924232,2.4375 85.6377196,2.46426172 85.9795046,2.5174974 C86.1126485,2.53792839 86.2536934,2.56411458 86.4005906,2.59548047 L86.4468253,2.60583984 C86.8863466,2.70770703 87.1602428,3.14251302 87.0572391,3.57501693 C86.9694519,3.9401849 86.6417129,4.19600391 86.261009,4.19600391 C86.2062882,4.19600391 86.1509823,4.19053646 86.0968468,4.17988932 L86.0611467,4.17355859 C85.7076568,4.09384896 85.3620677,4.05327474 85.0337435,4.05327474 C84.4098689,4.05327474 83.9308433,4.23082292 83.6092494,4.58073958 C83.2891187,4.92864193 83.1275902,5.44517187 83.1275902,6.11651693 C83.1275902,6.81232161 83.2978974,7.34726823 83.6341225,7.70725651 C83.9715181,8.06868359 84.4716126,8.25227474 85.1209455,8.25227474 C85.4106433,8.25227474 85.7193618,8.21947005 86.0421261,8.15386068 L86.05705,8.14925651 C86.0652434,8.14724219 86.072559,8.1449401 86.0804599,8.14321354 C86.1404478,8.12997656 86.2013136,8.12335807 86.2618868,8.12335807 C86.6411276,8.12335807 86.977938,8.38809766 87.0613358,8.75297786" id="Fill-5" fill="#E8474C"></path>
                <path d="M93.733295,7.70265234 C93.4149199,8.06724479 92.9616452,8.25227474 92.3860536,8.25227474 C91.8104621,8.25227474 91.3586505,8.06724479 91.0432017,7.70265234 C90.7300939,7.34151302 90.571199,6.82440755 90.5709064,6.16514844 C90.571199,5.50502604 90.7309718,4.98676953 91.0452501,4.62447917 C91.3630398,4.2578724 91.8145588,4.07197917 92.3860536,4.07197917 C92.9628157,4.07197917 93.4163831,4.2578724 93.733295,4.62505469 C94.0481585,4.98964714 94.2076386,5.50790365 94.2070534,6.16514844 C94.2076386,6.82325651 94.0481585,7.34064974 93.733295,7.70265234 M95.3506283,3.44926562 C94.6231648,2.77763281 93.6253167,2.4375 92.3860536,2.4375 C91.15118,2.4375 90.1553802,2.77763281 89.4273314,3.44926562 C88.6995753,4.11917188 88.3305764,5.03309896 88.3299911,6.16514844 C88.3305764,7.29691016 88.6995753,8.20939844 89.4273314,8.87786589 C90.1559654,9.54777214 91.1517652,9.88732943 92.3866389,9.88732943 C93.6253167,9.88732943 94.6225796,9.54777214 95.3512136,8.87786589 C96.0792623,8.20911068 96.4479687,7.29691016 96.4473834,6.16514844 C96.4479687,5.03309896 96.0792623,4.11917188 95.3506283,3.44926562" id="Fill-7" fill="#E8474C"></path>
                <path d="M77.8586281,7.3125 C77.5627852,7.3125 77.284207,7.4258776 77.0749808,7.63133854 C76.8657546,7.83708724 76.7504607,8.11045964 76.751046,8.40167318 C76.7504607,8.69288672 76.8657546,8.96654688 77.0749808,9.17229557 C77.2847923,9.37804427 77.5627852,9.49084635 77.8589208,9.49084635 C78.469042,9.49084635 78.9659177,9.00251693 78.966503,8.40167318 C78.9662103,7.80140495 78.4696272,7.3125 77.8586281,7.3125" id="Fill-12" fill="#20528E"></path>
                <path d="M56.4598326,8.75297786 C56.5581543,9.18317969 56.2848434,9.61223047 55.8432737,9.71639974 L55.8198637,9.72301823 C55.6580426,9.75553516 55.4891985,9.78488672 55.3174282,9.80905859 C54.9542817,9.86143099 54.6051811,9.88704167 54.2794905,9.88704167 C53.0539808,9.88704167 52.0710565,9.54489453 51.357639,8.86923307 C50.6456845,8.19501042 50.2842938,7.26496875 50.284879,6.10471875 C50.284879,4.9818776 50.6518296,4.08032422 51.375489,3.42538151 C52.1000263,2.76957552 53.1013859,2.4375 54.3529392,2.4375 C54.69092,2.4375 55.0362164,2.46426172 55.3780013,2.5174974 C55.5111453,2.53792839 55.6521901,2.56411458 55.7990874,2.59548047 L55.845322,2.60583984 C56.2848434,2.70770703 56.5587396,3.14251302 56.4557359,3.57501693 C56.367656,3.9401849 56.0402097,4.19600391 55.6595057,4.19600391 C55.604785,4.19600391 55.5494791,4.19053646 55.4953436,4.17960156 L55.4596435,4.17355859 C55.1061536,4.09384896 54.7605645,4.05327474 54.4322403,4.05327474 C53.8083657,4.05327474 53.3293401,4.23082292 53.0077462,4.58073958 C52.6876154,4.92864193 52.526087,5.44517187 52.526087,6.11651693 C52.526087,6.81232161 52.6963942,7.34726823 53.0326193,7.70725651 C53.3700148,8.06868359 53.8701094,8.25227474 54.5194423,8.25227474 C54.8091401,8.25227474 55.1178585,8.21947005 55.4406229,8.15386068 L55.4555467,8.14925651 C55.4637402,8.14724219 55.4710558,8.1449401 55.4789567,8.14321354 C55.538652,8.12997656 55.5995178,8.12335807 55.6603836,8.12335807 C56.0396244,8.12335807 56.3764348,8.38809766 56.4598326,8.75297786" id="Fill-27" fill="#20528E"></path>
                <path d="M18.7542836,5.99882292 L20.7722194,3.86997135 C20.9293585,3.70249479 21.0110006,3.48466016 21.0019293,3.25704167 C20.9928579,3.02913542 20.893951,2.81849479 20.7236438,2.66396745 C20.5629932,2.51778516 20.3537669,2.4375 20.1354694,2.4375 C19.8937619,2.4375 19.6614183,2.53735286 19.4975488,2.71173568 L16.1297382,6.06184245 L20.0664101,9.71006901 C20.2255976,9.8548125 20.4345312,9.93509766 20.653414,9.93509766 C20.8945363,9.93509766 21.1271724,9.83553255 21.2910419,9.66057422 C21.448181,9.49309766 21.5301158,9.27583854 21.5204592,9.04764453 C21.5116805,8.81973828 21.4127735,8.60938542 21.2424663,8.45485807 L18.7542836,5.99882292 Z" id="Fill-28" fill="#20528E"></path>
                <path d="M13.1001851,8.45485807 C12.9298779,8.60938542 12.830971,8.81973828 12.8221922,9.04793229 C12.8128283,9.2761263 12.8944704,9.49309766 13.0516095,9.66057422 C13.2157716,9.83553255 13.4481152,9.93538542 13.68953,9.93538542 C13.9084129,9.93538542 14.1173465,9.8548125 14.276534,9.71006901 L18.107276,5.99882292 L14.8451026,2.71173568 C14.6812331,2.53735286 14.4488896,2.4375 14.2071821,2.4375 C13.9888845,2.4375 13.7796583,2.51778516 13.6190076,2.66396745 C13.4487004,2.81849479 13.3500861,3.02913542 13.3407221,3.25732943 C13.3316508,3.48494792 13.4132929,3.70249479 13.570432,3.86997135 L15.4555164,6.12486198 L13.1001851,8.45485807 Z" id="Fill-29" fill="#20528E"></path>
                <path d="M41.7886824,7.86552474 L41.7562012,7.88509245 C41.4600656,8.06782031 41.1899735,8.1987513 40.9298307,8.28536719 C40.6693953,8.37198307 40.4136418,8.41629818 40.1704712,8.41629818 C39.6174117,8.41629818 39.191351,8.22464974 38.9039941,7.84768359 C38.6210266,7.47589714 38.4776408,6.92426042 38.4776408,6.20802474 C38.4776408,5.47020703 38.6186856,4.90821094 38.8969712,4.53815104 C39.179646,4.16060938 39.6127297,3.9692487 40.183054,3.9692487 C40.5005512,3.9692487 40.7966868,4.02363542 41.0632673,4.13125781 C41.3301405,4.23974349 41.5677512,4.40204036 41.7696619,4.61325651 L41.7886824,4.63311198 L41.7886824,7.86552474 Z M44.5329112,3.32380208 C44.5329112,3.08697526 44.4395641,2.86453646 44.2692569,2.6970599 C44.0992423,2.52958333 43.8727512,2.4375 43.6322142,2.4375 C43.530381,2.4375 43.4291331,2.45476562 43.3305188,2.48929687 L43.2755054,2.5080013 L43.2752128,2.50771354 C42.7382476,2.69533333 42.4839573,2.91460677 42.167338,3.44984115 L42.1272485,3.51746484 L42.0628712,3.6406263 L41.9426027,3.50077474 C41.640322,3.14855599 41.2836132,2.88036328 40.8824256,2.7028151 C40.4806527,2.52670573 40.0262075,2.4375 39.5305023,2.4375 C38.5355804,2.4375 37.7282305,2.78626562 37.1303995,3.47372526 C36.5293496,4.16492578 36.2247279,5.10072266 36.2247279,6.25579297 C36.2247279,7.35849089 36.5223266,8.25141146 37.1093306,8.91038281 C37.6910673,9.5661888 38.4747146,9.89883984 39.4383257,9.89883984 C39.8702389,9.89883984 40.2778642,9.83927344 40.6497895,9.72186719 C41.0243483,9.60359766 41.3687669,9.42230859 41.6751443,9.18289193 L41.7875119,9.095125 L41.7880972,11.2101641 L41.7889751,11.2101641 C41.7889751,11.808418 42.2820466,12.2932943 42.8904121,12.2932943 C43.4987776,12.2932943 43.9915566,11.808418 43.9915566,11.2101641 L43.9921418,4.74533854 C43.9918492,4.39772396 44.0664684,4.16895443 44.2470174,3.97270182 L44.2470174,3.97241406 L44.256674,3.96263021 C44.2625265,3.95629948 44.2686716,3.94996875 44.2751093,3.94335026 L44.2847659,3.93299089 C44.4448313,3.76781641 44.5329112,3.55113281 44.5329112,3.32380208 L44.5329112,3.32380208 Z" id="Fill-30" fill="#20528E"></path>
                <path d="M47.2512697,2.16597266 C47.8593425,2.16597266 48.3527068,1.68109635 48.3527068,1.08284245 C48.3527068,0.484588542 47.8593425,0 47.2512697,0 C46.6426116,0 46.14954,0.484588542 46.14954,1.08284245 C46.14954,1.68109635 46.6426116,2.16597266 47.2512697,2.16597266" id="Fill-31" fill="#20528E"></path>
                <path d="M10.1994741,2.16597266 C10.8075469,2.16597266 11.3009111,1.68109635 11.3009111,1.08284245 C11.3009111,0.484588542 10.8075469,0 10.1994741,0 C9.59081596,0 9.09774436,0.484588542 9.09774436,1.08284245 C9.09774436,1.68109635 9.59081596,2.16597266 10.1994741,2.16597266" id="Fill-31-Copy" fill="#20528E"></path>
                <path d="M24.1435112,2.16597266 C24.7515841,2.16597266 25.2449483,1.68109635 25.2449483,1.08284245 C25.2449483,0.484588542 24.7515841,0 24.1435112,0 C23.5348531,0 23.0417815,0.484588542 23.0417815,1.08284245 C23.0417815,1.68109635 23.5348531,2.16597266 24.1435112,2.16597266" id="Fill-31-Copy-2" fill="#20528E"></path>
                <path d="M46.1498326,3.84214587 L46.14954,3.52063021 L46.1501252,8.50550391 C46.1501252,8.50636719 46.1498326,8.82903389 46.1498326,8.83018494 C46.1498326,9.42843884 46.6429042,9.91302738 47.2515623,9.91302738 C47.8596352,9.91302738 48.3529994,9.42843884 48.3529994,8.83018494 L48.3529994,3.84214587 C48.3529994,3.24417973 47.8596352,2.75901567 47.2515623,2.75901567 C46.6429042,2.75901567 46.1498326,3.24417973 46.1498326,3.84214587 Z" id="Fill-32" fill="#20528E"></path>
                <path d="M10.1997667,2.7625 C9.59110858,2.7625 9.09803698,3.24766406 9.09803698,3.84563021 L9.09774436,3.84563021 L9.09832961,8.83050391 C9.09832961,8.83136719 9.09803698,8.83251823 9.09803698,8.83366927 C9.09803698,9.43192318 9.59110858,9.91651172 10.1997667,9.91651172 C10.8078396,9.91651172 11.3012038,9.43192318 11.3012038,8.83366927 L11.3012038,3.84563021 C11.3012038,3.24766406 10.8078396,2.7625 10.1997667,2.7625" id="Fill-32-Copy" fill="#20528E"></path>
                <path d="M24.1438039,2.7625 C23.5351457,2.7625 23.0420741,3.24766406 23.0420741,3.84563021 L23.0417815,3.84563021 L23.0423668,8.83050391 C23.0423668,8.83136719 23.0420741,8.83251823 23.0420741,8.83366927 C23.0420741,9.43192318 23.5351457,9.91651172 24.1438039,9.91651172 C24.7518767,9.91651172 25.2452409,9.43192318 25.2452409,8.83366927 L25.2452409,3.84563021 C25.2452409,3.24766406 24.7518767,2.7625 24.1438039,2.7625" id="Fill-32-Copy-2" fill="#20528E"></path>
                <path d="M2.39159979,2.76582109 L3.89832124,6.87503984 L5.35793021,2.72150599 C5.49078154,2.34310104 5.85305017,2.08929635 6.26009028,2.08929635 L6.26009028,2.08929635 C6.92990683,2.08929635 7.39137502,2.74999427 7.15142327,3.36465052 L4.02473484,11.3445346 C3.87637443,11.7232273 3.50620495,11.9730034 3.09331236,11.9730034 L3.09331236,11.9730034 C2.37287185,11.9730034 1.88945685,11.2452573 2.17973995,10.5963576 L2.91803053,8.94490052 L0.461743902,3.53011276 C0.154781229,2.8530125 0.658679916,2.08929635 1.41247958,2.08929635 L1.41247958,2.08929635 C1.85112309,2.08929635 2.24265412,2.36007891 2.39159979,2.76582109" id="Fill-33" fill="#20528E"></path>
                <path d="M59.9913494,1.11248177 L59.9913494,3.14148047 C60.7293474,2.58178646 61.5522064,2.29632812 62.3024945,2.29632812 C64.0207832,2.29632812 64.9042153,3.30780599 64.9042153,5.31896354 L64.9042153,8.73899609 C64.9042153,9.35365234 64.3973904,9.85176562 63.772638,9.85176562 C63.1478855,9.85176562 62.6413532,9.35365234 62.6413532,8.73899609 L62.6413532,5.3425599 C62.6413532,4.33108203 62.3993531,3.84332812 61.5279186,3.84332812 C61.0802037,3.84332812 60.5479205,4.06922005 59.9913494,4.50949349 L59.9913494,8.73899609 C59.9913494,9.35365234 59.4848171,9.85176562 58.8600647,9.85176562 C58.2350196,9.85176562 57.7284873,9.35365234 57.7284873,8.73899609 L57.7284873,1.11248177 C57.7284873,0.498113281 58.2350196,0 58.8600647,0 C59.4848171,0 59.9913494,0.498113281 59.9913494,1.11248177" id="Fill-34" fill="#20528E"></path>
                <path d="M70.5636266,3.90766797 C69.7536431,3.90766797 69.193268,4.52059766 69.1309391,5.62300781 L71.9091122,5.62300781 C71.896822,4.52059766 71.3981905,3.90766797 70.5636266,3.90766797 L70.5636266,3.90766797 Z M69.2055582,6.70124609 C69.3302161,7.80365625 70.0652878,8.37946484 71.3736101,8.37946484 C71.9038449,8.37946484 72.4653906,8.31327995 73.0544429,8.17083854 C73.5557079,8.04969141 74.0394156,8.4183125 74.0280032,8.92563411 L74.0280032,8.92563411 C74.0201024,9.28015495 73.7631784,9.58345443 73.4102738,9.65769661 C72.4694873,9.85567578 71.6229258,9.94775911 70.9124345,9.94775911 C68.3958673,9.94775911 66.8262317,8.48967708 66.8262317,6.21090234 C66.8262317,3.90766797 68.3086654,2.4375 70.5762094,2.4375 C72.4337872,2.4375 73.612477,3.45933724 73.9925957,5.28805469 C74.144175,6.01723958 73.5732654,6.70124609 72.8162469,6.70124609 L69.2055582,6.70124609 Z" id="Fill-35" fill="#20528E"></path>
                <path d="M34.8193952,4.17081777 C34.7346423,3.8657126 34.5913489,3.58493574 34.3938835,3.3373598 C34.1504012,3.04341711 33.8512906,2.81816594 33.5058719,2.66876174 C33.1595794,2.5196437 32.76028,2.44351057 32.3193323,2.44351057 C31.9022668,2.44351057 31.4755902,2.52679912 31.050661,2.69108644 C30.4410814,2.92749999 29.9471268,3.18766942 29.5836507,3.46443931 L29.5210326,3.51137857 L29.4820056,3.44440423 C29.166294,2.9117582 28.913783,2.69366238 28.3790537,2.50733646 L28.3787625,2.50733646 L28.3240081,2.48901873 C28.2258579,2.45438671 28.1247953,2.4375 28.0237326,2.4375 C27.7840365,2.4375 27.5589027,2.52880256 27.3896882,2.69537966 C27.2201826,2.86195683 27.1269836,3.08348719 27.1269836,3.31904207 C27.1269836,3.54486566 27.2146489,3.76038553 27.3736697,3.9249591 L27.3838633,3.93526289 C27.3902708,3.94184581 27.3963869,3.9478563 27.4022119,3.9544393 L27.4112405,3.96417059 C27.5912311,4.15965538 27.665499,4.38719632 27.6649165,4.73265774 L27.6649165,8.77601635 C27.6649165,9.06423481 27.778794,9.33470795 27.9858705,9.53849301 C28.1932383,9.7414194 28.4687578,9.85390189 28.7617521,9.85390189 C29.3657981,9.85390189 29.8580052,9.37019865 29.8582965,8.77601635 L29.8580052,8.76370912 L29.8580052,4.62246494 L29.8833437,4.60185751 C30.1748818,4.36945093 30.4585562,4.19600467 30.7270858,4.0869568 C30.9976541,3.9759054 31.2801635,3.91923486 31.5667505,3.91923486 C31.9945921,3.91923486 32.3038962,4.03457947 32.486508,4.26097548 C32.667081,4.48450937 32.7550376,4.91411802 32.75562,5.57498832 L32.75562,8.77601635 C32.7550376,9.06423481 32.8694976,9.33470795 33.0765741,9.53849301 C33.2833594,9.7414194 33.5588788,9.85390189 33.8521644,9.85390189 C34.4565016,9.85390189 34.9484175,9.37019865 34.949,8.77601635 L34.9484175,5.49112735 C34.9484175,4.92155961 34.905313,4.4776402 34.8193952,4.17081777 L34.8193952,4.17081777 Z" id="Fill-1-path" fill="#20528E"></path>
            </g>
            <circle id="Oval" fill="#DDDDDD" cx="28.5" cy="60.5" r="1.5"></circle>
            <circle id="Oval" fill="#DDDDDD" cx="63.5" cy="60.5" r="1.5"></circle>
            <circle id="Oval" fill="#DDDDDD" cx="98.5" cy="60.5" r="1.5"></circle>
        </g>
    </g>
</svg>