<?xml version="1.0" encoding="UTF-8"?>
<svg width="176px" height="66px" viewBox="0 0 176 66" version="1.1" xmlns="http://www.w3.org/2000/svg" xmlns:xlink="http://www.w3.org/1999/xlink">
    <!-- Generator: Sketch 41 (35326) - http://www.bohemiancoding.com/sketch -->
    <title>yixin-logo-svg</title>
    <desc>Created with Sketch.</desc>
    <defs>
        <polygon id="path-1" points="51.4438901 21.4050081 51.4438901 42.5426356 0 42.5426356 0 21.4050081 0 0.267380465 51.4438901 0.267380465"></polygon>
        <polygon id="path-3" points="0 0.140624011 0 21.8559726 25.7782017 21.8559726 25.7782017 0.140624011"></polygon>
        <polygon id="path-5" points="0.000176354054 9.80588715 33.7071699 9.80588715 33.7071699 0.000143589744 0.000176354054 0.000143589744"></polygon>
    </defs>
    <g id="Page-1" stroke="none" stroke-width="1" fill="none" fill-rule="evenodd">
        <g id="yixin-logo-svg">
            <rect id="Rectangle" x="0" y="0" width="178" height="70"></rect>
            <g id="yixin-logo">
                <g id="logo-group">
                    <g id="Page-1">
                        <path d="M15.3552363,4.32637334 L14.1148149,0.938206925 C13.8446171,0.19902863 13.0244244,-0.182791525 12.2828025,0.086290646 C11.5411806,0.355727338 11.1589928,1.17325499 11.4288351,1.9127878 L12.668901,5.30130874 C12.9390988,6.04084155 13.7592915,6.42230719 14.5009134,6.15287049 C15.2428909,5.88378832 15.6250786,5.06626068 15.3552363,4.32637334 L15.3552363,4.32637334 Z M5.32378616,11.4153946 L1.92355971,10.1848487 C1.18193777,9.91576662 0.361745128,10.2972322 0.0915472927,11.0367651 C-0.178295019,11.7762979 0.204248232,12.5938256 0.945870183,12.8629077 L4.34609662,14.0930989 C5.08771857,14.3625356 5.90791121,13.9810699 6.17775352,13.2418917 C6.44759583,12.5023588 6.0654081,11.6848313 5.32378616,11.4153946 L5.32378616,11.4153946 Z M9.90897232,7.21927256 C10.4671442,7.77587204 10.4671442,8.67813044 9.90897232,9.23508445 C9.35044493,9.7913294 8.44563771,9.7913294 7.88782139,9.23508445 L4.45239813,5.80898418 C3.89422629,5.25238471 3.89422629,4.3501263 4.45239813,3.79388134 C5.01056998,3.23728186 5.9153772,3.23728186 6.47354904,3.79388134 L9.90897232,7.21927256 Z" id="Fill-1" fill="#E8474D"></path>
                        <g id="Group-5" transform="translate(0.000000, 5.263943)">
                            <g id="Fill-3-Clipped">
                                <mask id="mask-2" fill="white">
                                    <use xlink:href="#path-1"></use>
                                </mask>
                                <g id="path-1"></g>
                                <path d="M42.8700862,31.4312792 C40.9353275,31.4312792 39.3660469,29.8664192 39.3660469,27.9367562 C39.3660469,26.0074477 40.9353275,24.4429422 42.8700862,24.4429422 C44.8052004,24.4429422 46.3741255,26.0074477 46.3741255,27.9367562 C46.3741255,29.8664192 44.8052004,31.4312792 42.8700862,31.4312792 L42.8700862,31.4312792 Z M9.80107093,16.8930424 C10.9949187,10.2202301 17.6677387,5.11050501 25.7221228,5.11050501 C33.7761515,5.11050501 40.4493269,10.2202301 41.6428192,16.8930424 L9.80107093,16.8930424 Z M25.7221228,31.4312792 C21.6385803,31.4312792 18.1338299,28.9638063 16.6228552,25.4430487 L34.8210349,25.4430487 C33.3107713,28.9638063 29.8056653,31.4312792 25.7221228,31.4312792 L25.7221228,31.4312792 Z M8.57415944,31.4312792 C6.63904522,31.4312792 5.07047568,29.8664192 5.07047568,27.9374652 C5.07047568,26.0074477 6.63904522,24.4432967 8.57415944,24.4432967 C10.5089181,24.4432967 12.0781988,26.0074477 12.0781988,27.9374652 C12.0781988,29.8664192 10.5089181,31.4312792 8.57415944,31.4312792 L8.57415944,31.4312792 Z M51.4438901,19.2105526 C51.4438901,17.9307283 50.4036284,16.8930424 49.1198332,16.8930424 L46.6770315,16.8930424 C45.480695,7.53685334 36.5559895,0.267380465 25.7224783,0.267380465 C14.8886117,0.267380465 5.96390615,7.53685334 4.76756968,16.8930424 L2.32441243,16.8930424 C1.04097271,16.8930424 0,17.9307283 0,19.2105526 C0,20.4038735 0.903740652,21.3855448 2.06559134,21.5138818 C0.765442023,23.3237164 0,25.5416057 0,27.9374652 C0,31.1203634 1.35098917,33.9880916 3.51150528,36.0031944 L3.51150528,37.4943138 C3.51150528,40.2833381 5.7783229,42.5427066 8.57415944,42.5427066 C10.8509317,42.5427066 12.7768023,41.0437877 13.4131893,38.9811789 L38.0307008,38.9811789 C38.6674433,41.0437877 40.5929584,42.5427066 42.8700862,42.5427066 C45.6662783,42.5427066 47.9327404,40.2833381 47.9327404,37.4943138 L47.9327404,36.0031944 C50.0932565,33.9880916 51.4438901,31.1203634 51.4438901,27.9374652 C51.4438901,25.5416057 50.6788036,23.3237164 49.3790098,21.5138818 C50.540505,21.3855448 51.4438901,20.4038735 51.4438901,19.2105526 L51.4438901,19.2105526 Z" id="Fill-3" fill="#E8474D" mask="url(#mask-2)"></path>
                            </g>
                        </g>
                    </g>
                    <g id="Page-1" transform="translate(62.866954, 10.051282)">
                        <path d="M25.7749268,28.7777599 C25.0424675,28.7777599 24.449105,29.3716779 24.449105,30.1036837 L24.4487529,30.1036837 L24.4494571,36.2059626 C24.4494571,36.2070194 24.449105,36.2084285 24.449105,36.2098375 C24.449105,36.9421955 25.0424675,37.535409 25.7749268,37.535409 C26.5066819,37.535409 27.1003964,36.9421955 27.1003964,36.2098375 L27.1003964,30.1036837 C27.1003964,29.3716779 26.5066819,28.7777599 25.7749268,28.7777599 L25.7749268,28.7777599 Z M32.737164,26.8107146 C32.737164,26.0783565 32.1438015,25.4847908 31.4116944,25.4847908 C30.6795872,25.4847908 30.0858726,26.0783565 30.0858726,26.8107146 L30.0862247,36.2042013 C30.0862247,36.2059626 30.0858726,36.207724 30.0858726,36.2098375 C30.0858726,36.9421955 30.6795872,37.535409 31.4116944,37.535409 C32.1438015,37.535409 32.737164,36.9421955 32.737164,36.2098375 L32.7368119,26.8216348 C32.7368119,26.8181122 32.737164,26.8145895 32.737164,26.8107146 L32.737164,26.8107146 Z M70.6458078,30.5492983 C70.543334,30.1737843 70.3700792,29.8282128 70.1313256,29.5235039 C69.8369333,29.1617283 69.4752815,28.8844961 69.0576388,28.700614 C68.6389397,28.5170841 68.1561504,28.4233818 67.6230046,28.4233818 C67.1187344,28.4233818 66.6028436,28.5258908 66.0890656,28.7280905 C65.3520285,29.0190611 64.7547924,29.3392696 64.3153168,29.6799095 L64.2396058,29.7376809 L64.1924186,29.6552509 C63.8106946,28.9996866 63.5053858,28.7312609 62.8588496,28.5019367 L62.8584974,28.5019367 L62.7922944,28.4793918 C62.6736219,28.4367678 62.551428,28.4159842 62.429234,28.4159842 C62.1394196,28.4159842 61.8672124,28.5283565 61.6626167,28.7333745 C61.457669,28.9383926 61.3449829,29.2110453 61.3449829,29.500959 C61.3449829,29.7788957 61.4509783,30.044151 61.6432489,30.246703 L61.6555739,30.2593846 C61.6633211,30.2674867 61.670716,30.2748842 61.677759,30.2829864 L61.6886754,30.2949633 C61.9063004,30.53556 61.996097,30.8156104 61.9953927,31.2407937 L61.9953927,36.2172351 C61.9953927,36.5719655 62.133081,36.9048555 62.3834553,37.1556679 C62.6341818,37.4054234 62.96731,37.5438634 63.3215667,37.5438634 C64.0519132,37.5438634 64.6470363,36.9485363 64.6473886,36.2172351 L64.6470363,36.2020877 L64.6470363,31.1051718 L64.6776729,31.0798088 C65.0301689,30.7937699 65.3731571,30.5802976 65.6978338,30.4460848 C66.0249755,30.3094062 66.366555,30.2396578 66.7130647,30.2396578 C67.2303641,30.2396578 67.6043409,30.3816204 67.8251351,30.6602617 C68.0434643,30.9353803 68.1498118,31.4641294 68.1505161,32.2775082 L68.1505161,36.2172351 C68.1498118,36.5719655 68.2882044,36.9048555 68.5385787,37.1556679 C68.7886009,37.4054234 69.121729,37.5438634 69.476338,37.5438634 C70.2070365,37.5438634 70.8018076,36.9485363 70.8025118,36.2172351 L70.8018076,32.1742947 C70.8018076,31.4732883 70.7496903,30.9269259 70.6458078,30.5492983 L70.6458078,30.5492983 Z M25.7749268,28.1366384 C26.5066819,28.1366384 27.1003964,27.5430726 27.1003964,26.8107146 C27.1003964,26.0783565 26.5066819,25.4847908 25.7749268,25.4847908 C25.0424675,25.4847908 24.449105,26.0783565 24.449105,26.8107146 C24.449105,27.5430726 25.0424675,28.1366384 25.7749268,28.1366384 L25.7749268,28.1366384 Z M56.8442316,35.29712 L56.8442316,33.4431517 L56.404404,33.4431517 C55.513832,33.4431517 54.8331378,33.5565809 54.3816894,33.7809734 C53.9101686,34.0155816 53.6724715,34.3731301 53.6735279,34.8441079 C53.6724715,35.1618505 53.7640289,35.4080834 53.9474959,35.5761136 C54.1281457,35.7399166 54.3940144,35.8226988 54.7398196,35.8226988 C55.0546364,35.8226988 55.3916381,35.7800748 55.7402605,35.695179 C56.0846573,35.6109877 56.4403226,35.4845248 56.7959879,35.319665 L56.8442316,35.29712 Z M59.6613829,35.7053947 C59.8536535,35.9082991 59.9592966,36.173202 59.9592966,36.4507865 C59.9592966,36.7407002 59.8466106,37.0133529 59.642015,37.2183709 C59.4370673,37.4226844 59.1645078,37.535409 58.8750456,37.535409 C58.7532038,37.535409 58.6306577,37.5142732 58.5119852,37.4723537 L58.4514164,37.4515701 L58.4485993,37.455445 C57.7738916,37.2588814 57.4309035,36.6815198 57.3625875,36.4891833 L57.3284295,36.3926628 L57.2407457,36.4458547 C56.6586519,36.8005851 56.0628243,37.0739425 55.4694618,37.2581768 C54.8796208,37.4424113 54.2985833,37.535409 53.7414917,37.535409 C52.8893034,37.535409 52.2205822,37.3120733 51.7532871,36.8706858 C51.2866966,36.4300029 51.0500558,35.8005061 51.0500558,34.9994565 C51.0500558,34.0645464 51.4902356,33.3455744 52.3582704,32.8633242 C53.240743,32.3719152 54.5626913,32.1228641 56.2860836,32.1228641 L56.8428231,32.1228641 L56.8442316,31.4549705 C56.8435274,30.9455959 56.6797805,30.5679684 56.3579209,30.3326556 C56.0441607,30.1036837 55.5427078,29.9877886 54.8658872,29.9877886 C54.4387366,29.9877886 53.9978525,30.0547189 53.5555597,30.1868181 C53.4375915,30.2216923 53.3199754,30.2607937 53.2051765,30.3037699 L53.1252398,30.3330079 C53.0291045,30.3735184 52.9266307,30.3939497 52.8213397,30.3939497 C52.6100533,30.3939497 52.4114441,30.3115198 52.2621351,30.1621596 C52.1135304,30.0131517 52.0321852,29.815179 52.0328894,29.6052293 C52.0321852,29.2748052 52.2413586,28.9764371 52.553006,28.8637124 L52.6223784,28.8369403 C52.878387,28.7467606 53.1460164,28.6696146 53.4189278,28.6090251 C53.9978525,28.4804486 54.6214993,28.4159842 55.2726134,28.4159842 C56.7304892,28.4159842 57.7826952,28.6826484 58.3996513,29.2089318 C59.0134381,29.7331014 59.3247333,30.6458188 59.3247333,31.9206643 L59.3247333,34.7105996 C59.3247333,35.0815341 59.3754421,35.3869475 59.6159564,35.6557253 L59.6152521,35.6567822 L59.6613829,35.7053947 Z M19.3180161,35.29712 L19.3173118,33.4431517 L18.8778363,33.4431517 C17.9872643,33.4431517 17.3069222,33.5565809 16.8551217,33.7809734 C16.3839531,34.0155816 16.1459038,34.3731301 16.1473123,34.8441079 C16.1459038,35.1618505 16.2381656,35.4080834 16.4212803,35.5761136 C16.6012259,35.7399166 16.8681509,35.8226988 17.2136041,35.8226988 C17.5284208,35.8226988 17.8647183,35.7800748 18.2133407,35.695179 C18.5587939,35.6109877 18.9137549,35.4845248 19.2690681,35.319665 L19.3180161,35.29712 Z M22.1348152,35.7053947 C22.3270858,35.9082991 22.4330812,36.173202 22.4330812,36.4507865 C22.4330812,36.7407002 22.320043,37.0133529 22.1150952,37.2183709 C21.9101475,37.4226844 21.6386445,37.535409 21.34883,37.535409 C21.2266361,37.535409 21.1040901,37.5142732 20.9850654,37.4723537 L20.9248487,37.4515701 L20.9220316,37.455445 C20.2476761,37.2588814 19.9046879,36.6815198 19.836372,36.4891833 L19.8018618,36.3926628 L19.714178,36.4458547 C19.1324363,36.8005851 18.5362567,37.0739425 17.9432463,37.2581768 C17.3534053,37.4424113 16.7720156,37.535409 16.214924,37.535409 C15.3627357,37.535409 14.6940145,37.3120733 14.2270717,36.8706858 C13.7601289,36.4300029 13.5238403,35.8005061 13.5238403,34.9994565 C13.5238403,34.0645464 13.9636681,33.3455744 14.8317027,32.8633242 C15.7148797,32.3719152 17.0361236,32.1228641 18.7595159,32.1228641 L19.3162554,32.1228641 L19.3173118,31.4549705 C19.3166076,30.9455959 19.1532128,30.5679684 18.8310011,30.3326556 C18.5182974,30.1036837 18.0161401,29.9877886 17.3400238,29.9877886 C16.912169,29.9877886 16.4716369,30.0547189 16.0289921,30.1868181 C15.911376,30.2216923 15.7934077,30.2607937 15.6782567,30.3037699 L15.5986722,30.3330079 C15.5021847,30.3735184 15.3997109,30.3939497 15.2944198,30.3939497 C15.0834856,30.3939497 14.8848765,30.3115198 14.7355674,30.1621596 C14.5869627,30.0131517 14.5056175,29.815179 14.5063217,29.6052293 C14.5056175,29.2748052 14.7151431,28.9764371 15.0271427,28.8637124 L15.0961628,28.8369403 C15.3518193,28.7467606 15.6194487,28.6696146 15.8930645,28.6090251 C16.4712848,28.4804486 17.0952838,28.4159842 17.7460458,28.4159842 C19.2039215,28.4159842 20.2561275,28.6826484 20.8734358,29.2089318 C21.4872226,29.7331014 21.7981657,30.6458188 21.7981657,31.9206643 L21.7981657,34.7105996 C21.7981657,35.0815341 21.8492265,35.3869475 22.0893887,35.6557253 L22.0886844,35.6567822 L22.1348152,35.7053947 Z M8.85652492,30.9050856 L8.81743695,30.8811315 C8.46106731,30.6574436 8.13603848,30.4971632 7.82298256,30.3911315 C7.50957448,30.2850999 7.2018007,30.2308512 6.90916911,30.2308512 C6.24361713,30.2308512 5.7308956,30.4654594 5.38509028,30.9272783 C5.04456712,31.3824041 4.87201661,32.0576952 4.87201661,32.9341294 C4.87201661,33.8373357 5.04174997,34.5253084 5.37663883,34.9786729 C5.71680984,35.4404918 6.23798283,35.6747476 6.9243113,35.6747476 C7.30638744,35.6747476 7.66275707,35.6081697 7.98356017,35.4764227 C8.30471542,35.343619 8.59065628,35.1449418 8.83363557,34.8863796 L8.85652492,34.8624256 L8.85652492,30.9050856 Z M11.8603125,35.719133 C12.0529352,35.9213329 12.1589305,36.1865881 12.1589305,36.464877 C12.1589305,36.7547908 12.0465966,37.0270913 11.8416488,37.2321092 C11.6370532,37.4371273 11.3644939,37.5498519 11.0750315,37.5498519 C10.9524855,37.5498519 10.8306437,37.528716 10.7119712,37.4864443 L10.6457682,37.4635471 L10.645416,37.4638993 C9.99923189,37.2342229 9.69321885,36.9657973 9.31219914,36.3105852 L9.26395543,36.227803 L9.18683591,36.0770338 L9.04175262,36.2482343 C8.67798796,36.6794062 8.24872454,37.0077168 7.76593524,37.225064 C7.28244166,37.4406499 6.73556217,37.5498519 6.13903039,37.5498519 C4.9417411,37.5498519 3.97017606,37.1232596 3.25074606,36.2813472 C2.52744247,35.4352078 2.16086066,34.2899957 2.16086066,32.8756535 C2.16086066,31.5257757 2.51899102,30.4326988 3.22539169,29.6260129 C3.92545379,28.823202 4.86849516,28.4159842 6.02810506,28.4159842 C6.54786946,28.4159842 7.03840592,28.4889029 7.48598083,28.6326269 C7.93672504,28.7774077 8.35119841,28.9993343 8.71989308,29.2924184 L8.85511634,29.4002114 L8.85582064,26.8107146 L8.85687707,26.8107146 C8.85687707,26.0783565 9.45023955,25.4847908 10.1823468,25.4847908 C10.914454,25.4847908 11.5074642,26.0783565 11.5074642,26.8107146 L11.5081686,34.7246902 C11.5078164,35.1502258 11.5976131,35.430276 11.8148859,35.6705205 L11.8148859,35.6708727 L11.8265066,35.683202 C11.8335496,35.6905996 11.8409445,35.6983494 11.8486917,35.7064515 L11.8603125,35.719133 Z M74.9321034,34.8687663 C74.5760859,34.8687663 74.240845,35.0075586 73.9890621,35.2590755 C73.7372792,35.5109446 73.5985345,35.8455959 73.5992388,36.2020877 C73.5985345,36.5585794 73.7372792,36.893583 73.9890621,37.1454521 C74.2415493,37.3973214 74.5760859,37.535409 74.9324556,37.535409 C75.6666757,37.535409 76.264616,36.9376161 76.2653204,36.2020877 C76.2649682,35.4672638 75.6673799,34.8687663 74.9321034,34.8687663 L74.9321034,34.8687663 Z M35.8624412,32.7456679 L38.0228441,30.1043882 C38.2119453,29.8993703 38.3105456,29.632706 38.299277,29.3540647 C38.2883606,29.0750712 38.1693359,28.8168613 37.9643882,28.6276952 C37.7710612,28.4487448 37.5196305,28.350463 37.256579,28.350463 C36.9657081,28.350463 36.6861058,28.473051 36.4892574,28.6861711 L32.8357643,32.9506858 L37.1734729,37.2535974 C37.3650393,37.4307865 37.61647,37.5290682 37.8798736,37.5290682 C38.1700403,37.5290682 38.4499947,37.4068325 38.6475473,37.1930079 C38.8366486,36.98799 38.9348968,36.7220302 38.9236282,36.4426844 C38.9130638,36.1636909 38.7940392,35.9058332 38.5890915,35.7166671 L35.8624412,32.7456679 Z M49.3861759,35.7127922 C49.5784464,35.9153444 49.6840896,36.1802473 49.6840896,36.4588885 C49.6840896,36.74845 49.5721078,37.0207506 49.3671601,37.2257685 C49.1622123,37.4307865 48.8903572,37.5438634 48.6001907,37.5438634 C48.4783489,37.5438634 48.356155,37.5223752 48.2371302,37.4797512 L48.1712793,37.4572063 L48.1712793,37.4579108 C47.5247432,37.2278821 47.2190823,36.9598088 46.8377104,36.3038921 L46.7898188,36.2214623 L46.71446,36.2799382 C46.2742802,36.6202258 45.6773962,36.9404342 44.9407111,37.2310525 C44.4269332,37.4329001 43.9110423,37.535409 43.4067723,37.535409 C42.8736264,37.535409 42.3908371,37.4424113 41.9717859,37.2581768 C41.5541432,37.074647 41.1928435,36.7977671 40.8984512,36.4352868 C40.6600498,36.130578 40.4864429,35.7860633 40.3832647,35.410197 C40.2800866,35.0325694 40.227265,34.4862071 40.227265,33.7852006 L40.227265,29.741908 C40.2279692,29.0106068 40.8227402,28.4159842 41.5534389,28.4159842 C41.9076957,28.4159842 42.2408238,28.5533673 42.4911981,28.8038275 C42.7419246,29.0542876 42.8792607,29.3871776 42.8792607,29.741908 L42.8792607,33.6819871 C42.8792607,34.4950136 42.9859603,35.024115 43.2046416,35.2988814 C43.4250837,35.5778749 43.7990606,35.719133 44.3167122,35.719133 C44.6635739,35.719133 45.0044492,35.6500892 45.331943,35.5130582 C45.6566197,35.3788454 45.9999601,35.1657253 46.3521039,34.8796866 L46.3827405,34.8543235 L46.3827405,29.756703 L46.3823883,29.741908 C46.3827405,29.0106068 46.9778636,28.4159842 47.7082101,28.4159842 C48.0624669,28.4159842 48.3952428,28.5533673 48.6456172,28.8038275 C48.8966958,29.0542876 49.034384,29.3871776 49.0340319,29.741908 L49.0340319,34.7179971 C49.0336798,35.1435327 49.1231244,35.4232307 49.3407493,35.6641797 L49.3407493,35.664532 L49.3520179,35.676509 C49.3590608,35.6839065 49.3664558,35.6923609 49.3742029,35.6997584 L49.3861759,35.7127922 Z" id="Fill-1" fill="#1E528E"></path>
                        <path d="M82.5829228,16.8241553 L82.5829228,16.8241553 L72.474632,16.8241553 L72.474632,13.2789648 L80.6242985,13.2789648 L80.6242985,13.2786125 C81.3736607,13.2786125 81.981109,12.6709562 81.981109,11.9213372 C81.981109,11.1713659 81.3736607,10.5640618 80.6242985,10.5640618 L72.474632,10.5640618 L72.474632,8.52409777 C72.474632,7.69909418 71.8059108,7.03084831 70.9822461,7.03084831 C70.1575251,7.03084831 69.4895081,7.69909418 69.4895081,8.52409777 L69.4895081,10.5640618 L62.69137,10.5640618 C62.4667021,10.5640618 62.2842916,10.3815887 62.2842916,10.156844 C62.2842916,10.0705392 62.3114067,9.99092742 62.3564811,9.92470167 L65.6796632,5.42910136 L81.6353036,5.42910136 C82.3846658,5.42910136 82.991762,4.821445 82.991762,4.07182602 C82.991762,3.32220705 82.3846658,2.71455069 81.6353036,2.71455069 L81.6353036,2.71419842 L67.685827,2.71419842 L67.8939441,2.43273903 C68.0256459,2.22455069 68.1052304,1.97127247 68.1052304,1.70601725 C68.1052304,0.958511862 67.4991907,0.352264557 66.7519414,0.352264557 C66.2906329,0.352264557 65.8835545,0.582997843 65.6395188,0.935262401 L64.3239092,2.71419842 L59.3812172,2.71419842 L59.3812172,2.71490295 C58.6336157,2.71666427 58.0279282,3.32326384 58.0279282,4.07182602 C58.0279282,4.82038821 58.6336157,5.42663552 59.3812172,5.42839684 L59.3812172,5.42910136 L62.3173931,5.42910136 L59.4136145,9.35861251 C59.1012628,9.76864846 58.9163873,10.2804889 58.9163873,10.8356578 C58.9163873,12.1848311 60.0097941,13.2789648 61.3588574,13.2789648 L69.4895081,13.2789648 L69.4895081,16.8241553 L59.3812172,16.8241553 C58.6336157,16.8262689 58.0279282,17.4332207 58.0279282,18.1814306 C58.0279282,18.9296405 58.6336157,19.5362401 59.3812172,19.5383537 L69.4895081,19.5383537 L69.4895081,21.6603954 C69.4895081,22.4850467 70.1575251,23.1532926 70.9822461,23.1532926 C71.8059108,23.1532926 72.474632,22.4850467 72.474632,21.6603954 L72.474632,19.5383537 L82.5829228,19.5383537 C83.3305244,19.5362401 83.9362119,18.9296405 83.9362119,18.1814306 C83.9362119,17.4328685 83.3305244,16.8262689 82.5829228,16.8241553" id="Fill-3" fill="#024A8A"></path>
                        <path d="M43.6070365,15.0518419 C43.7757135,14.8193472 43.9355868,14.4843437 44.0866565,14.2388152 L51.193977,14.2388152 C51.345751,14.4843437 51.5063287,14.8193472 51.6753578,15.0518419 L43.6070365,15.0518419 Z M50.6210389,19.6101453 L50.3125608,20.8606844 L50.347423,20.8701955 L49.0564635,20.8701955 L49.0564635,19.6101453 L50.6210389,19.6101453 Z M46.6143454,17.7100302 L43.2376376,17.7100302 C42.7132952,17.7100302 42.2879054,18.1355658 42.2879054,18.6597355 C42.2879054,18.8351632 42.3361492,18.9982617 42.4185508,19.1395198 L42.8457014,20.8701955 L40.3806941,20.8701955 L40.8078446,19.1398721 C40.8902463,18.9989662 40.93849,18.8351632 40.93849,18.6597355 C40.93849,18.1355658 40.5134523,17.7100302 39.9887578,17.7100302 L36.61205,17.7100302 L36.61205,16.8557886 L46.6143454,16.8557886 L46.6143454,17.7100302 Z M46.6143454,20.8701955 L45.3237381,20.8701955 L45.3582481,20.8606844 L45.0497701,19.6101453 L46.6143454,19.6101453 L46.6143454,20.8701955 Z M37.9026574,20.8701955 L36.61205,20.8701955 L36.61205,19.6101453 L38.1766254,19.6101453 L37.8681473,20.8606844 L37.9026574,20.8701955 Z M31.5489249,15.0518419 C31.7183061,14.8193472 31.8781794,14.4843437 32.0299534,14.2388152 L39.1379782,14.2388152 C39.2897522,14.4850482 39.4517384,14.8189949 39.6214717,15.0518419 L31.5489249,15.0518419 Z M34.1699319,20.8701955 L32.8793245,20.8701955 L32.9141867,20.8606844 L32.6053565,19.6101453 L34.1699319,19.6101453 L34.1699319,20.8701955 Z M54.4333489,15.2117699 C53.6927902,14.5269677 53.0621005,13.724509 52.5729726,12.8336319 C52.4123949,12.5405479 52.101804,12.3411661 51.7443779,12.3390525 L43.5443549,12.3390525 L43.5436506,12.3390525 C43.1834074,12.3390525 42.8696472,12.5398432 42.7087174,12.8357455 L42.7083653,12.8353932 C42.3977744,13.4007778 42.0290797,13.9288224 41.6124934,14.4152998 C41.1962593,13.9284702 40.8279168,13.4000733 40.517678,12.8343365 C40.3563961,12.5391387 40.042988,12.3390525 39.6830969,12.3390525 L31.4880039,12.3390525 C31.1274086,12.3390525 30.8136484,12.5398432 30.6527186,12.8357455 C30.169225,13.7157024 29.5483953,14.5090021 28.8194574,15.1874637 C28.4271691,15.5263422 28.3782211,16.1188512 28.7131099,16.5176146 C28.9008027,16.7413027 29.1705449,16.8561409 29.4413436,16.8557886 L34.1699319,16.8557886 L34.1699319,17.7100302 L30.7935762,17.7100302 C30.2688817,17.7100302 29.843844,18.1355658 29.843844,18.6597355 C29.843844,18.8351632 29.8920877,18.9982617 29.9744894,19.1395198 L30.40164,20.8701955 L29.9484308,20.8701955 L29.9484308,20.8705479 C29.4240885,20.8705479 28.9986986,21.2957311 28.9986986,21.820253 C28.9986986,22.344775 29.4240885,22.7703106 29.9484308,22.7703106 L53.2783168,22.7703106 C53.8026591,22.7703106 54.2276968,22.344775 54.2276968,21.820253 C54.2276968,21.2957311 53.8026591,20.8705479 53.2783168,20.8705479 L53.2783168,20.8701955 L52.8251076,20.8701955 L53.251906,19.1398721 C53.3346598,18.9989662 53.3829035,18.8351632 53.3829035,18.6597355 C53.3829035,18.1355658 52.9578659,17.7100302 52.4331714,17.7100302 L49.0564635,17.7100302 L49.0564635,16.8557886 L53.7861083,16.8557886 C54.0572592,16.8557886 54.3255927,16.7409504 54.5136376,16.5176146 C54.8407794,16.1283623 54.8013392,15.5538188 54.4333489,15.2117699 L54.4333489,15.2117699 Z M35.3640519,2.95507693 L47.8626957,2.95507693 C48.0760948,3.30734148 48.308862,3.64727678 48.5578278,3.9731215 L34.6685678,3.9731215 C34.9182378,3.64727678 35.1499485,3.30734148 35.3640519,2.95507693 L35.3640519,2.95507693 Z M48.003201,8.79104385 L47.7686733,9.70376132 L42.8344328,9.70376132 L42.8344328,8.79104385 L48.003201,8.79104385 Z M40.3923148,9.70376132 L35.45737,9.70376132 L35.2231944,8.79104385 L40.3923148,8.79104385 L40.3923148,9.70376132 Z M30.5942627,7.30941912 C30.6094049,7.30272609 30.6231385,7.29462401 30.6375764,7.28757872 C31.4235616,6.9000877 32.1581338,6.42347376 32.8296723,5.87288426 L40.3923148,5.87288426 L40.3923148,6.89128109 L33.2895722,6.89128109 C32.7648778,6.89128109 32.33984,7.31646441 32.33984,7.84098634 C32.33984,8.11187778 32.4532303,8.35494033 32.6345845,8.52790223 L32.9367239,9.70376132 L31.6461165,9.70376132 C31.1217743,9.70376132 30.6967366,10.1289446 30.6967366,10.6534666 C30.6967366,11.1783408 31.1217743,11.6035241 31.6461165,11.6035241 L51.580631,11.6035241 C52.1049733,11.6035241 52.5303632,11.1783408 52.5303632,10.6534666 C52.5303632,10.1289446 52.1049733,9.70376132 51.580631,9.70376132 L50.2900236,9.70376132 L50.591811,8.52790223 C50.7731651,8.35494033 50.8865554,8.11187778 50.8865554,7.84098634 C50.8865554,7.31646441 50.4615177,6.89128109 49.9371754,6.89128109 L42.8344328,6.89128109 L42.8344328,5.87288426 L50.3967233,5.87288426 C51.0682616,6.42347376 51.8024817,6.9000877 52.5891712,7.28757872 C52.6039612,7.29462401 52.6176949,7.30272609 52.6324849,7.30941912 C53.1790122,7.55741337 53.822027,7.31435082 54.0688799,6.7679885 C54.3115071,6.23289864 54.0826135,5.60481092 53.5600319,5.34730554 C51.8894612,4.5286427 50.50131,3.21258232 49.5857358,1.60026743 C49.3983953,1.27477498 49.0466034,1.05531417 48.644103,1.05531417 L34.5826446,1.05531417 C34.179792,1.05531417 33.8280002,1.27477498 33.6410118,1.60026743 C32.7254377,3.21258232 31.3372864,4.5286427 29.6670678,5.34730554 C29.1441341,5.60481092 28.9148884,6.23289864 29.1575155,6.7679885 C29.4043685,7.31435082 30.0480875,7.55741337 30.5942627,7.30941912 L30.5942627,7.30941912 Z" id="Fill-5" fill="#024A8A"></path>
                        <g id="Group-9" transform="translate(0.000000, 0.914479)">
                            <g id="Fill-7-Clipped">
                                <mask id="mask-4" fill="white">
                                    <use xlink:href="#path-3"></use>
                                </mask>
                                <g id="path-3"></g>
                                <path d="M4.02592044,6.42572825 L22.7930778,6.42572825 L22.7930778,6.87486556 C22.7930778,7.39973975 22.367688,7.82492307 21.8433457,7.82492307 L4.97565256,7.82492307 C4.45131028,7.82492307 4.02592044,7.39973975 4.02592044,6.87486556 L4.02592044,6.42572825 Z M4.02592044,3.53363623 C4.02592044,3.0091143 4.45131028,2.58357872 4.97565256,2.58357872 L21.8433457,2.58357872 C22.367688,2.58357872 22.7930778,3.0091143 22.7930778,3.53363623 L22.7930778,3.98242128 L4.02592044,3.98242128 L4.02592044,3.53363623 Z M22.3863516,11.4979856 L4.70062817,11.4979856 C4.78866414,11.0995744 4.8379643,10.6877771 4.84395074,10.2643552 C4.88761658,10.2661164 4.93163457,10.2678778 4.97565256,10.2678778 L21.8433457,10.2678778 C23.7167514,10.2678778 25.235548,8.74891301 25.235548,6.8745133 L25.235548,3.53363623 C25.235548,1.65994105 23.7167514,0.140624011 21.8433457,0.140624011 L4.97565256,0.140624011 C3.10224697,0.140624011 1.5834503,1.65994105 1.5834503,3.53363623 L1.5834503,6.8745133 C1.5834503,7.46279511 1.7334636,8.016555 1.99686724,8.49880518 C2.25604516,9.00113444 2.40324132,9.57074623 2.40324132,10.17488 C2.40324132,11.5099626 1.68909347,12.6780719 0.622801715,13.3184889 C0.254811332,13.529143 -0.000140857563,13.9303724 -0.000140857563,14.3844414 C-0.000140857563,15.0593803 0.546738632,15.6060949 1.22109422,15.6060949 C1.4471706,15.6060949 1.65845695,15.5444486 1.8401632,15.4377124 L1.84861466,15.4320762 C2.50325018,15.0442329 3.07900548,14.5366197 3.54594829,13.9409403 L7.95514216,13.9409403 C6.65185756,16.1616161 4.6752738,17.944427 2.30781031,19.000164 C1.72747716,19.2643623 1.41935124,19.9248583 1.61126966,20.5511848 C1.820091,21.2317599 2.54092958,21.6139669 3.22127161,21.4054263 C6.90328831,20.1961021 9.91940086,17.4537225 11.4758769,13.9409403 L16.0100819,13.9409403 C15.0522505,16.1799339 13.284136,17.9895169 11.0709114,18.99488 C10.4821268,19.2548512 10.1680145,19.9202789 10.3613414,20.5511848 C10.5701628,21.2321122 11.2910014,21.6139669 11.9716956,21.4054263 C11.9857814,21.4011991 11.9998671,21.3966197 12.0139529,21.391688 C15.4529902,20.1601711 18.1708369,17.4047578 19.3572098,13.9409403 L21.8433457,13.9409403 C22.367688,13.9409403 22.7930778,14.3664759 22.7930778,14.8909979 L22.7930778,18.4629605 C22.7930778,18.9878347 22.367688,19.413018 21.8433457,19.413018 L20.167845,19.413018 C19.4934895,19.413018 18.9466099,19.9600848 18.9466099,20.6346715 C18.9466099,21.3092581 19.4934895,21.8559726 20.167845,21.8559726 L22.3863516,21.8559726 C24.2597573,21.8559726 25.7782017,20.3366556 25.7782017,18.4629605 L25.7782017,14.8906456 C25.7782017,13.0173027 24.2597573,11.4979856 22.3863516,11.4979856 L22.3863516,11.4979856 Z" id="Fill-7" fill="#024A8A" mask="url(#mask-4)"></path>
                            </g>
                        </g>
                        <path d="M89.2316816,5.38277858 C88.5650732,5.8079619 87.8491646,6.16198778 87.0966331,6.4311179 C86.9578884,6.47902588 86.8092836,6.50474119 86.6546925,6.50474119 C85.9053303,6.50474119 85.2975299,5.89708483 85.2975299,5.14781812 C85.2975299,4.55671819 85.6750281,4.05403667 86.2021876,3.86768872 C87.5213186,3.39213156 88.6879713,2.56607117 89.5725569,1.51315241 L89.5736133,1.51385694 C89.8222269,1.23310208 90.1838787,1.05520848 90.588492,1.05520848 C91.3378543,1.05520848 91.9449504,1.66251258 91.9449504,2.41213156 L91.9449504,7.84158519 C91.9449504,8.5908519 91.3378543,9.198156 90.588492,9.198156 C89.8391298,9.198156 89.2316816,8.5908519 89.2316816,7.84158519 L89.2316816,5.38277858 Z" id="Fill-10" fill="#024A8A"></path>
                        <path d="M111.075943,17.144082 L111.075943,14.8688052 C111.075943,12.245491 108.949698,10.1188699 106.326578,10.1188699 L92.7591776,10.1188699 C90.1374661,10.1188699 88.0115733,12.245491 88.0115733,14.8688052 L88.0115733,17.144082 C88.0115733,17.9687333 88.6792382,18.6369792 89.5036071,18.6369792 C90.327976,18.6369792 90.9963452,17.9687333 90.9963452,17.144082 L90.9963452,14.5972092 C90.9963452,13.62355 91.7862039,12.8330682 92.7591776,12.8330682 L106.326578,12.8330682 C107.300608,12.8330682 108.090467,13.62355 108.090467,14.5972092 L108.090819,17.144082 C108.090819,17.9687333 108.759188,18.6369792 109.583557,18.6369792 C110.407926,18.6369792 111.075943,17.9687333 111.075943,17.144082" id="Fill-12" fill="#024A8A"></path>
                        <g id="Group-16" transform="translate(93.318136, 0.209949)" fill="#024A8A">
                            <path d="M18.4487136,4.43666643 L18.4508265,4.4359619 L17.3503768,1.7245816 C17.0866211,1.02322286 16.3041573,0.668140187 15.6026866,0.931986341 C14.9012159,1.1958325 14.546607,1.97821207 14.8103628,2.67992307 L14.8121236,2.68344572 L15.1677889,3.55987994 L11.8784127,3.55987994 L11.6368419,1.32159095 C11.5385938,0.578664989 10.8564911,0.0559043854 10.1138195,0.154186197 C9.37114803,0.252468009 8.84856647,0.934452193 8.94681462,1.67737814 L9.14859308,3.55987994 L1.52995964,3.55987994 C0.780597401,3.55987994 0.173149159,4.16718404 0.173149159,4.91645075 C0.173149159,5.66642199 0.780597401,6.27407836 1.52995964,6.27407836 L9.48136907,6.27407836 C9.74477271,7.60493386 10.2617199,8.83187132 10.97622,9.90909634 L15.4900006,10.6086937 L15.4900006,10.6072847 C13.9476102,9.63644357 12.7718018,8.1104335 12.2671795,6.27407836 L17.1809956,6.27407836 C17.9303578,6.27407836 18.5381582,5.66642199 18.5381582,4.91645075 C18.5381582,4.74736377 18.505761,4.58637886 18.4487136,4.43666643" id="Fill-14"></path>
                        </g>
                        <path d="M109.720013,19.7843401 L109.720013,19.7846923 C105.970385,19.7846923 102.674669,17.8352602 100.794573,14.8920899 C100.528353,14.483463 100.068453,14.2129238 99.5441107,14.2129238 C99.0141334,14.2129238 98.5493038,14.4905082 98.2848437,14.9072373 C96.4033387,17.841601 93.1125539,19.7846923 89.3689121,19.7846923 L89.3685599,19.7843401 C88.5445431,19.7843401 87.8768783,20.4529382 87.8768783,21.2772373 C87.8768783,22.1018885 88.5445431,22.7704867 89.3689121,22.7704867 C93.4217362,22.7704867 97.0586786,20.9929598 99.5448148,18.1748432 C102.030951,20.9922552 105.667541,22.7704867 109.720013,22.7704867 C110.544029,22.7704867 111.212399,22.1018885 111.212399,21.2772373 C111.212399,20.4529382 110.544029,19.7843401 109.720013,19.7843401" id="Fill-17" fill="#024A8A"></path>
                    </g>
                    <g id="Page-1" transform="translate(142.079317, 37.692307)">
                        <g id="Fill-1-Clipped">
                            <mask id="mask-6" fill="white">
                                <use xlink:href="#path-5"></use>
                            </mask>
                            <g id="path-5"></g>
                            <path d="M32.9678033,0.788547009 C32.4748937,0.26540171 31.7637459,-0.000239316239 30.8533181,-0.000239316239 C30.2947166,-0.000239316239 29.6355934,0.181162393 29.1700187,0.496581197 C28.5421982,0.920649572 28.2331377,1.30977778 28.1167441,1.43565811 L28.0342986,1.5251624 L27.9835967,1.41124786 C27.7882846,0.97042735 27.4761379,0.621025641 27.0564153,0.374529914 C26.6340474,0.126119658 26.1389333,-0.000239316239 25.5834181,-0.000239316239 C25.0230531,-0.000239316239 24.3987597,0.141435897 23.8714612,0.427658119 C23.2555446,0.762222222 22.5734953,1.50505983 22.5734953,1.50505983 C22.1185018,0.81391453 21.7433085,0.339111111 21.1035842,0.0926153846 L21.1035842,0.0930940171 L21.0378924,0.0686837607 C20.920176,0.0232136752 20.7993734,-0.000239316239 20.6785709,-0.000239316239 C20.3915547,-0.000239316239 20.1221739,0.121333334 19.9193668,0.341504273 C19.7165596,0.561675214 19.6050157,0.854598291 19.6050157,1.1657094 C19.6050157,1.4648547 19.7103872,1.74964103 19.9004087,1.96694017 L19.9127535,1.98082051 C19.9202486,1.9894359 19.9273027,1.99757265 19.9347978,2.0057094 L19.9458199,2.01863248 L19.9458199,2.01911111 C20.1609718,2.27757265 20.2495897,2.57815385 20.2491489,3.03524787 L20.2491489,8.38109401 C20.2491489,8.76208547 20.3853823,9.11962394 20.6331598,9.38909402 C20.8813781,9.6571282 21.2111602,9.8059829 21.5616639,9.8059829 C22.2851564,9.8059829 22.873738,9.16652991 22.874179,8.38109401 L22.873738,8.36482052 L22.873738,2.89644445 L22.9032774,2.86964103 C23.2074881,2.59347009 23.6977524,2.03059829 24.3969962,2.03059829 C24.8268592,2.03059829 25.1478236,2.17179488 25.3515125,2.45035897 C25.5529971,2.72461538 25.6508735,3.13958974 25.6508735,3.71777777 L25.6508735,8.36434189 C25.6508735,8.7477265 25.7884297,9.10717948 26.0379707,9.37760684 C26.2870707,9.64851282 26.6190572,9.79688889 26.9722063,9.79688889 C27.698785,9.79688889 28.2904528,9.1545641 28.2908937,8.36434189 L28.2908937,2.89596582 L28.3213148,2.86964103 C28.600836,2.61931624 29.0747875,2.03059829 29.7991618,2.03059829 C30.2338745,2.03059829 30.5592477,2.17179488 30.7647002,2.44940171 C30.9657438,2.72174359 31.0675883,3.14868376 31.0675883,3.71777777 L31.0675883,8.36434189 C31.0675883,8.7477265 31.2055854,9.10717948 31.4546854,9.37760684 C31.7042264,9.64851282 32.035772,9.79688889 32.3884802,9.79688889 C33.1154997,9.79688889 33.7071676,9.1545641 33.7071676,8.36434189 L33.7071676,3.0505641 C33.7080493,2.07223931 33.4589493,1.31121368 32.9678033,0.788547009 M15.8984943,4.90239316 C15.8993761,4.03798291 15.7093547,3.35641025 15.3346023,2.87682052 C14.9567637,2.39435897 14.4166794,2.14977777 13.7293394,2.14977777 C13.0486128,2.14977777 12.5111738,2.39435897 12.1324535,2.87634189 C11.7585829,3.35305983 11.5676796,4.03415385 11.5676796,4.90239316 C11.5676796,5.76919658 11.7572603,6.44933333 12.1293673,6.92413676 C12.5054423,7.40372649 13.0437631,7.64687179 13.7297804,7.64687179 C14.4153567,7.64687179 14.955441,7.40372649 15.3346023,6.92413676 C15.7093547,6.44837607 15.8993761,5.76776069 15.8984943,4.90239316 M18.5676129,4.90239316 C18.5680538,6.39046154 18.1289323,7.59039317 17.2612703,8.46964102 C16.3936083,9.35080342 15.2058638,9.79688889 13.7302213,9.79688889 C12.2589875,9.79688889 11.0734474,9.35080342 10.2049037,8.46964102 C9.33812352,7.5908718 8.89812015,6.39046154 8.89812015,4.90239316 C8.89812015,3.41336752 9.33812352,2.212 10.2049037,1.33083761 C11.0721248,0.447760684 12.2581058,-0.000239316239 13.7293394,-0.000239316239 C15.2058638,-0.000239316239 16.3940493,0.447760684 17.2612703,1.33083761 C18.1289323,2.212 18.5680538,3.41336752 18.5676129,4.90239316 M7.35590395,8.30547008 C7.47317939,8.8716923 7.14780616,9.43552137 6.62138931,9.57241026 L6.59405444,9.58102564 C6.40094675,9.62410256 6.19946224,9.66239316 5.99489154,9.69446154 C5.56282411,9.76290598 5.14706943,9.79688889 4.75864962,9.79688889 C3.29887894,9.79688889 2.12788802,9.34697436 1.27830236,8.45863248 C0.430039361,7.5717265 0.000176354054,6.34882051 0.000176354054,4.8234188 C0.000176354054,3.34635897 0.437093523,2.16078632 1.29990573,1.2997265 C2.16227706,0.437230769 3.35575312,-0.000239316239 4.84594487,-0.000239316239 C5.24891389,-0.000239316239 5.65981884,0.0356581197 6.06675582,0.105538462 C6.22591535,0.13234188 6.39433347,0.166803419 6.56892399,0.207965812 L6.62403463,0.221367521 C7.14780616,0.355863248 7.47362028,0.927350427 7.35105421,1.49644445 C7.24612356,1.97699146 6.85638109,2.31299145 6.4022694,2.31299145 C6.33745929,2.31299145 6.27132652,2.30581196 6.20739817,2.29145299 L6.16463232,2.28331624 C5.74358701,2.17849572 5.33180029,2.12536752 4.94073518,2.12536752 C4.19784373,2.12536752 3.62689748,2.35846154 3.2437683,2.81890599 C2.86284354,3.27647863 2.66973585,3.95565812 2.66973585,4.83825641 C2.66973585,5.75340171 2.8729839,6.45747009 3.2733076,6.93035897 C3.67539484,7.40564103 4.27147155,7.64687179 5.04434319,7.64687179 C5.38999714,7.64687179 5.75725445,7.60379487 6.14170629,7.51811966 L6.15978258,7.51189744 C6.16904117,7.50854701 6.17829975,7.50567521 6.18799923,7.50376069 C6.25898173,7.48605128 6.33128689,7.47791453 6.40315117,7.47791453 C6.85549933,7.47791453 7.25670479,7.82540171 7.35590395,8.30547008" id="Fill-1" fill="#E8474D" mask="url(#mask-6)"></path>
                        </g>
                    </g>
                </g>
            </g>
            <path d="M6.57421875,60.6074219 L6.33984375,61.6503906 L8.578125,61.6503906 L8.77734375,60.2910156 L5.75390625,60.2910156 L5.75390625,60.0390625 C5.4140608,60.3281264 5.03125213,60.6152329 4.60546875,60.9003906 C4.41796781,60.6660145 4.22656348,60.4472666 4.03125,60.2441406 C4.93750453,59.6777315 5.63476318,59.0957061 6.12304688,58.4980469 L4.40625,58.4980469 L4.40625,57.8183594 L6.59179688,57.8183594 C6.74414139,57.5488268 6.87695256,57.2480485 6.99023438,56.9160156 L4.72265625,56.9160156 L4.72265625,56.2363281 L7.18945312,56.2363281 C7.34179764,55.5878874 7.43359359,54.8457073 7.46484375,54.0097656 L8.30859375,54.0097656 C8.26562479,54.8378948 8.17382883,55.5800748 8.03320312,56.2363281 L11.3085938,56.2363281 L11.3085938,56.9160156 L7.86328125,56.9160156 C7.76562451,57.2441423 7.6542975,57.5449205 7.52929688,57.8183594 L11.6015625,57.8183594 L11.6015625,58.4980469 L9.40429688,58.4980469 C9.99414357,59.2597694 10.8281196,59.7871079 11.90625,60.0800781 C11.703124,60.3222668 11.5156259,60.5722643 11.34375,60.8300781 C10.6992155,60.5878894 10.134768,60.2539084 9.65039062,59.828125 L9.38671875,61.6503906 L11.015625,61.6503906 C10.9531247,62.6738332 10.9023439,63.4433568 10.8632812,63.9589844 C10.816406,64.9043016 10.3281296,65.3769531 9.3984375,65.3769531 C8.9374977,65.3769531 8.42969027,65.3652345 7.875,65.3417969 C7.82812477,65.0917956 7.77734402,64.8144546 7.72265625,64.5097656 C8.2929716,64.5644534 8.80859145,64.5917969 9.26953125,64.5917969 C9.74609613,64.5917969 10.0039061,64.3417994 10.0429688,63.8417969 C10.0820314,63.3886696 10.1171873,62.876956 10.1484375,62.3066406 L5.4140625,62.3066406 L5.77734375,60.6074219 L6.57421875,60.6074219 Z M0.94921875,54.7363281 L3.97265625,54.7363281 L3.97265625,64.2988281 C3.97265625,65.0175817 3.60937863,65.3769531 2.8828125,65.3769531 C2.37499746,65.3769531 2.00781363,65.3652345 1.78125,65.3417969 C1.75781238,65.1152332 1.71093785,64.8457047 1.640625,64.5332031 C2.03906449,64.5878909 2.38281105,64.6152344 2.671875,64.6152344 C2.9921891,64.6152344 3.15234375,64.4550797 3.15234375,64.1347656 L3.15234375,61.4160156 L1.76953125,61.4160156 L1.76953125,61.5917969 C1.76953125,63.3339931 1.44922195,64.6503862 0.80859375,65.5410156 C0.636717891,65.314452 0.421876289,65.0957042 0.1640625,64.8847656 C0.687502617,64.0956992 0.94921875,62.9668042 0.94921875,61.4980469 L0.94921875,54.7363281 Z M4.39453125,63.0800781 L9.45703125,63.0800781 L9.45703125,63.7597656 L4.39453125,63.7597656 L4.39453125,63.0800781 Z M1.76953125,60.6894531 L3.15234375,60.6894531 L3.15234375,58.4511719 L1.76953125,58.4511719 L1.76953125,60.6894531 Z M3.15234375,55.4980469 L1.76953125,55.4980469 L1.76953125,57.7246094 L3.15234375,57.7246094 L3.15234375,55.4980469 Z M6.19921875,59.6347656 L9.43945312,59.6347656 C9.10351395,59.3027327 8.81054813,58.9238303 8.56054688,58.4980469 L7.15429688,58.4980469 C6.90820189,58.8808613 6.5898457,59.2597637 6.19921875,59.6347656 Z M9.0703125,55.7324219 C9.47656453,55.2480445 9.8242173,54.7910178 10.1132812,54.3613281 L10.8515625,54.8535156 C10.4296854,55.3769557 10.0507829,55.82617 9.71484375,56.2011719 L9.0703125,55.7324219 Z M4.8984375,54.8183594 L5.5546875,54.3847656 C5.89843922,54.7832051 6.23827957,55.2285132 6.57421875,55.7207031 L5.859375,56.1894531 C5.55468598,55.6972632 5.23437668,55.2402365 4.8984375,54.8183594 Z M15.1171875,59.1425781 L17.3203125,59.1425781 L17.3203125,55.4980469 L15.2695312,55.4980469 L15.2695312,54.6308594 L21.75,54.6308594 L21.75,58.2988281 C21.6874997,61.4082187 21.8867164,63.3105434 22.3476562,64.0058594 C22.4492193,64.1777352 22.554687,64.2675781 22.6640625,64.2753906 C22.773438,64.2675781 22.8437498,64.1425793 22.875,63.9003906 C22.9375003,63.2988251 22.9882811,62.6582065 23.0273438,61.9785156 C23.4179707,62.1113288 23.7070303,62.2089841 23.8945312,62.2714844 C23.8320309,63.0683634 23.7695316,63.7480441 23.7070312,64.3105469 C23.5820306,65.1621136 23.3125021,65.5878906 22.8984375,65.5878906 C22.4374977,65.5878906 22.0078145,65.2832062 21.609375,64.6738281 C21.0234346,63.7285109 20.7617184,61.7285309 20.8242188,58.6738281 L20.8242188,55.4980469 L18.2460938,55.4980469 L18.2460938,59.1425781 L20.4140625,59.1425781 L20.4140625,60.0097656 L18.2460938,60.0097656 L18.2460938,65.5761719 L17.3203125,65.5761719 L17.3203125,60.0097656 L15.1171875,60.0097656 L15.1171875,59.1425781 Z M15.9492188,62.4707031 C16.0195316,62.8300799 16.0976558,63.1582016 16.1835938,63.4550781 C15.5742157,63.8613302 15.0039089,64.2714823 14.4726562,64.6855469 C14.2539052,64.8730478 14.0390636,65.1035143 13.828125,65.3769531 L13.0546875,64.5917969 C13.3593765,64.3105455 13.5117188,63.9042995 13.5117188,63.3730469 L13.5117188,58.9433594 L12.1523438,58.9433594 L12.1523438,58.0761719 L14.4257812,58.0761719 L14.4257812,63.5839844 C14.8945336,63.2558577 15.402341,62.8847677 15.9492188,62.4707031 Z M13.1953125,54.2441406 C13.9765664,55.0097695 14.5937477,55.6582005 15.046875,56.1894531 L14.25,56.8457031 C13.7109348,56.1503871 13.1289094,55.4785189 12.5039062,54.8300781 L13.1953125,54.2441406 Z M36.4570312,57.5136719 L44.8359375,57.5136719 L44.8359375,61.4746094 L43.921875,61.4746094 L43.921875,61.0058594 L41.2265625,61.0058594 L41.2265625,63.9824219 C41.2265625,64.9082078 40.7851607,65.3769531 39.9023438,65.3886719 L38.3671875,65.3886719 C38.3124997,65.0527327 38.2539066,64.7363296 38.1914062,64.4394531 C38.7148464,64.4863284 39.1679668,64.5097656 39.5507812,64.5097656 C40.0429712,64.5253907 40.2890625,64.271487 40.2890625,63.7480469 L40.2890625,61.0058594 L37.3710938,61.0058594 L37.3710938,61.5332031 L36.4570312,61.5332031 L36.4570312,57.5136719 Z M43.921875,58.3222656 L37.3710938,58.3222656 L37.3710938,60.1972656 L43.921875,60.1972656 L43.921875,58.3222656 Z M34.9335938,55.6503906 L40.3476562,55.6503906 C40.1249989,55.2363261 39.8710952,54.8105491 39.5859375,54.3730469 L40.4414062,53.9511719 C40.7539078,54.4199242 41.0585923,54.9042944 41.3554688,55.4042969 L40.8867188,55.6503906 L46.3945312,55.6503906 L46.3945312,56.4707031 L34.9335938,56.4707031 L34.9335938,55.6503906 Z M37.9453125,61.9902344 L38.5898438,62.6933594 C37.5429635,63.4824258 36.4921928,64.2050748 35.4375,64.8613281 C35.2890618,64.5957018 35.1093761,64.3339857 34.8984375,64.0761719 C35.9687554,63.4589813 36.9843702,62.7636757 37.9453125,61.9902344 Z M42.4921875,62.7753906 L43.0429688,62.0722656 C44.1132866,62.7050813 45.1406201,63.3456999 46.125,63.9941406 L45.5039062,64.8027344 C44.6757771,64.1855438 43.6718809,63.5097693 42.4921875,62.7753906 Z M47.9765625,60.4667969 L47.9765625,59.5761719 L49.3183594,56.4589844 L47.015625,56.4589844 L47.015625,55.5683594 L49.6992188,55.5683594 L50.390625,53.9628906 L51.3984375,54.1738281 L50.7890625,55.5683594 L58.2890625,55.5683594 L58.2890625,56.4589844 L50.4023438,56.4589844 L49.0429688,59.5761719 L52.5703125,59.5761719 L52.5703125,57.0097656 L53.5546875,57.0097656 L53.5546875,59.5761719 L57.7382812,59.5761719 L57.7382812,60.4667969 L53.5546875,60.4667969 L53.5546875,63.9238281 C53.5546875,64.9003955 53.0468801,65.3886719 52.03125,65.3886719 C51.5156224,65.3886719 50.9296908,65.3847657 50.2734375,65.3769531 C50.2265623,65.0722641 50.1679691,64.7207051 50.0976562,64.3222656 C50.6132838,64.3886722 51.1679658,64.4238281 51.7617188,64.4277344 C52.3007839,64.4316406 52.5703125,64.1542997 52.5703125,63.5957031 L52.5703125,60.4667969 L47.9765625,60.4667969 Z M49.6875,61.1699219 L50.4726562,61.7675781 C49.5820268,62.8144584 48.566412,63.8925726 47.4257812,65.0019531 C47.2226552,64.783202 47.0000012,64.5644542 46.7578125,64.3457031 C47.7968802,63.3613232 48.7734329,62.30274 49.6875,61.1699219 Z M54.6914062,61.9550781 L55.3476562,61.3105469 C56.4257866,62.2011763 57.5039009,63.1347607 58.5820312,64.1113281 L57.8554687,64.8496094 C56.7851509,63.7949166 55.7304739,62.8300825 54.6914062,61.9550781 Z M70.828125,57.1503906 L74.4316406,57.1503906 L74.7539062,55.5566406 L69.609375,55.5566406 L69.609375,54.6894531 L81.0117188,54.6894531 L81.0117188,55.5566406 L75.7089844,55.5566406 L75.3339844,57.1503906 L79.8046875,57.1503906 L79.8046875,65.4707031 L78.8671875,65.4707031 L78.8671875,64.6035156 L71.765625,64.6035156 L71.765625,65.4707031 L70.828125,65.4707031 L70.828125,57.1503906 Z M71.765625,63.7597656 L78.8671875,63.7597656 L78.8671875,61.2753906 L71.765625,61.2753906 L71.765625,63.7597656 Z M78.8671875,57.9941406 L71.765625,57.9941406 L71.765625,60.4316406 L78.8671875,60.4316406 L78.8671875,57.9941406 Z M84.2109375,61.7207031 L84.2109375,60.9472656 L91.5585938,60.9472656 L91.5585938,61.7089844 C90.851559,62.4707069 90.0253954,63.1328097 89.0800781,63.6953125 C90.20899,64.1484398 91.5312424,64.4433587 93.046875,64.5800781 L92.5898438,65.4941406 C90.8476475,65.2519519 89.3632874,64.8222687 88.1367188,64.2050781 C86.8320247,64.8418001 85.3359459,65.3144516 83.6484375,65.6230469 C83.5234369,65.3730456 83.3632822,65.0917984 83.1679688,64.7792969 C84.7148515,64.5371082 86.0722598,64.1738305 87.2402344,63.6894531 C86.4042927,63.1464817 85.7167996,62.4902382 85.1777344,61.7207031 L84.2109375,61.7207031 Z M83.859375,57.3613281 L85.6054688,57.3613281 L85.6054688,56.3769531 L86.4960938,56.3769531 L86.4960938,57.3613281 L89.8125,57.3613281 L89.8125,56.3652344 L90.703125,56.3652344 L90.703125,57.3613281 L92.8359375,57.3613281 L92.8359375,58.1347656 L90.703125,58.1347656 L90.703125,60.3847656 L89.8125,60.3847656 L89.8125,59.9746094 L86.4960938,59.9746094 L86.4960938,60.3964844 L85.6054688,60.3964844 L85.6054688,58.1347656 L83.859375,58.1347656 L83.859375,57.3613281 Z M86.9765625,54.3027344 L87.8320312,53.8925781 C88.0976576,54.310549 88.365233,54.7832005 88.6347656,55.3105469 L92.953125,55.3105469 L92.953125,56.1308594 L83.6015625,56.1308594 L83.6015625,59.6582031 C83.6015625,62.3300915 83.0820364,64.3222591 82.0429688,65.6347656 C81.8476553,65.3769518 81.6250012,65.1113295 81.375,64.8378906 C82.2343793,63.7831979 82.6718749,62.0371216 82.6875,59.5996094 L82.6875,55.3105469 L87.5507812,55.3105469 C87.3710929,54.9667952 87.1796885,54.630861 86.9765625,54.3027344 Z M86.4960938,59.2246094 L89.8125,59.2246094 L89.8125,58.1347656 L86.4960938,58.1347656 L86.4960938,59.2246094 Z M90.3398438,61.7207031 L86.15625,61.7207031 C86.7109403,62.3300812 87.3789023,62.845701 88.1601562,63.2675781 C89.0078167,62.8300759 89.734372,62.3144561 90.3398438,61.7207031 Z M105.679687,54.5839844 L114.304687,54.5839844 L114.304687,59.4589844 L113.390625,59.4589844 L113.390625,58.9902344 L105.679687,58.9902344 L105.679687,54.5839844 Z M104.167969,61.9550781 C105.417975,61.2753872 106.476558,60.3535214 107.34375,59.1894531 L108.175781,59.5058594 C108.01953,59.7167979 107.863282,59.9199209 107.707031,60.1152344 L114.984375,60.1152344 C114.914062,61.5918043 114.839844,62.7324179 114.761719,63.5371094 C114.660156,64.7949282 114.02735,65.4277343 112.863281,65.4355469 C112.214841,65.4433594 111.539066,65.4433594 110.835937,65.4355469 C110.789062,65.0996077 110.730469,64.7675798 110.660156,64.4394531 C111.339847,64.5019534 111.996091,64.5332031 112.628906,64.5332031 C113.363285,64.5332031 113.769531,64.1660193 113.847656,63.4316406 C113.933594,62.7285121 113.992187,61.8964892 114.023437,60.9355469 L112.21875,60.9355469 C111.742185,62.9902446 110.35548,64.5683539 108.058594,65.6699219 C107.855468,65.4121081 107.63672,65.1464857 107.402344,64.8730469 C109.589855,63.9746049 110.890623,62.662118 111.304687,60.9355469 L109.523437,60.9355469 C108.953122,62.5996177 107.445325,63.9042921 105,64.8496094 C104.796874,64.5917956 104.578126,64.3300795 104.34375,64.0644531 C106.648449,63.2050738 108.050779,62.1621155 108.550781,60.9355469 L106.96875,60.9355469 C106.304684,61.6074252 105.56641,62.1972631 104.753906,62.7050781 C104.589843,62.470702 104.394532,62.2207045 104.167969,61.9550781 Z M106.59375,58.1699219 L113.390625,58.1699219 L113.390625,57.1855469 L106.59375,57.1855469 L106.59375,58.1699219 Z M113.390625,55.4042969 L106.59375,55.4042969 L106.59375,56.3652344 L113.390625,56.3652344 L113.390625,55.4042969 Z M116.261719,62.2714844 L121.96875,62.2714844 L121.96875,60.2675781 L117.667969,60.2675781 L117.667969,59.4121094 C118.195315,58.4706984 118.679685,57.5566451 119.121094,56.6699219 L116.707031,56.6699219 L116.707031,55.8027344 L119.542969,55.8027344 C119.847658,55.1699187 120.128905,54.5527374 120.386719,53.9511719 L121.265625,54.2207031 C121.007811,54.7753934 120.759767,55.3027319 120.521484,55.8027344 L127.113281,55.8027344 L127.113281,56.6699219 L120.099609,56.6699219 C119.583982,57.7285209 119.113283,58.6464805 118.6875,59.4238281 L121.96875,59.4238281 L121.96875,57.1621094 L122.882812,57.1621094 L122.882812,59.4238281 L126.269531,59.4238281 L126.269531,60.2675781 L122.882812,60.2675781 L122.882812,62.2714844 L127.558594,62.2714844 L127.558594,63.1386719 L122.882812,63.1386719 L122.882812,65.5996094 L121.96875,65.5996094 L121.96875,63.1386719 L116.261719,63.1386719 L116.261719,62.2714844 Z M128.191406,60.5371094 L131.214844,60.5371094 L131.214844,57.3027344 L128.660156,57.3027344 L128.660156,56.4121094 L131.214844,56.4121094 L131.214844,54.1621094 L132.175781,54.1621094 L132.175781,56.4121094 L135.726562,56.4121094 L135.726562,54.1503906 L136.6875,54.1503906 L136.6875,56.4121094 L139.253906,56.4121094 L139.253906,57.3027344 L136.6875,57.3027344 L136.6875,60.5371094 L139.722656,60.5371094 L139.722656,61.4277344 L128.191406,61.4277344 L128.191406,60.5371094 Z M132.175781,60.5371094 L135.726562,60.5371094 L135.726562,57.3027344 L132.175781,57.3027344 L132.175781,60.5371094 Z M132.117188,62.0253906 L132.84375,62.7753906 C131.546869,63.7207079 130.19532,64.5956991 128.789062,65.4003906 C128.617187,65.1503894 128.410157,64.8808608 128.167969,64.5917969 C129.535163,63.8652307 130.851556,63.0097705 132.117188,62.0253906 Z M134.976562,62.8339844 L135.574219,62.0957031 C136.917975,62.8925821 138.210931,63.7167926 139.453125,64.5683594 L138.773438,65.4238281 C137.539056,64.494136 136.273444,63.6308634 134.976562,62.8339844 Z M141.855469,65.4472656 L140.953125,65.4472656 L140.953125,54.7011719 L150.9375,54.7011719 L150.9375,64.0878906 C150.9375,64.9550825 150.480473,65.3886719 149.566406,65.3886719 C148.996091,65.3886719 148.34766,65.373047 147.621094,65.3417969 C147.582031,65.068358 147.527344,64.7558611 147.457031,64.4042969 C148.230473,64.4746097 148.871091,64.5097656 149.378906,64.5097656 C149.816408,64.5097656 150.035156,64.2910178 150.035156,63.8535156 L150.035156,55.5683594 L141.855469,55.5683594 L141.855469,65.4472656 Z M143.472656,59.1894531 L148.40625,59.1894531 L148.40625,62.8808594 L144.339844,62.8808594 L144.339844,63.4902344 L143.472656,63.4902344 L143.472656,59.1894531 Z M147.539062,60.0332031 L144.339844,60.0332031 L144.339844,62.0371094 L147.539062,62.0371094 L147.539062,60.0332031 Z M142.511719,56.9980469 L149.378906,56.9980469 L149.378906,57.8417969 L142.511719,57.8417969 L142.511719,56.9980469 Z M156.550781,60.2558594 L156.550781,59.4355469 L162.574219,59.4355469 L162.574219,60.2441406 C162.042966,61.4824281 161.294927,62.5234333 160.330078,63.3671875 C161.263677,63.9531279 162.437493,64.361327 163.851562,64.5917969 C163.632811,64.8808608 163.437501,65.1777329 163.265625,65.4824219 C161.80468,65.1621078 160.585942,64.6445348 159.609375,63.9296875 C158.554682,64.6679724 157.28907,65.2167951 155.8125,65.5761719 C155.640624,65.2558578 155.468751,64.982423 155.296875,64.7558594 C156.714851,64.4589829 157.92187,63.9882845 158.917969,63.34375 C158.058589,62.5195271 157.445314,61.4902405 157.078125,60.2558594 L156.550781,60.2558594 Z M152.132812,60.3144531 C152.67969,60.1660149 153.249997,60.0000009 153.84375,59.8164062 L153.84375,57.2324219 L152.285156,57.2324219 L152.285156,56.4121094 L153.84375,56.4121094 L153.84375,54.1386719 L154.722656,54.1386719 L154.722656,56.4121094 L156.140625,56.4121094 L156.140625,57.2324219 L154.722656,57.2324219 L154.722656,59.5410156 C155.125002,59.4121087 155.53906,59.2753913 155.964844,59.1308594 C155.957031,59.3808606 155.964844,59.6855451 155.988281,60.0449219 C155.562498,60.177735 155.140627,60.3124993 154.722656,60.4492188 L154.722656,64.1347656 C154.722656,64.9863324 154.343754,65.4121094 153.585938,65.4121094 L152.449219,65.4121094 C152.417969,65.1386705 152.367188,64.8066426 152.296875,64.4160156 C152.734377,64.4628909 153.089842,64.4863281 153.363281,64.4863281 C153.683595,64.4863281 153.84375,64.29883 153.84375,63.9238281 L153.84375,60.7363281 C153.308591,60.9160165 152.777346,61.0996084 152.25,61.2871094 L152.132812,60.3144531 Z M162.492188,57.6894531 L163.804688,57.6894531 C163.726562,57.9707045 163.660157,58.2558579 163.605469,58.5449219 L162.363281,58.5449219 C161.464839,58.5449219 161.015625,58.1152387 161.015625,57.2558594 L161.015625,55.4160156 L158.414062,55.4160156 L158.414062,55.8496094 C158.421875,57.3574294 157.824225,58.4824182 156.621094,59.2246094 C156.42578,58.9667956 156.214845,58.7285167 155.988281,58.5097656 C157.019536,57.9472628 157.535156,57.0605529 157.535156,55.8496094 L157.535156,54.5957031 L161.894531,54.5957031 L161.894531,57.1269531 C161.894531,57.501955 162.093748,57.6894531 162.492188,57.6894531 Z M161.601562,60.2558594 L157.927734,60.2558594 C158.255861,61.2949271 158.818355,62.1562466 159.615234,62.8398438 C160.470707,62.1406215 161.13281,61.279302 161.601562,60.2558594 Z M167.390625,58.9082031 C169.734387,58.3066376 171.003905,57.2910228 171.199219,55.8613281 L169.324219,55.8613281 C169.042967,56.439456 168.73047,56.9589821 168.386719,57.4199219 C168.136718,57.248046 167.875001,57.0800789 167.601562,56.9160156 C168.335941,56.0488238 168.855467,55.0449276 169.160156,53.9042969 L170.039062,54.1152344 C169.921874,54.4589861 169.800782,54.7832016 169.675781,55.0878906 L175.230469,55.0878906 L175.230469,55.8261719 L174.433594,57.4199219 C174.167967,57.2949213 173.882814,57.1738287 173.578125,57.0566406 L174.199219,55.8613281 L172.113281,55.8613281 C172.050781,56.1113294 171.980469,56.3535145 171.902344,56.5878906 C172.574222,57.6972712 173.835928,58.4667947 175.6875,58.8964844 C175.468749,59.1933609 175.273438,59.4785143 175.101562,59.7519531 C173.437492,59.2207005 172.250004,58.4394583 171.539062,57.4082031 C170.999997,58.3457078 169.816415,59.1035127 167.988281,59.6816406 C167.83203,59.4472645 167.632814,59.1894545 167.390625,58.9082031 Z M165.878906,59.7285156 L174.023438,59.7285156 L174.023438,63.5488281 L173.109375,63.5488281 L173.109375,60.5488281 L166.792969,60.5488281 L166.792969,63.5488281 L165.878906,63.5488281 L165.878906,59.7285156 Z M167.226562,56.6464844 C167.367188,56.9511734 167.51953,57.2285144 167.683594,57.4785156 C166.753902,58.1738316 165.785161,58.9277303 164.777344,59.7402344 L164.167969,58.9433594 C165.269537,58.1855431 166.289058,57.4199257 167.226562,56.6464844 Z M165.140625,54.1035156 C165.812503,54.5253927 166.464841,54.9628884 167.097656,55.4160156 L166.5,56.1425781 C165.937497,55.6972634 165.312503,55.2324243 164.625,54.7480469 L165.140625,54.1035156 Z M170.414062,60.9941406 C170.40625,61.8378948 170.347657,62.4863259 170.238281,62.9394531 C172.01954,63.517581 173.718742,64.1191375 175.335938,64.7441406 L174.84375,65.5996094 C173.36718,64.9902313 171.722665,64.3613314 169.910156,63.7128906 C169.386716,64.6425828 167.718764,65.2871076 164.90625,65.6464844 C164.765624,65.3496079 164.597657,65.0449234 164.402344,64.7324219 C166.988294,64.5058582 168.550779,64.0214881 169.089844,63.2792969 C169.378908,62.8886699 169.515625,62.1269588 169.5,60.9941406 L170.414062,60.9941406 Z" id="---" fill="#999999"></path>
            <ellipse id="Oval" fill="#DDDDDD" cx="29.5" cy="59.5" rx="1.5" ry="1.5"></ellipse>
            <ellipse id="Oval" fill="#DDDDDD" cx="64.5" cy="59.5" rx="1.5" ry="1.5"></ellipse>
            <ellipse id="Oval" fill="#DDDDDD" cx="99.5" cy="59.5" rx="1.5" ry="1.5"></ellipse>
        </g>
    </g>
</svg>